<svg width="18" height="26" viewBox="0 0 18 26" fill="none" xmlns="http://www.w3.org/2000/svg">
<path d="M1.21484 9.31641L9.04245 17.172L16.7862 9.31641" stroke="#EF84F5" stroke-width="1.75" stroke-linecap="round" stroke-linejoin="round"/>
<path d="M9.05643 17.1725V9.47068C9.05643 9.47068 6.02323 8.10085 4.76522 8.1288C3.63301 8.14278 1.21484 9.31692 1.21484 9.31692C1.21484 5.01174 4.69533 1.53125 9.00052 1.53125C13.3057 1.53125 16.7862 5.02572 16.7862 9.31692C16.7862 9.31692 14.354 8.14278 13.3337 8.10085C12.0617 8.03096 9.04245 9.47068 9.04245 9.47068" stroke="#EF84F5" stroke-width="1.75" stroke-linecap="round" stroke-linejoin="round"/>
<path d="M9.00082 24.4684C10.9925 24.4684 12.6071 22.8538 12.6071 20.8621C12.6071 18.8705 10.9925 17.2559 9.00082 17.2559C7.00912 17.2559 5.39453 18.8705 5.39453 20.8621C5.39453 22.8538 7.00912 24.4684 9.00082 24.4684Z" stroke="#EF84F5" stroke-width="1.75" stroke-linecap="round" stroke-linejoin="round"/>
</svg>
