<svg width="14" height="20" viewBox="0 0 14 20" fill="none" xmlns="http://www.w3.org/2000/svg">
<path fill-rule="evenodd" clip-rule="evenodd" d="M1.34006 5.73711C1.37733 5.72201 1.41518 5.70684 1.4535 5.69165C1.75618 5.57173 2.09618 5.44794 2.42437 5.35255C2.7409 5.26056 3.08986 5.18179 3.39727 5.1775C3.73695 5.1705 4.14096 5.25388 4.51272 5.35432C4.89953 5.45883 5.30865 5.59813 5.677 5.73465C6.04679 5.87171 6.38366 6.00903 6.6277 6.11188C6.67527 6.13192 6.7194 6.1507 6.75964 6.16795C6.80038 6.14959 6.84513 6.12958 6.89343 6.10821C7.13725 6.00033 7.47411 5.85658 7.84451 5.71407C8.21328 5.57219 8.62442 5.42799 9.0149 5.32209C9.38875 5.22069 9.80197 5.13763 10.1548 5.15618C10.4395 5.16861 10.7717 5.25323 11.0715 5.34692C11.3855 5.44505 11.7164 5.57026 12.0133 5.691C12.0475 5.7049 12.0813 5.71878 12.1147 5.73259C11.6442 3.18556 9.41358 1.25 6.72807 1.25C4.03936 1.25 1.80753 3.18116 1.34006 5.73711ZM7.96309 12.5688L13.2609 7.18859C13.384 7.07203 13.4558 6.90887 13.4561 6.73585V6.7321C13.4547 3.02202 10.4485 0 6.72807 0C3.00758 0 0.000168034 3.0116 0 6.73447V6.73478C0 6.90937 0.0728731 7.074 0.197734 7.19094L5.53342 12.5516C4.21405 13.0374 3.27344 14.3067 3.27344 15.7951C3.27344 17.7026 4.81826 19.2501 6.72535 19.2501C8.63244 19.2501 10.1773 17.7026 10.1773 15.7951C10.1773 14.324 9.25837 13.0669 7.96309 12.5688ZM6.14689 11.396L1.70854 6.93691C1.77495 6.90948 1.84365 6.88161 1.91395 6.85376C2.1961 6.74196 2.4964 6.63335 2.77324 6.55288C3.06068 6.46934 3.28021 6.42904 3.41581 6.42736L3.41581 6.42739L3.42199 6.42725C3.57473 6.42385 3.83641 6.46641 4.18669 6.56105C4.52305 6.65193 4.89325 6.77726 5.24258 6.90674C5.59047 7.03568 5.90965 7.16574 6.14225 7.26376L6.14689 7.26572V11.396ZM11.7545 6.93681L7.39689 11.3622V7.25234L7.3992 7.25132C7.6303 7.14907 7.94744 7.01379 8.29336 6.8807C8.6409 6.74699 9.0084 6.61901 9.34211 6.5285C9.69092 6.4339 9.9456 6.39656 10.0904 6.40453L10.0904 6.40459L10.0991 6.40494C10.2132 6.40964 10.4175 6.45216 10.6986 6.54001C10.9671 6.6239 11.2628 6.73521 11.5425 6.84893C11.615 6.87842 11.686 6.90788 11.7545 6.93681ZM4.52344 15.7951C4.52344 14.5767 5.50992 13.5901 6.72535 13.5901C7.94079 13.5901 8.92727 14.5767 8.92727 15.7951C8.92727 17.0136 7.94079 18.0001 6.72535 18.0001C5.50992 18.0001 4.52344 17.0136 4.52344 15.7951Z" fill="url(#paint0_linear_10088_25087)"/>
<defs>
<linearGradient id="paint0_linear_10088_25087" x1="6.72876" y1="19.2501" x2="6.72876" y2="0" gradientUnits="userSpaceOnUse">
<stop stop-color="#EF84F5"/>
<stop offset="1" stop-color="#2EE09A"/>
</linearGradient>
</defs>
</svg>
