<svg width="10" height="17" viewBox="0 0 10 17" fill="none" xmlns="http://www.w3.org/2000/svg">
<path d="M2.69724 15.9487L2.70637 16.0004L2.69724 15.9487L2.69696 15.9487C2.69705 15.9487 2.69715 15.9487 2.69724 15.9487ZM2.65012 15.957L0.5 16.3361V12.0273L2.65012 11.6482V15.957Z" fill="#2EE09A" stroke="#2EE09A"/>
<path d="M6.79834 1.789L8.94846 1.40993V5.71872L6.79834 6.09779V1.789Z" fill="#2EE09A" stroke="#2EE09A"/>
<path d="M0.720716 2.86005L3.05768 2.44804C3.06087 2.44899 3.06555 2.45073 3.07108 2.45372C3.07901 2.458 3.08503 2.46287 3.08855 2.46648C3.08895 2.46688 3.08927 2.46723 3.08955 2.46754L8.72731 14.8844L6.39091 15.2963C6.38768 15.2954 6.38299 15.2936 6.37743 15.2906C6.36928 15.2862 6.36302 15.2811 6.35928 15.2773C6.35876 15.2767 6.35834 15.2763 6.35801 15.2759L0.720716 2.86005ZM3.08768 2.46341L3.08773 2.46353C3.08771 2.46349 3.08769 2.46345 3.08768 2.46341L3.54295 2.2567L3.08768 2.46341ZM8.8244 15.0983C8.82438 15.0982 8.82435 15.0982 8.82433 15.0981L8.8244 15.0983ZM6.37946 15.2984C6.37953 15.2984 6.3796 15.2983 6.37967 15.2983L6.37946 15.2984ZM3.06853 2.44613L3.06857 2.44612L3.06853 2.44613Z" fill="#2EE09A" stroke="#2EE09A"/>
</svg>
