<svg width="16" height="23" viewBox="0 0 16 23" fill="none" xmlns="http://www.w3.org/2000/svg">
<g filter="url(#filter0_d_8513_12036)">
<path d="M6.07708 13.5524C6.08262 13.5514 6.08656 13.5513 6.08908 13.5514C6.08996 13.5543 6.09105 13.5597 6.09105 13.568V18.1404C6.09105 18.2052 6.02923 18.2757 5.9729 18.2856L6.02499 18.5811L5.9729 18.2856L3.55495 18.7119C3.54945 18.7129 3.54553 18.713 3.54302 18.7129C3.54211 18.7099 3.54097 18.7044 3.54097 18.6958V14.1234C3.54097 14.0593 3.60261 13.9886 3.65912 13.9786L6.07708 13.5524Z" stroke="#2EE09A" stroke-width="0.6"/>
<path d="M12.3754 3.31395C12.381 3.31297 12.3849 3.31286 12.3874 3.31298C12.3883 3.31595 12.3894 3.3213 12.3894 3.3296V7.90202C12.3894 7.96676 12.3276 8.03729 12.2712 8.04722L9.85329 8.47351C9.84779 8.47447 9.84387 8.47459 9.84136 8.47448C9.84045 8.47145 9.83931 8.46595 9.83931 8.45738V3.88496C9.83931 3.82088 9.90095 3.7502 9.95746 3.74023L12.3754 3.31395Z" stroke="#2EE09A" stroke-width="0.6"/>
<path d="M6.27479 4.38929C6.35175 4.37573 6.47182 4.4352 6.51071 4.52086L12.2474 17.1556C12.2515 17.1646 12.2535 17.1716 12.2546 17.1766C12.2522 17.1773 12.2493 17.178 12.2457 17.1786L9.65508 17.6353C9.57895 17.6488 9.45787 17.589 9.41861 17.5026L3.68195 4.86784C3.67815 4.85948 3.67611 4.85289 3.67502 4.84809C3.67749 4.84738 3.68051 4.84667 3.68412 4.84603L6.27479 4.38929Z" stroke="#2EE09A" stroke-width="0.6"/>
</g>
<defs>
<filter id="filter0_d_8513_12036" x="0.240967" y="0.0129395" width="15.4485" height="22" filterUnits="userSpaceOnUse" color-interpolation-filters="sRGB">
<feFlood flood-opacity="0" result="BackgroundImageFix"/>
<feColorMatrix in="SourceAlpha" type="matrix" values="0 0 0 0 0 0 0 0 0 0 0 0 0 0 0 0 0 0 1 0" result="hardAlpha"/>
<feOffset/>
<feGaussianBlur stdDeviation="1.5"/>
<feColorMatrix type="matrix" values="0 0 0 0 0.180392 0 0 0 0 0.878431 0 0 0 0 0.603922 0 0 0 0.8 0"/>
<feBlend mode="normal" in2="BackgroundImageFix" result="effect1_dropShadow_8513_12036"/>
<feBlend mode="normal" in="SourceGraphic" in2="effect1_dropShadow_8513_12036" result="shape"/>
</filter>
</defs>
</svg>
