<svg width="12" height="12" viewBox="0 0 12 12" fill="none" xmlns="http://www.w3.org/2000/svg">
<g clip-path="url(#clip0_17921_47801)">
<path d="M6.5625 0.563885C6.5625 0.25246 6.31066 -3.05819e-07 6 -2.7866e-07C5.68934 -2.51501e-07 5.4375 0.25246 5.4375 0.563885L5.4375 9.8412L3.77275 8.17235C3.55308 7.95214 3.19692 7.95214 2.97725 8.17235C2.75758 8.39256 2.75758 8.7496 2.97725 8.96981L6 12L9.02275 8.96981C9.24242 8.7496 9.24242 8.39256 9.02275 8.17235C8.80308 7.95214 8.44692 7.95214 8.22725 8.17235L6.5625 9.84121L6.5625 0.563885Z" fill="white"/>
</g>
<defs>
<clipPath id="clip0_17921_47801">
<rect width="12" height="12" fill="white" transform="matrix(-1 0 0 -1 12 12)"/>
</clipPath>
</defs>
</svg>
