<svg width="96" height="62" viewBox="0 0 96 62" fill="none" xmlns="http://www.w3.org/2000/svg">
<path d="M46.9563 31.1003C46.2843 30.8577 45.5097 30.7363 44.6323 30.7363C43.7737 30.7363 42.971 30.8577 42.2243 31.1003C41.4777 31.3243 40.815 31.6417 40.2363 32.0523L41.5803 34.5723C42.0283 34.255 42.4483 34.031 42.8403 33.9003C43.2323 33.7697 43.6617 33.7043 44.1283 33.7043C44.8563 33.7043 45.407 33.9003 45.7803 34.2923C46.1537 34.6843 46.3403 35.151 46.3403 35.6923C46.3403 36.4017 46.1537 37.0177 45.7803 37.5403C45.4257 38.063 44.8843 38.6977 44.1563 39.4443C43.8203 39.799 43.5217 40.1257 43.2603 40.4243C43.0177 40.723 42.803 41.031 42.6163 41.3483C42.4297 41.647 42.2897 41.9643 42.1963 42.3003C42.103 42.6177 42.0563 42.9723 42.0563 43.3643C42.0563 43.663 42.0843 43.9617 42.1403 44.2603C42.1963 44.5403 42.2617 44.783 42.3363 44.9883L45.3603 44.5683C45.2483 44.2697 45.1923 43.943 45.1923 43.5883C45.1923 43.327 45.2297 43.0937 45.3043 42.8883C45.3977 42.683 45.5283 42.4777 45.6963 42.2723C45.883 42.0483 46.1163 41.7963 46.3963 41.5163C46.6763 41.2363 47.0217 40.9003 47.4323 40.5083C48.2537 39.687 48.907 38.8937 49.3923 38.1283C49.8777 37.363 50.1203 36.4857 50.1203 35.4963C50.1203 34.8243 49.999 34.199 49.7563 33.6203C49.5137 33.023 49.159 32.519 48.6923 32.1083C48.2257 31.679 47.647 31.343 46.9563 31.1003Z" fill="#A9B6BF"/>
<path d="M42.6163 47.3683C42.2057 47.779 42.0003 48.283 42.0003 48.8803C42.0003 49.5337 42.2057 50.0657 42.6163 50.4763C43.0457 50.8683 43.5497 51.0643 44.1283 51.0643C44.6883 51.0643 45.1737 50.8683 45.5843 50.4763C46.0137 50.0657 46.2283 49.5337 46.2283 48.8803C46.2283 48.283 46.0137 47.779 45.5843 47.3683C45.1737 46.9577 44.6883 46.7523 44.1283 46.7523C43.5497 46.7523 43.0457 46.9577 42.6163 47.3683Z" fill="#A9B6BF"/>
<circle cx="45.2363" cy="40.7363" r="19.99" stroke="#A9B6BF" stroke-width="2.02"/>
<circle cx="81.2363" cy="16.7363" r="12.99" stroke="#A9B6BF" stroke-width="2.02"/>
<path d="M80.6754 10.0693H82.0306V11.8064C82.3421 11.8493 82.6692 11.9243 83.0119 12.0315C83.3545 12.1388 83.692 12.2889 84.0243 12.4819L83.4636 14.0259C83.1624 13.8544 82.825 13.715 82.4511 13.6077C82.0773 13.4898 81.7086 13.4308 81.3452 13.4308C80.9714 13.4308 80.6598 13.5166 80.4106 13.6882C80.1718 13.849 80.0524 14.0849 80.0524 14.3958C80.0524 14.6961 80.1562 14.932 80.3639 15.1035C80.5716 15.2643 80.9246 15.4305 81.4231 15.6021L82.1396 15.8434C82.9288 16.1114 83.5311 16.4867 83.9464 16.9692C84.3618 17.441 84.5695 18.0361 84.5695 18.7545C84.5695 19.1083 84.5072 19.4461 84.3826 19.7678C84.2684 20.0787 84.0918 20.3575 83.853 20.6041C83.6245 20.8507 83.339 21.0598 82.9963 21.2314C82.6536 21.3922 82.2538 21.5048 81.7969 21.5691V23.4027H80.4418V21.6013C79.9537 21.5584 79.5072 21.4673 79.1022 21.3279C78.7076 21.1885 78.3234 20.9955 77.9496 20.7489L78.6505 19.2209C79.0243 19.4783 79.4034 19.6659 79.7876 19.7839C80.1822 19.9018 80.5612 19.9608 80.9246 19.9608C81.4542 19.9608 81.8333 19.8643 82.0617 19.6713C82.3005 19.4675 82.42 19.2102 82.42 18.8993C82.42 18.6205 82.3213 18.3899 82.124 18.2077C81.9267 18.0147 81.5788 17.8324 81.0804 17.6608L80.3016 17.4035C79.9693 17.2962 79.6578 17.1622 79.367 17.0014C79.0762 16.8298 78.8218 16.6315 78.6038 16.4063C78.3857 16.1811 78.2144 15.9238 78.0897 15.6343C77.9651 15.334 77.9028 14.9909 77.9028 14.6049C77.9028 14.2082 77.9703 13.8436 78.1053 13.5112C78.2507 13.1681 78.4428 12.8786 78.6816 12.6427C78.9309 12.3961 79.2216 12.2031 79.5539 12.0637C79.8966 11.9136 80.2704 11.8278 80.6754 11.8064V10.0693Z" fill="#A9B6BF"/>
<path d="M7.28267 6.78235L16.7813 4.23719L23.7349 11.1907L21.1897 20.6894L11.691 23.2345L4.73751 16.281L7.28267 6.78235Z" stroke="#A9B6BF" stroke-width="2.02"/>
</svg>
