<?xml version="1.0"?>
<svg width="40" height="50" xmlns="http://www.w3.org/2000/svg" xmlns:svg="http://www.w3.org/2000/svg">
 <g class="layer">
  <title>Layer 1</title>
  <g id="svg_1">
   <path d="m7.75,42.82c-0.63,-0.66 -0.66,-0.9 -0.74,-4.53c-0.08,-3.31 -0.03,-3.88 0.38,-4.34c0.44,-0.49 1.01,-0.52 13.22,-0.52c9.53,0 12.81,0.08 13.06,0.33c0.22,0.22 0.33,1.58 0.33,4.37c0,3.96 -0.03,4.1 -0.68,4.73l-0.66,0.68l-12.13,0l-12.13,0l-0.66,-0.71z" fill="#e23e3f" id="svg_2" style="--darkreader-inline-fill: #e44c4c;"/>
   <path d="m7.39,29.54c-0.6,-0.85 -0.6,-8.33 -0.03,-10.82c0.96,-4.02 3.36,-6.67 7.24,-7.98c1.58,-0.52 2.21,-0.57 6.56,-0.49c4.78,0.08 4.81,0.08 6.61,0.98c2.29,1.12 4.56,3.5 5.44,5.71c0.57,1.42 0.66,2.13 0.74,6.94c0.08,4.7 0.03,5.41 -0.36,5.82c-0.41,0.38 -1.72,0.44 -13.11,0.44l-12.68,0l-0.41,-0.6zm15.33,-8.14c3.77,-2.29 1.58,-8.2 -2.79,-7.51c-2.32,0.33 -3.58,2.08 -3.36,4.56c0.14,1.23 0.3,1.56 1.26,2.46c1.01,0.93 1.28,1.04 2.57,1.04c0.96,0 1.75,-0.19 2.32,-0.55z" fill="#e23e3f" id="svg_3" style="--darkreader-inline-fill: #e44c4c;"/>
   <path d="m14.33,7.77c0,-0.71 1.69,-2.16 2.84,-2.46c1.75,-0.44 5.27,-0.38 6.94,0.11c2.1,0.63 3.63,2.9 1.64,2.43c-1.15,-0.25 -9.37,-0.25 -10.52,0c-0.57,0.14 -0.9,0.11 -0.9,-0.08z" fill="#e23e3f" id="svg_4" style="--darkreader-inline-fill: #e44c4c;"/>
  </g>
 </g>
</svg>