<svg width="154" height="154" viewBox="0 0 154 154" fill="none" xmlns="http://www.w3.org/2000/svg">
<circle cx="77" cy="77" r="75" fill="url(#paint0_radial_22:348)"/>
<g filter="url(#filter0_d_22:348)">
<path fill-rule="evenodd" clip-rule="evenodd" d="M77 137C110.137 137 137 110.137 137 77C137 43.8629 110.137 17 77 17C43.8629 17 17 43.8629 17 77C17 110.137 43.8629 137 77 137ZM77 152C118.421 152 152 118.421 152 77C152 35.5786 118.421 2 77 2C35.5786 2 2 35.5786 2 77C2 118.421 35.5786 152 77 152Z" fill="url(#paint1_linear_22:348)"/>
</g>
<path d="M110.809 68.1889C112.33 58.2074 104.6 52.8416 94.027 49.2621L97.4558 35.7409L89.0865 33.6897L85.7483 46.8546C83.5451 46.3155 81.287 45.8068 79.0409 45.3028L82.4005 32.0512L74.0312 30L70.6 43.5189C68.7783 43.1086 66.9899 42.7054 65.2517 42.2835L65.2612 42.2436L53.7158 39.4072L51.4887 48.1978C51.4887 48.1978 57.7026 49.5973 57.569 49.6864C60.9621 50.5162 61.5725 52.7244 61.47 54.4732L52.0777 91.5135C51.6652 92.5262 50.6113 94.0428 48.2411 93.4662C48.3246 93.5881 42.1561 91.9753 42.1561 91.9753L38 101.397L48.8945 104.069C50.9212 104.568 52.9075 105.089 54.8627 105.583L51.3981 119.257L59.7603 121.31L63.1892 107.775C65.4734 108.389 67.691 108.947 69.8632 109.479L66.4439 122.947L74.8133 125L78.2802 111.348C89.5681 113.448 103.469 112.428 107.809 100.238C111.426 90.0999 104.907 82.7299 100.117 80.2779C105.594 79.0354 109.709 75.4957 110.809 68.1889ZM91.6807 94.5609C89.096 104.782 71.5919 99.2586 65.9146 97.8732L70.5141 79.7551C76.1843 81.1452 94.3871 83.9019 91.6807 94.5609ZM94.2702 68.0436C91.912 77.3406 77.3408 72.6171 72.6124 71.4614L76.7804 55.0264C81.5088 56.1844 96.7286 58.3434 94.2702 68.0436Z" fill="white"/>
<defs>
<filter id="filter0_d_22:348" x="0" y="0" width="154" height="154" filterUnits="userSpaceOnUse" color-interpolation-filters="sRGB">
<feFlood flood-opacity="0" result="BackgroundImageFix"/>
<feColorMatrix in="SourceAlpha" type="matrix" values="0 0 0 0 0 0 0 0 0 0 0 0 0 0 0 0 0 0 127 0" result="hardAlpha"/>
<feOffset/>
<feGaussianBlur stdDeviation="1"/>
<feComposite in2="hardAlpha" operator="out"/>
<feColorMatrix type="matrix" values="0 0 0 0 0.611765 0 0 0 0 0.905882 0 0 0 0 0.352941 0 0 0 0.5 0"/>
<feBlend mode="normal" in2="BackgroundImageFix" result="effect1_dropShadow_22:348"/>
<feBlend mode="normal" in="SourceGraphic" in2="effect1_dropShadow_22:348" result="shape"/>
</filter>
<radialGradient id="paint0_radial_22:348" cx="0" cy="0" r="1" gradientUnits="userSpaceOnUse" gradientTransform="translate(77 7.625) rotate(90) scale(144.375)">
<stop stop-color="#7748D8"/>
<stop offset="1" stop-color="#4D2F8C"/>
</radialGradient>
<linearGradient id="paint1_linear_22:348" x1="26.5" y1="22" x2="125.5" y2="131" gradientUnits="userSpaceOnUse">
<stop stop-color="#9DD46D"/>
<stop offset="1" stop-color="#E5FFCF"/>
</linearGradient>
</defs>
</svg>
