<svg width="11" height="13" viewBox="0 0 11 13" fill="none" xmlns="http://www.w3.org/2000/svg">
<path d="M3.6539 4.51752C3.6539 3.81546 2.72014 3.62938 2.4724 4.28627C1.87315 5.87526 1.43652 7.29673 1.43652 8.06525C1.43652 10.5145 3.42203 12.5 5.87127 12.5C8.32052 12.5 10.306 10.5145 10.306 8.06525C10.306 7.23958 9.80204 5.66024 9.13387 3.9292C8.26832 1.68681 7.83555 0.565624 7.30133 0.505234C7.13039 0.48591 6.9439 0.520652 6.79138 0.600235C6.31475 0.848947 6.31475 2.0718 6.31475 4.51752C6.31475 5.25229 5.7191 5.84794 4.98432 5.84794C4.24955 5.84794 3.6539 5.25229 3.6539 4.51752Z" stroke="url(#paint0_linear_12079_20478)"/>
<defs>
<linearGradient id="paint0_linear_12079_20478" x1="5.87173" y1="12.5" x2="5.87173" y2="0.5" gradientUnits="userSpaceOnUse">
<stop stop-color="#EF84F5"/>
<stop offset="1" stop-color="#2EE09A"/>
</linearGradient>
</defs>
</svg>
