<svg width="13" height="13" viewBox="0 0 13 13" fill="none" xmlns="http://www.w3.org/2000/svg">
<circle cx="6.5" cy="6.5" r="5.875" stroke="#2EE09A"  stroke-width="1.25"/>
<path d="M6.16594 3H6.97344V3.935C7.14344 3.96333 7.32194 4.00583 7.50894 4.0625C7.70161 4.11917 7.88577 4.20133 8.06144 4.309L7.72994 5.21C7.58261 5.125 7.40127 5.05133 7.18594 4.989C6.97061 4.921 6.76377 4.887 6.56544 4.887C6.38411 4.887 6.23394 4.92667 6.11494 5.006C5.99594 5.07967 5.93644 5.1845 5.93644 5.3205C5.93644 5.45083 5.98744 5.5585 6.08944 5.6435C6.19144 5.72283 6.37844 5.80783 6.65044 5.8985L7.04144 6.026C7.46644 6.16767 7.79227 6.36883 8.01894 6.6295C8.24561 6.89017 8.35894 7.21317 8.35894 7.5985C8.35894 7.77983 8.32777 7.95267 8.26544 8.117C8.20877 8.28133 8.11811 8.4315 7.99344 8.5675C7.86877 8.7035 7.71011 8.81967 7.51744 8.916C7.33044 9.00667 7.10661 9.069 6.84594 9.103V10.089H6.03844V9.12C5.51711 9.069 5.05527 8.9075 4.65294 8.6355L5.06944 7.76C5.26777 7.896 5.47177 7.998 5.68144 8.066C5.89111 8.12833 6.09794 8.1595 6.30194 8.1595C6.59094 8.1595 6.78644 8.11133 6.88844 8.015C6.99611 7.913 7.04994 7.8025 7.04994 7.6835C7.04994 7.5645 7.00461 7.45967 6.91394 7.369C6.82894 7.27833 6.65894 7.1905 6.40394 7.1055L5.97044 6.961C5.78911 6.90433 5.61627 6.83067 5.45194 6.74C5.29327 6.64933 5.15161 6.54167 5.02694 6.417C4.90227 6.29233 4.80311 6.15067 4.72944 5.992C4.66144 5.82767 4.62744 5.64067 4.62744 5.431C4.62744 5.22133 4.66711 5.02867 4.74644 4.853C4.82577 4.67167 4.93344 4.51583 5.06944 4.3855C5.20544 4.25517 5.36694 4.15317 5.55394 4.0795C5.74094 4.00017 5.94494 3.95483 6.16594 3.9435V3Z" fill="#2EE09A"/>
</svg>
