<svg width="40" height="40" viewBox="0 0 40 40" fill="none" xmlns="http://www.w3.org/2000/svg">
<circle cx="20" cy="20" r="19.5" stroke="white"/>
<path fill-rule="evenodd" clip-rule="evenodd" d="M29.9377 10.801C30.0313 10.8056 30.0945 10.828 30.1663 10.877C30.3366 10.9933 30.379 11.1891 30.3106 11.5437C30.2927 11.6365 29.3993 15.9777 28.3251 21.1909C26.9632 27.8007 26.3623 30.693 26.3396 30.7472C26.2696 30.9144 26.1584 31.0361 26.0507 31.0635C25.9849 31.0803 25.8487 31.0863 25.763 31.0762C25.7238 31.0715 25.6701 31.0584 25.6436 31.0469C25.6171 31.0354 24.3615 30.1194 22.8533 29.0112C21.3451 27.903 20.0597 26.9671 19.9968 26.9315C19.8668 26.8577 19.6195 26.7856 19.4988 26.7863C19.3968 26.7869 19.2438 26.8087 19.1699 26.8333C19.0239 26.8818 18.8163 27.0413 17.3657 28.2202C16.5605 28.8745 15.868 29.4348 15.8268 29.4651C15.7856 29.4955 15.72 29.5359 15.6812 29.5549C15.6146 29.5874 15.6018 29.5892 15.4579 29.5848C15.322 29.5807 15.2971 29.5762 15.2308 29.5437C15.1092 29.4839 15.0176 29.3468 14.9303 29.094C14.9045 29.0191 14.4316 27.4934 13.8794 25.7036C13.3273 23.9138 12.8673 22.4434 12.8571 22.4361C12.847 22.4287 11.5828 21.9501 10.0478 21.3726L7.25701 20.3225L7.18018 20.253C7.13792 20.2147 7.08903 20.159 7.07153 20.1292C7.03623 20.0689 7 19.9169 7 19.829C7 19.7532 7.04573 19.6299 7.08897 19.589C7.12187 19.558 7.41842 19.427 8.05031 19.1643C8.20365 19.1006 13.1358 17.1946 19.0108 14.9289L29.6925 10.8093L29.8325 10.8019C29.8719 10.7999 29.9065 10.7994 29.9377 10.801ZM25.1147 14.7831C25.1619 14.7666 25.2082 14.7571 25.2525 14.7547C25.2969 14.7524 25.3393 14.7571 25.379 14.7689C25.4454 14.7887 25.5337 14.8748 25.5555 14.9409C25.5736 14.9959 25.567 15.0968 25.5404 15.1697C25.5267 15.2071 24.6503 16.0311 21.3284 19.13C19.0212 21.2821 17.0264 23.1485 16.8953 23.2775C16.5135 23.6532 16.4329 23.7476 16.3465 23.921C16.3213 23.9717 16.3011 24.0107 16.2835 24.0509C16.2044 24.2318 16.1788 24.4362 15.9858 25.8394C15.9321 26.2296 15.8958 26.4494 15.8678 26.5525C15.8456 26.6345 15.8214 26.7262 15.8139 26.7563C15.7952 26.8316 15.6908 26.9574 15.6176 26.9928C15.5803 27.0109 15.5276 27.0226 15.4712 27.0254C15.3771 27.0301 15.3649 27.0284 15.2699 26.9981C15.1977 26.9751 15.1164 26.8909 15.0857 26.8075C15.0581 26.7326 13.9427 22.7898 13.9043 22.6316C13.8592 22.4455 13.8533 22.3437 13.8778 22.1698C13.8893 22.0878 13.9075 21.9957 13.9181 21.965C13.9844 21.7748 14.1207 21.5959 14.3274 21.428C14.4962 21.2908 24.99 14.8268 25.1147 14.7831Z" fill="white"/>
</svg>
