<svg width="40" height="40" viewBox="0 0 40 40" fill="none" xmlns="http://www.w3.org/2000/svg">
<circle cx="20" cy="20" r="19.5" stroke="white"/>
<path fill-rule="evenodd" clip-rule="evenodd" d="M15.0898 28.8858C15.3169 28.582 15.5295 28.2949 15.5623 28.2479L15.6218 28.1624L15.4289 28.0903C14.0007 27.5564 12.7718 26.8256 11.6228 25.8269C11.4274 25.6571 10.5559 24.769 10.5559 24.7398C10.5559 24.725 10.6129 24.7559 10.6825 24.8085C11.3741 25.3303 12.441 25.9612 13.2293 26.3146L13.4715 26.4233C13.8286 26.5839 14.5275 26.8347 15.0361 26.9846C15.1461 27.0171 15.2661 27.0537 15.3028 27.066C15.5584 27.1517 16.5676 27.3656 17.1162 27.4502C18.8907 27.7241 21.1776 27.7195 22.9431 27.4387C23.5642 27.3399 24.4082 27.1598 24.6899 27.0658C24.7265 27.0536 24.8466 27.0171 24.9566 26.9846C25.4651 26.8347 26.1641 26.5839 26.5212 26.4233L26.7633 26.3147C27.5655 25.9556 28.648 25.3133 29.3382 24.7868C29.548 24.6269 29.4178 24.7858 28.9634 25.2445C28.5028 25.7096 28.4125 25.7945 28.0995 26.0576C27.1139 26.8858 25.8646 27.604 24.5637 28.0903L24.3709 28.1624L24.4304 28.2476C24.4631 28.2945 24.6759 28.5821 24.9032 28.8866L25.3166 29.4404L25.5566 29.4248C26.0792 29.3909 26.6519 29.3034 27.3833 29.1456C27.6277 29.0929 28.0939 28.9583 28.5465 28.8098C30.1013 28.2997 31.7169 27.277 32.7563 26.1446L32.9826 25.8981L32.9571 25.5947C32.943 25.4279 32.9184 25.1293 32.9024 24.9313C32.8177 23.8854 32.6049 22.2528 32.4488 21.4513C32.343 20.9077 32.2846 20.617 32.2372 20.3979C32.2071 20.2586 32.1713 20.0905 32.1576 20.0245C32.1294 19.8882 31.8644 18.8405 31.7968 18.5978C31.7723 18.5098 31.7424 18.4018 31.7303 18.3578C31.6264 17.9804 31.3684 17.1826 31.1466 16.5536C30.7733 15.4948 30.1062 14.0314 29.6384 13.2451L29.4366 12.9059L28.9767 12.6001C28.2289 12.103 27.3216 11.6157 26.6633 11.3577C26.5826 11.326 26.4806 11.2845 26.4366 11.2653C26.3598 11.2318 26.2101 11.1755 25.9099 11.0671C25.8329 11.0393 25.6799 10.9905 25.5699 10.9586C25.4599 10.9267 25.3399 10.8903 25.3032 10.8776C25.1929 10.8395 24.6165 10.7082 24.3832 10.6679C24.1784 10.6327 23.8624 10.5899 23.6828 10.5731L23.5424 10.5601L23.4075 10.8289C23.3333 10.9768 23.2825 11.106 23.2945 11.1161C23.3066 11.1262 23.4065 11.1564 23.5165 11.1832C23.6265 11.21 23.7645 11.2465 23.8232 11.2643C23.8818 11.2821 23.9838 11.3121 24.0498 11.331C24.3307 11.4115 25.0721 11.6666 25.3432 11.776C25.9187 12.0081 26.6834 12.4082 27.1538 12.7233C27.5052 12.9587 28.1784 13.4762 28.4501 13.7197L28.697 13.9405C28.7815 14.016 28.8381 14.0777 28.8228 14.0777C28.8076 14.0777 28.5464 13.9526 28.2425 13.7996C27.6742 13.5135 27.3157 13.3421 26.9433 13.1785C26.826 13.127 26.67 13.0583 26.5966 13.0258C26.5233 12.9934 26.3673 12.9299 26.25 12.8849L25.8586 12.7345C25.2769 12.5112 24.2971 12.2308 23.6098 12.091C22.4292 11.8509 21.4182 11.7577 19.9963 11.7577C18.3668 11.7577 17.1944 11.8866 15.8361 12.215C15.3345 12.3363 14.5383 12.5795 14.1302 12.7361L13.7427 12.8849C13.6253 12.9299 13.4693 12.9934 13.396 13.0258C13.3227 13.0583 13.1667 13.127 13.0493 13.1785C12.6923 13.3353 12.329 13.5091 11.7496 13.8C11.4454 13.9528 11.1842 14.0777 11.1692 14.0777C11.1415 14.0777 11.4612 13.7883 11.7293 13.5708C11.8099 13.5053 11.8819 13.4446 11.8893 13.4359C11.9212 13.3979 12.5643 12.9253 12.7852 12.7775C13.8251 12.0815 15.0966 11.5216 16.3161 11.2227C16.5142 11.1742 16.686 11.1262 16.6981 11.1161C16.7102 11.106 16.6593 10.9768 16.5851 10.8289L16.4502 10.5601L16.3098 10.5739C15.4955 10.6544 14.3716 10.9421 13.4737 11.3C13.0224 11.4798 12.9315 11.5214 12.3826 11.7989C11.7832 12.1019 11.3636 12.3496 10.8799 12.6861L10.5506 12.9151L10.3515 13.2497C9.88641 14.0314 9.21694 15.5007 8.84614 16.5536C8.62647 17.1773 8.3636 17.9898 8.26238 18.3578C8.25027 18.4018 8.22032 18.5098 8.1958 18.5978C8.12822 18.8405 7.86327 19.8882 7.83503 20.0245C7.82136 20.0905 7.78553 20.2586 7.75541 20.3979C7.70805 20.617 7.64965 20.9077 7.5438 21.4513C7.3877 22.2528 7.17495 23.8854 7.09028 24.9313C7.07425 25.1293 7.04963 25.4279 7.03557 25.5947L7.01001 25.8981L7.23633 26.1446C8.46284 27.4808 10.2332 28.508 12.2493 29.0533C12.396 29.093 12.558 29.1343 12.6093 29.1452L12.9026 29.2073C13.4556 29.3242 14.0824 29.4086 14.5831 29.4335C14.6754 29.438 14.6834 29.4294 15.0898 28.8858ZM14.8086 22.9743C15.0897 23.2516 15.4623 23.4545 15.8095 23.5195C16.021 23.5591 16.5227 23.5283 16.7162 23.4639C17.353 23.2518 17.859 22.7274 18.0896 22.0404C18.2805 21.4718 18.281 20.899 18.0913 20.3337C17.9612 19.9463 17.7732 19.644 17.4872 19.3623C17.0802 18.9614 16.4467 18.7414 15.9361 18.8237C15.4337 18.9046 15.107 19.0737 14.7678 19.4283C14.4321 19.7792 14.2589 20.1143 14.1293 20.6635C14.085 20.8512 14.0845 21.4841 14.1286 21.6913C14.2396 22.2135 14.4613 22.6317 14.8086 22.9743ZM21.903 22.0403C22.1606 22.8075 22.7796 23.3845 23.4898 23.5192C23.7134 23.5616 24.203 23.5291 24.4105 23.4581C25.1399 23.2084 25.6814 22.5502 25.864 21.6912C25.9075 21.4871 25.9078 20.8524 25.8646 20.663C25.7443 20.1351 25.5591 19.7777 25.2249 19.4283C24.8857 19.0736 24.5589 18.9046 24.0565 18.8237C23.5459 18.7414 22.9124 18.9614 22.5054 19.3623C22.2194 19.644 22.0314 19.9463 21.9014 20.3337C21.7116 20.899 21.7122 21.4718 21.903 22.0403Z" fill="white"/>
<path fill-rule="evenodd" clip-rule="evenodd" d="M8.26238 18.3578C8.25027 18.4018 8.22032 18.5098 8.1958 18.5978L8.26238 18.3578Z" fill="white"/>
</svg>
