<svg width="27" height="24" viewBox="0 0 27 24" fill="none" xmlns="http://www.w3.org/2000/svg">
<path d="M1.5 4.58824V4.58824C1.5 4.50631 1.5 4.46535 1.5008 4.43071C1.53783 2.82815 2.82815 1.53783 4.43071 1.5008C4.46535 1.5 4.50631 1.5 4.58824 1.5L23.2843 1.5C23.6424 1.5 23.8215 1.5 23.9492 1.5875C24.0002 1.62241 24.0443 1.66647 24.0792 1.71743C24.1667 1.84517 24.1667 2.02423 24.1667 2.38235V2.38235C24.1667 4.53109 24.1667 5.60546 23.6417 6.37188C23.4322 6.67767 23.1679 6.94199 22.8621 7.15146C22.0957 7.67647 21.0213 7.67647 18.8726 7.67647H17.5M1.5 4.58824V4.58824C1.5 4.67016 1.5 4.71112 1.5008 4.74576C1.53783 6.34832 2.82815 7.63865 4.43071 7.67567C4.46535 7.67647 4.50631 7.67647 4.58823 7.67647L23.5 7.67647C24.4428 7.67647 24.9142 7.67647 25.2071 7.96936C25.5 8.26226 25.5 8.73366 25.5 9.67647L25.5 12.6176M1.5 4.58824L1.5 18.5C1.5 20.3856 1.5 21.3284 2.08579 21.9142C2.67157 22.5 3.61438 22.5 5.5 22.5L23.5 22.5C24.4428 22.5 24.9142 22.5 25.2071 22.2071C25.5 21.9142 25.5 21.4428 25.5 20.5L25.5 17.5588M25.5 17.5588H19.5C18.5572 17.5588 18.0858 17.5588 17.7929 17.2659C17.5 16.973 17.5 16.5016 17.5 15.5588V14.6176C17.5 13.6748 17.5 13.2034 17.7929 12.9105C18.0858 12.6176 18.5572 12.6176 19.5 12.6176L25.5 12.6176M25.5 17.5588L25.5 12.6176" stroke="white" stroke-width="2.02"/>
</svg>