<svg width="18" height="13" viewBox="0 0 18 13" fill="none" xmlns="http://www.w3.org/2000/svg">
<path d="M11.5273 6.07617C11.5273 9.08677 9.08677 11.5273 6.07617 11.5273C3.06557 11.5273 0.625 9.08677 0.625 6.07617C0.625 3.06557 3.06557 0.625 6.07617 0.625C9.08677 0.625 11.5273 3.06557 11.5273 6.07617Z" stroke="#2EE09A" stroke-width="1.25"/>
<path d="M5.76387 2.80469H6.51871V3.67872C6.67763 3.70521 6.84449 3.74494 7.0193 3.79791C7.1994 3.85088 7.37156 3.92769 7.53577 4.02833L7.22589 4.87059C7.08816 4.79113 6.91865 4.72227 6.71736 4.664C6.51607 4.60043 6.32272 4.56865 6.13732 4.56865C5.96781 4.56865 5.82743 4.60573 5.71619 4.67989C5.60495 4.74875 5.54933 4.84675 5.54933 4.97388C5.54933 5.09572 5.59701 5.19636 5.69235 5.27582C5.7877 5.34998 5.96251 5.42944 6.21678 5.51419L6.58228 5.63338C6.97957 5.76581 7.28416 5.95386 7.49604 6.19753C7.70793 6.4412 7.81387 6.74314 7.81387 7.10335C7.81387 7.27286 7.78474 7.43442 7.72647 7.58804C7.6735 7.74166 7.58874 7.88203 7.47221 8.00916C7.35567 8.13629 7.20735 8.24489 7.02724 8.33494C6.85244 8.41969 6.6432 8.47796 6.39953 8.50975V9.43145H5.64468V8.52564C5.15734 8.47796 4.72562 8.32699 4.34952 8.07273L4.73886 7.25432C4.92426 7.38145 5.11496 7.4768 5.31096 7.54036C5.50695 7.59863 5.7003 7.62777 5.891 7.62777C6.16115 7.62777 6.34391 7.58274 6.43926 7.49269C6.5399 7.39734 6.59023 7.29404 6.59023 7.1828C6.59023 7.07156 6.54785 6.97356 6.46309 6.88881C6.38364 6.80405 6.22472 6.72195 5.98635 6.64249L5.58111 6.50741C5.4116 6.45444 5.25004 6.38558 5.09642 6.30082C4.9481 6.21607 4.81567 6.11542 4.69913 5.99888C4.5826 5.88235 4.4899 5.74992 4.42103 5.6016C4.35747 5.44798 4.32568 5.27317 4.32568 5.07718C4.32568 4.88118 4.36276 4.70108 4.43692 4.53686C4.51108 4.36735 4.61173 4.22168 4.73886 4.09985C4.866 3.97801 5.01697 3.88266 5.19177 3.8138C5.36658 3.73964 5.55728 3.69726 5.76387 3.68667V2.80469Z" fill="#2EE09A"/>
<path d="M13.6699 11L13.6699 1" stroke="#EF84F5" stroke-width="1.6"/>
<path d="M17 7L13.6667 11L10.3333 7" stroke="#EF84F5" stroke-width="1.6"/>
</svg>
