<svg width="16" height="16" viewBox="0 0 16 16" fill="none" xmlns="http://www.w3.org/2000/svg">
<path d="M10.0363 12.5C9.62602 12.5 9.2858 12.84 9.2858 13.25V14.5H1.50094V1.5H9.2858V2.75C9.2858 3.16 9.62602 3.5 10.0363 3.5C10.4465 3.5 10.7867 3.16 10.7867 2.75V0H0V16H10.7867V13.25C10.7867 12.84 10.4465 12.5 10.0363 12.5Z" fill="#A9B6BF"/>
<path d="M15.7899 7.47L12.5779 4.26C12.2877 3.97 11.8074 3.97 11.5172 4.26C11.227 4.55 11.227 5.03 11.5172 5.32L13.4584 7.26H4.03252C3.62226 7.26 3.28205 7.6 3.28205 8.01C3.28205 8.42 3.62226 8.76 4.03252 8.76H13.4484L11.5072 10.7C11.217 10.99 11.217 11.47 11.5072 11.76C11.6573 11.91 11.8474 11.98 12.0375 11.98C12.2276 11.98 12.4178 11.91 12.5679 11.76L15.7799 8.55C15.92 8.41 16 8.23 16 8.02C16 7.81 15.9099 7.62 15.7799 7.49L15.7899 7.47Z" fill="#A9B6BF"/>
</svg>
