<?xml version="1.0" encoding="utf-8"?>
<!-- Generator: Adobe Illustrator 26.2.1, SVG Export Plug-In . SVG Version: 6.00 Build 0)  -->
<svg version="1.1" id="Warstwa_1" xmlns="http://www.w3.org/2000/svg" xmlns:xlink="http://www.w3.org/1999/xlink" x="0px" y="0px"
	 viewBox="0 0 1000 1000" style="enable-background:new 0 0 1000 1000;" xml:space="preserve">
<style type="text/css">
	.st0{fill:#FFFFFF;}
</style>
<path class="st0" d="M467,999.4c-56.3-3.9-110.3-16.8-163.3-39.1c-14.5-6.1-42.9-20.4-56.7-28.5c-66.2-38.9-121.7-91.5-164-155.4
	c-12-18.1-19-30.2-29.3-50.7c-30.8-61-48.4-125.2-52.9-193.9c-0.9-13.7-0.9-49.8,0-63.5c4.6-68.8,22.1-132.9,52.9-193.9
	C64,253.9,71,241.8,83,223.8c42.3-63.9,97.8-116.4,164-155.4c13.7-8.1,42.2-22.3,56.8-28.5c53-22.4,107.4-35.3,164.5-39.1
	c22.9-1.5,59.5-0.8,83.1,1.7c158.9,16.6,299.4,107,380.4,244.6c8.1,13.8,22.4,42.2,28.6,57c22.4,53,35.2,107,39,164.3
	c0.9,13.7,0.9,49.8,0,63.5c-3.8,57.3-16.6,111.3-39,164.3c-6.2,14.8-20.5,43.2-28.6,57c-38.9,66.2-91.5,121.7-155.4,164
	c-18.1,12-30.2,19-50.7,29.3c-61,30.8-125.2,48.4-193.9,52.9C519.6,1000.2,478.9,1000.2,467,999.4L467,999.4z M382,707
	c5.7-7.6,11-14.8,11.8-15.9l1.5-2.1l-4.8-1.8c-35.7-13.3-66.4-31.6-95.2-56.6c-4.9-4.2-26.7-26.4-26.7-27.2c0-0.4,1.4,0.4,3.2,1.7
	c17.3,13,44,28.8,63.7,37.7c1.7,0.8,4.5,2,6.1,2.7c8.9,4,26.4,10.3,39.1,14c2.8,0.8,5.8,1.7,6.7,2c6.4,2.1,31.6,7.5,45.3,9.6
	c44.4,6.8,101.5,6.7,145.7-0.3c15.5-2.5,36.6-7,43.7-9.3c0.9-0.3,3.9-1.2,6.7-2c12.7-3.8,30.2-10,39.1-14c1.6-0.7,4.3-1.9,6.1-2.7
	c20.1-9,47.1-25,64.4-38.2c5.2-4,2,0-9.4,11.4c-11.5,11.6-13.8,13.7-21.6,20.3c-24.6,20.7-55.9,38.7-88.4,50.8l-4.8,1.8l1.5,2.1
	c0.8,1.2,6.1,8.4,11.8,16l10.3,13.8l6-0.4c13.1-0.8,27.4-3,45.7-7c6.1-1.3,17.8-4.7,29.1-8.4c38.9-12.8,79.3-38.3,105.2-66.6
	l5.7-6.2l-0.6-7.6c-0.3-4.2-1-11.6-1.4-16.6c-2.1-26.2-7.4-67-11.3-87c-2.6-13.6-4.1-20.9-5.3-26.3c-0.8-3.5-1.7-7.7-2-9.3
	c-0.7-3.4-7.3-29.6-9-35.7c-0.6-2.2-1.4-4.9-1.7-6c-2.6-9.4-9-29.4-14.6-45.1c-9.3-26.5-26-63.1-37.7-82.7l-5-8.5l-11.5-7.6
	c-18.7-12.4-41.4-24.6-57.8-31.1c-2-0.8-4.6-1.8-5.7-2.3c-1.9-0.8-5.7-2.2-13.2-5c-1.9-0.7-5.8-1.9-8.5-2.7c-2.8-0.8-5.8-1.7-6.7-2
	c-2.8-1-17.2-4.2-23-5.2c-5.1-0.9-13-2-17.5-2.4l-3.5-0.3l-3.4,6.7c-1.9,3.7-3.1,6.9-2.8,7.2c0.3,0.2,2.8,1,5.5,1.7
	c2.8,0.7,6.2,1.6,7.7,2c1.5,0.4,4,1.2,5.7,1.7c7,2,25.6,8.4,32.3,11.1c14.4,5.8,33.5,15.8,45.3,23.7c8.8,5.9,25.6,18.8,32.4,24.9
	c1.3,1.2,4.1,3.6,6.2,5.5c2.1,1.9,3.5,3.4,3.1,3.4s-6.9-3.1-14.5-7c-14.2-7.2-23.2-11.4-32.5-15.5c-2.9-1.3-6.8-3-8.7-3.8
	c-1.8-0.8-5.7-2.4-8.7-3.5c-2.9-1.1-7.3-2.8-9.8-3.8c-14.5-5.6-39-12.6-56.2-16.1c-29.5-6-54.8-8.3-90.3-8.3
	c-40.7,0-70.1,3.2-104,11.4c-12.5,3-32.4,9.1-42.6,13c-2.4,0.9-6.8,2.6-9.7,3.7c-2.9,1.1-6.8,2.7-8.7,3.5c-1.8,0.8-5.7,2.5-8.7,3.8
	c-8.9,3.9-18,8.3-32.5,15.5c-7.6,3.8-14.1,6.9-14.5,6.9c-0.7,0,7.3-7.2,14-12.7c2-1.6,3.8-3.2,4-3.4c0.8-1,16.9-12.8,22.4-16.5
	c26-17.4,57.8-31.4,88.3-38.9c5-1.2,9.2-2.4,9.6-2.7c0.3-0.3-1-3.5-2.8-7.2l-3.4-6.7l-3.5,0.3c-20.4,2-48.5,9.2-70.9,18.2
	c-11.3,4.5-13.6,5.5-27.3,12.5c-15,7.6-25.5,13.8-37.6,22.2l-8.2,5.7l-5,8.4c-11.6,19.5-28.4,56.3-37.6,82.6
	c-5.5,15.6-12.1,35.9-14.6,45.1c-0.3,1.1-1.1,3.8-1.7,6c-1.7,6.1-8.3,32.3-9,35.7c-0.3,1.6-1.2,5.9-2,9.3
	c-1.2,5.5-2.6,12.7-5.3,26.3c-3.9,20-9.2,60.9-11.3,87c-0.4,5-1,12.4-1.4,16.6l-0.6,7.6l5.7,6.2c30.7,33.4,74.9,59.1,125.3,72.7
	c3.7,1,7.7,2,9,2.3c1.3,0.3,4.6,1,7.3,1.6c13.8,2.9,29.5,5,42,5.7C371.6,720.8,371.8,720.6,382,707z M400,572.8
	c-8.7-1.6-18-6.7-25-13.6c-8.7-8.6-14.2-19-17-32.1c-1.1-5.2-1.1-21,0-25.7c3.2-13.7,7.6-22.1,16-30.9c8.5-8.9,16.6-13.1,29.2-15.1
	c12.8-2.1,28.6,3.4,38.8,13.5c7.1,7,11.8,14.6,15.1,24.3c4.7,14.1,4.7,28.5,0,42.7c-5.8,17.2-18.4,30.3-34.3,35.6
	C417.8,573,405.3,573.8,400,572.8L400,572.8z M592,572.8c-17.8-3.4-33.2-17.8-39.7-37c-4.8-14.2-4.8-28.5,0-42.7
	c3.3-9.7,8-17.2,15.1-24.3c10.2-10,26-15.5,38.8-13.5c12.6,2,20.7,6.2,29.2,15.1c8.4,8.7,13,17.7,16,30.9c1.1,4.7,1.1,20.6,0,25.7
	c-4.6,21.5-18.1,37.9-36.3,44.2C609.8,573,597.6,573.9,592,572.8L592,572.8z"/>
</svg>
