<svg width="21" height="17" viewBox="0 0 21 17" fill="none" xmlns="http://www.w3.org/2000/svg">
<path d="M17.789 1.95989C16.4093 1.32822 14.9527 0.880092 13.4565 0.626953C13.2518 0.992955 13.0666 1.36952 12.9016 1.75508C11.3078 1.51492 9.68713 1.51492 8.09341 1.75508C7.92833 1.36956 7.74308 0.992999 7.53843 0.626953C6.04129 0.88223 4.58378 1.33142 3.20267 1.96319C0.460814 6.01982 -0.28246 9.97568 0.089177 13.8754C1.69488 15.0618 3.49211 15.964 5.40276 16.5429C5.83298 15.9643 6.21367 15.3504 6.54079 14.7079C5.91947 14.4758 5.31978 14.1895 4.74868 13.8523C4.89898 13.7433 5.04599 13.6309 5.18803 13.5219C6.84982 14.3034 8.66358 14.7086 10.5 14.7086C12.3363 14.7086 14.1501 14.3034 15.8119 13.5219C15.9556 13.6392 16.1026 13.7515 16.2512 13.8523C15.679 14.19 15.0783 14.4769 14.4558 14.7095C14.7825 15.3518 15.1633 15.9651 15.5939 16.5429C17.5061 15.9663 19.3048 15.0645 20.9107 13.877C21.3468 9.35464 20.1658 5.43511 17.789 1.95989ZM7.01153 11.4771C5.9759 11.4771 5.12031 10.5373 5.12031 9.38106C5.12031 8.22486 5.94617 7.27677 7.00823 7.27677C8.07028 7.27677 8.91927 8.22486 8.9011 9.38106C8.88293 10.5373 8.06698 11.4771 7.01153 11.4771ZM13.9884 11.4771C12.9511 11.4771 12.0988 10.5373 12.0988 9.38106C12.0988 8.22486 12.9247 7.27677 13.9884 7.27677C15.0521 7.27677 15.8945 8.22486 15.8763 9.38106C15.8581 10.5373 15.0438 11.4771 13.9884 11.4771Z" fill="white"/>
</svg>
