<svg width="22" height="14" viewBox="0 0 22 14" fill="none" xmlns="http://www.w3.org/2000/svg">
<path d="M0 5H0.956522V14H0V5Z" fill="white"/>
<path d="M1.91304 2H2.86957V14H1.91304V2Z" fill="white"/>
<path d="M3.82609 0H4.78261V14H3.82609V0Z" fill="white"/>
<path d="M17.2174 5H18.1739V14H17.2174V5Z" fill="white"/>
<path d="M19.1304 2H20.087V14H19.1304V2Z" fill="white"/>
<path d="M21.0435 0H22V14H21.0435V0Z" fill="white"/>
<path d="M5.73913 2H6.69565V14H5.73913V2Z" fill="white"/>
<path d="M7.65217 3H8.6087V14H7.65217V3Z" fill="white"/>
<path d="M9.56522 0H10.5217V14H9.56522V0Z" fill="white"/>
<path d="M11.4783 6H12.4348V14H11.4783V6Z" fill="white"/>
<path d="M13.3913 2H14.3478V14H13.3913V2Z" fill="white"/>
<path d="M15.3043 3H16.2609V14H15.3043V3Z" fill="white"/>
</svg>
