<svg width="40" height="40" viewBox="0 0 40 40" fill="none" xmlns="http://www.w3.org/2000/svg">
<path fill-rule="evenodd" clip-rule="evenodd" d="M40 20C40 31.0457 31.0457 40 20 40C8.9543 40 0 31.0457 0 20C0 8.9543 8.9543 0 20 0C31.0457 0 40 8.9543 40 20ZM22.9999 9H13.3333C12.5969 9 11.9999 9.6156 11.9999 10.375V29.625C11.9999 30.3844 12.5969 31 13.3333 31H26.6666C27.403 31 27.9999 30.3844 27.9999 29.625V14.1562L22.9999 9ZM26.6666 15.1875L22.3333 10.7188V15.1875H26.6666ZM15.3333 18.625C14.9651 18.625 14.6666 18.9328 14.6666 19.3125C14.6666 19.6922 14.9651 20 15.3333 20H23.9999C24.3681 20 24.6666 19.6922 24.6666 19.3125C24.6666 18.9328 24.3681 18.625 23.9999 18.625H15.3333ZM14.6666 22.75C14.6666 22.3703 14.9651 22.0625 15.3333 22.0625H23.9999C24.3681 22.0625 24.6666 22.3703 24.6666 22.75C24.6666 23.1297 24.3681 23.4375 23.9999 23.4375H15.3333C14.9651 23.4375 14.6666 23.1297 14.6666 22.75ZM15.3333 25.5C14.9651 25.5 14.6666 25.8078 14.6666 26.1875C14.6666 26.5672 14.9651 26.875 15.3333 26.875H23.9999C24.3681 26.875 24.6666 26.5672 24.6666 26.1875C24.6666 25.8078 24.3681 25.5 23.9999 25.5H15.3333Z" fill="white"/>
</svg>
