<svg width="12" height="17" viewBox="0 0 12 17" fill="none" xmlns="http://www.w3.org/2000/svg">
<path fill-rule="evenodd" clip-rule="evenodd" d="M1 0.21582H8.25L12 4.08301V15.6846C12 16.2541 11.5523 16.7158 11 16.7158H1C0.447723 16.7158 0 16.2541 0 15.6846V1.24707C0 0.677519 0.447723 0.21582 1 0.21582ZM7.75 1.50488L11 4.85645H7.75V1.50488ZM2 7.9502C2 7.66543 2.22385 7.43457 2.5 7.43457H9C9.27615 7.43457 9.5 7.66543 9.5 7.9502C9.5 8.23496 9.27615 8.46582 9 8.46582H2.5C2.22385 8.46582 2 8.23496 2 7.9502ZM2.5 10.0127C2.22385 10.0127 2 10.2436 2 10.5283C2 10.8131 2.22385 11.0439 2.5 11.0439H9C9.27615 11.0439 9.5 10.8131 9.5 10.5283C9.5 10.2436 9.27615 10.0127 9 10.0127H2.5ZM2 13.1064C2 12.8217 2.22385 12.5908 2.5 12.5908H9C9.27615 12.5908 9.5 12.8217 9.5 13.1064C9.5 13.3912 9.27615 13.6221 9 13.6221H2.5C2.22385 13.6221 2 13.3912 2 13.1064Z" fill="white"/>
</svg>
