<svg width="23" height="23" viewBox="0 0 23 23" fill="none" xmlns="http://www.w3.org/2000/svg">
<g filter="url(#filter0_d_8408_10775)">
<mask id="path-1-inside-1_8408_10775" fill="white">
<path fill-rule="evenodd" clip-rule="evenodd" d="M18.1063 14.925C19.1972 13.3949 19.841 11.6347 19.841 9.89495C19.841 9.24519 19.7706 8.64734 19.6405 8.10031H13.4741C12.0721 8.10031 10.8462 9.04487 10.4886 10.4005H16.6561L16.1253 12.6248H9.93256C9.63756 13.792 10.5198 14.925 11.7237 14.925H18.1063ZM15.9956 17.1493C14.2082 18.5789 11.9446 19.5 9.52816 19.5C5.35755 19.5 2.52658 15.8096 3.61345 11.5126C4.9177 6.35624 9.46219 3.5 13.4966 3.5C15.4213 3.5 17.3554 4.25038 18.5732 5.82543H14.0416C10.4251 5.82543 7.27432 8.29082 6.40456 11.8012C5.73092 14.52 7.78823 17.1493 10.5893 17.1493H15.9956Z"/>
</mask>
<path d="M18.1063 14.925V15.525H18.4154L18.5948 15.2733L18.1063 14.925ZM19.6405 8.10031L20.2243 7.96149L20.1146 7.50031H19.6405V8.10031ZM10.4886 10.4005L9.90848 10.2475L9.70988 11.0005H10.4886V10.4005ZM16.6561 10.4005L17.2397 10.5397L17.4161 9.80047H16.6561V10.4005ZM16.1253 12.6248V13.2248H16.599L16.7089 12.7641L16.1253 12.6248ZM9.93256 12.6248V12.0248H9.46534L9.35085 12.4778L9.93256 12.6248ZM15.9956 17.1493L16.3704 17.6178L17.7064 16.5493H15.9956V17.1493ZM3.61345 11.5126L3.03177 11.3655L3.61345 11.5126ZM18.5732 5.82543V6.42543H19.7955L19.0478 5.45843L18.5732 5.82543ZM6.40456 11.8012L5.82217 11.6569L6.40456 11.8012ZM19.241 9.89495C19.241 11.4879 18.65 13.1289 17.6178 14.5766L18.5948 15.2733C19.7444 13.661 20.441 11.7814 20.441 9.89495H19.241ZM19.0568 8.23914C19.1754 8.73756 19.241 9.28861 19.241 9.89495H20.441C20.441 9.20178 20.3659 8.55713 20.2243 7.96149L19.0568 8.23914ZM19.6405 7.50031H13.4741V8.70031H19.6405V7.50031ZM13.4741 7.50031C11.7997 7.50031 10.3355 8.62843 9.90848 10.2475L11.0688 10.5535C11.3568 9.46132 12.3446 8.70031 13.4741 8.70031V7.50031ZM10.4886 11.0005H16.6561V9.80047H10.4886V11.0005ZM16.0725 10.2612L15.5417 12.4855L16.7089 12.7641L17.2397 10.5397L16.0725 10.2612ZM16.1253 12.0248H9.93256V13.2248H16.1253V12.0248ZM9.35085 12.4778C8.96004 14.024 10.1288 15.525 11.7237 15.525V14.325C10.9108 14.325 10.3151 13.5599 10.5143 12.7718L9.35085 12.4778ZM11.7237 15.525H18.1063V14.325H11.7237V15.525ZM15.6208 16.6807C13.9253 18.0368 11.7909 18.9 9.52816 18.9V20.1C12.0982 20.1 14.4911 19.1209 16.3704 17.6178L15.6208 16.6807ZM9.52816 18.9C5.77278 18.9 3.19813 15.6015 4.19514 11.6598L3.03177 11.3655C1.85503 16.0178 4.94233 20.1 9.52816 20.1V18.9ZM4.19514 11.6598C5.42811 6.78515 9.72061 4.1 13.4966 4.1V2.9C9.20376 2.9 4.40729 5.92734 3.03177 11.3655L4.19514 11.6598ZM13.4966 4.1C15.2754 4.1 17.0167 4.79324 18.0985 6.19244L19.0478 5.45843C17.6941 3.70753 15.5672 2.9 13.4966 2.9V4.1ZM14.0416 6.42543H18.5732V5.22543H14.0416V6.42543ZM6.98695 11.9455C7.79038 8.70281 10.7009 6.42543 14.0416 6.42543V5.22543C10.1493 5.22543 6.75826 7.87883 5.82217 11.6569L6.98695 11.9455ZM10.5893 16.5493C8.17805 16.5493 6.40706 14.2859 6.98695 11.9455L5.82217 11.6569C5.05478 14.7541 7.39841 17.7493 10.5893 17.7493V16.5493ZM15.9956 16.5493H10.5893V17.7493H15.9956V16.5493Z" fill="#2EE09A" mask="url(#path-1-inside-1_8408_10775)"/>
</g>
<defs>
<filter id="filter0_d_8408_10775" x="0.379883" y="0.5" width="22.4612" height="22" filterUnits="userSpaceOnUse" color-interpolation-filters="sRGB">
<feFlood flood-opacity="0" result="BackgroundImageFix"/>
<feColorMatrix in="SourceAlpha" type="matrix" values="0 0 0 0 0 0 0 0 0 0 0 0 0 0 0 0 0 0 1 0" result="hardAlpha"/>
<feOffset/>
<feGaussianBlur stdDeviation="1.5"/>
<feColorMatrix type="matrix" values="0 0 0 0 0.180392 0 0 0 0 0.878431 0 0 0 0 0.603922 0 0 0 0.8 0"/>
<feBlend mode="normal" in2="BackgroundImageFix" result="effect1_dropShadow_8408_10775"/>
<feBlend mode="normal" in="SourceGraphic" in2="effect1_dropShadow_8408_10775" result="shape"/>
</filter>
</defs>
</svg>
