<svg width="17" height="17" viewBox="0 0 17 17" fill="none" xmlns="http://www.w3.org/2000/svg">
<path fill-rule="evenodd" clip-rule="evenodd" d="M14.7263 12.2981C15.8173 10.7681 16.461 9.00775 16.461 7.26799C16.461 6.61828 16.3907 6.02045 16.2606 5.47345H10.0945C8.69253 5.47345 7.46655 6.41801 7.10903 7.77361H13.2765L12.7457 9.99793H6.55295C6.25795 11.1651 7.14021 12.2981 8.34408 12.2981H14.7263ZM12.6156 14.5224C10.8282 15.9519 8.56459 16.873 6.14825 16.873C1.97764 16.873 -0.853336 13.1827 0.233537 8.88569C1.53778 3.72929 6.08227 0.873047 10.1167 0.873047C12.0414 0.873047 13.9755 1.62346 15.1933 3.19857H10.662C7.04549 3.19857 3.89471 5.66395 3.02495 9.17435C2.35132 11.8932 4.40863 14.5224 7.20965 14.5224H12.6156Z" fill="#2EE09A"/>
</svg>
