<svg width="438" height="438" viewBox="0 0 438 438" fill="none" xmlns="http://www.w3.org/2000/svg">
<path d="M205.677 155.075L195.414 191.775H384.457L369.233 246.225H180.19L169.927 282.925C167.18 292.728 172.66 300.674 182.166 300.674H398.478L398.418 300.897C414.073 275.603 425.776 247.962 432.297 219C438.802 190.127 439.574 162.561 435.386 137.326H227.852C218.346 137.326 208.425 145.272 205.677 155.075Z" fill="white"/>
<path fill-rule="evenodd" clip-rule="evenodd" d="M111.274 355.108C85.1334 354.9 70.1175 332.933 77.6774 305.857L126.275 132.113C133.879 104.918 161.431 82.8621 187.794 82.8621H225.861H416.775H416.79C389.104 32.3784 336.081 0 268.383 0C150.573 0 32.9566 98.0413 5.6874 219C-21.5818 339.959 51.8044 438 169.614 438C237.312 438 304.95 405.622 355.419 355.123H111.66C111.526 355.123 111.393 355.123 111.259 355.123L111.274 355.108Z" fill="white"/>
</svg>
