<svg width="22" height="22" viewBox="0 0 22 22" fill="none" xmlns="http://www.w3.org/2000/svg">
<g filter="url(#filter0_d_8384_11345)">
<path d="M10.9997 4.20065C11.3313 4.20065 11.6001 3.93188 11.6001 3.60033C11.6001 3.26878 11.3313 3 10.9997 3C10.6682 3 10.3994 3.26878 10.3994 3.60033C10.3994 3.93188 10.6682 4.20065 10.9997 4.20065Z" fill="#2EE09A"/>
<path d="M9.63819 5.19129C9.93119 5.19129 10.1687 4.95377 10.1687 4.66077C10.1687 4.36777 9.93119 4.13025 9.63819 4.13025C9.34519 4.13025 9.10767 4.36777 9.10767 4.66077C9.10767 4.95377 9.34519 5.19129 9.63819 5.19129Z" fill="#2EE09A"/>
<path d="M7.31641 6.19532C7.60941 6.19532 7.84693 5.9578 7.84693 5.6648C7.84693 5.3718 7.60941 5.13428 7.31641 5.13428C7.02341 5.13428 6.78589 5.3718 6.78589 5.6648C6.78589 5.9578 7.02341 6.19532 7.31641 6.19532Z" fill="#2EE09A"/>
<path d="M5.55494 8.01087C5.84793 8.01087 6.08546 7.77335 6.08546 7.48035C6.08546 7.18735 5.84793 6.94983 5.55494 6.94983C5.26194 6.94983 5.02441 7.18735 5.02441 7.48035C5.02441 7.77335 5.26194 8.01087 5.55494 8.01087Z" fill="#2EE09A"/>
<path d="M4.62256 10.3623C4.91556 10.3623 5.15308 10.1248 5.15308 9.83179C5.15308 9.53879 4.91556 9.30127 4.62256 9.30127C4.32956 9.30127 4.09204 9.53879 4.09204 9.83179C4.09204 10.1248 4.32956 10.3623 4.62256 10.3623Z" fill="#2EE09A"/>
<path d="M4.66065 12.8917C4.95365 12.8917 5.19117 12.6542 5.19117 12.3612C5.19117 12.0682 4.95365 11.8307 4.66065 11.8307C4.36765 11.8307 4.13013 12.0682 4.13013 12.3612C4.13013 12.6542 4.36765 12.8917 4.66065 12.8917Z" fill="#2EE09A"/>
<path d="M5.6648 15.2141C5.9578 15.2141 6.19532 14.9766 6.19532 14.6836C6.19532 14.3906 5.9578 14.1531 5.6648 14.1531C5.3718 14.1531 5.13428 14.3906 5.13428 14.6836C5.13428 14.9766 5.3718 15.2141 5.6648 15.2141Z" fill="#2EE09A"/>
<path d="M7.48023 16.9756C7.77323 16.9756 8.01075 16.7381 8.01075 16.4451C8.01075 16.1521 7.77323 15.9146 7.48023 15.9146C7.18723 15.9146 6.94971 16.1521 6.94971 16.4451C6.94971 16.7381 7.18723 16.9756 7.48023 16.9756Z" fill="#2EE09A"/>
<path d="M9.83179 17.908C10.1248 17.908 10.3623 17.6704 10.3623 17.3774C10.3623 17.0844 10.1248 16.8469 9.83179 16.8469C9.53879 16.8469 9.30127 17.0844 9.30127 17.3774C9.30127 17.6704 9.53879 17.908 9.83179 17.908Z" fill="#2EE09A"/>
<path d="M12.3611 17.8691C12.6541 17.8691 12.8916 17.6316 12.8916 17.3386C12.8916 17.0456 12.6541 16.8081 12.3611 16.8081C12.0681 16.8081 11.8306 17.0456 11.8306 17.3386C11.8306 17.6316 12.0681 17.8691 12.3611 17.8691Z" fill="#2EE09A"/>
<path d="M14.6836 16.8657C14.9766 16.8657 15.2141 16.6282 15.2141 16.3352C15.2141 16.0422 14.9766 15.8047 14.6836 15.8047C14.3906 15.8047 14.1531 16.0422 14.1531 16.3352C14.1531 16.6282 14.3906 16.8657 14.6836 16.8657Z" fill="#2EE09A"/>
<path d="M16.4451 15.0502C16.7381 15.0502 16.9756 14.8127 16.9756 14.5197C16.9756 14.2267 16.7381 13.9891 16.4451 13.9891C16.1521 13.9891 15.9146 14.2267 15.9146 14.5197C15.9146 14.8127 16.1521 15.0502 16.4451 15.0502Z" fill="#2EE09A"/>
<path d="M17.3774 12.6981C17.6704 12.6981 17.908 12.4606 17.908 12.1676C17.908 11.8746 17.6704 11.6371 17.3774 11.6371C17.0844 11.6371 16.8469 11.8746 16.8469 12.1676C16.8469 12.4606 17.0844 12.6981 17.3774 12.6981Z" fill="#2EE09A"/>
<path d="M17.3386 10.1687C17.6316 10.1687 17.8691 9.93119 17.8691 9.63819C17.8691 9.34519 17.6316 9.10767 17.3386 9.10767C17.0456 9.10767 16.8081 9.34519 16.8081 9.63819C16.8081 9.93119 17.0456 10.1687 17.3386 10.1687Z" fill="#2EE09A"/>
<path d="M16.3352 7.84693C16.6282 7.84693 16.8657 7.60941 16.8657 7.31641C16.8657 7.02341 16.6282 6.78589 16.3352 6.78589C16.0422 6.78589 15.8047 7.02341 15.8047 7.31641C15.8047 7.60941 16.0422 7.84693 16.3352 7.84693Z" fill="#2EE09A"/>
<path d="M14.5198 6.08546C14.8128 6.08546 15.0503 5.84793 15.0503 5.55494C15.0503 5.26194 14.8128 5.02441 14.5198 5.02441C14.2268 5.02441 13.9893 5.26194 13.9893 5.55494C13.9893 5.84793 14.2268 6.08546 14.5198 6.08546Z" fill="#2EE09A"/>
<path d="M12.1675 5.15308C12.4605 5.15308 12.698 4.91556 12.698 4.62256C12.698 4.32956 12.4605 4.09204 12.1675 4.09204C11.8745 4.09204 11.637 4.32956 11.637 4.62256C11.637 4.91556 11.8745 5.15308 12.1675 5.15308Z" fill="#2EE09A"/>
<path d="M10.9997 5.55184C11.2341 5.55184 11.424 5.36187 11.424 5.12754C11.424 4.89321 11.2341 4.70325 10.9997 4.70325C10.7654 4.70325 10.5754 4.89321 10.5754 5.12754C10.5754 5.36187 10.7654 5.55184 10.9997 5.55184Z" fill="#2EE09A"/>
<path d="M9.95139 6.31905C10.1492 6.31905 10.3095 6.15871 10.3095 5.96092C10.3095 5.76312 10.1492 5.60278 9.95139 5.60278C9.7536 5.60278 9.59326 5.76312 9.59326 5.96092C9.59326 6.15871 9.7536 6.31905 9.95139 6.31905Z" fill="#2EE09A"/>
<path d="M8.10301 7.10335C8.3008 7.10335 8.46114 6.94301 8.46114 6.74522C8.46114 6.54743 8.3008 6.38708 8.10301 6.38708C7.90521 6.38708 7.74487 6.54743 7.74487 6.74522C7.74487 6.94301 7.90521 7.10335 8.10301 7.10335Z" fill="#2EE09A"/>
<path d="M6.69553 8.53584C6.89333 8.53584 7.05367 8.3755 7.05367 8.17771C7.05367 7.97992 6.89333 7.81958 6.69553 7.81958C6.49774 7.81958 6.3374 7.97992 6.3374 8.17771C6.3374 8.3755 6.49774 8.53584 6.69553 8.53584Z" fill="#2EE09A"/>
<path d="M5.94334 10.3981C6.14113 10.3981 6.30147 10.2378 6.30147 10.04C6.30147 9.84223 6.14113 9.68188 5.94334 9.68188C5.74555 9.68188 5.58521 9.84223 5.58521 10.04C5.58521 10.2378 5.74555 10.3981 5.94334 10.3981Z" fill="#2EE09A"/>
<path d="M5.96092 12.4061C6.15871 12.4061 6.31905 12.2457 6.31905 12.048C6.31905 11.8502 6.15871 11.6898 5.96092 11.6898C5.76312 11.6898 5.60278 11.8502 5.60278 12.048C5.60278 12.2457 5.76312 12.4061 5.96092 12.4061Z" fill="#2EE09A"/>
<path d="M6.7451 14.2551C6.94289 14.2551 7.10323 14.0947 7.10323 13.897C7.10323 13.6992 6.94289 13.5388 6.7451 13.5388C6.5473 13.5388 6.38696 13.6992 6.38696 13.897C6.38696 14.0947 6.5473 14.2551 6.7451 14.2551Z" fill="#2EE09A"/>
<path d="M8.17771 15.6627C8.3755 15.6627 8.53584 15.5023 8.53584 15.3045C8.53584 15.1068 8.3755 14.9464 8.17771 14.9464C7.97992 14.9464 7.81958 15.1068 7.81958 15.3045C7.81958 15.5023 7.97992 15.6627 8.17771 15.6627Z" fill="#2EE09A"/>
<path d="M10.04 16.4148C10.2378 16.4148 10.3981 16.2544 10.3981 16.0566C10.3981 15.8588 10.2378 15.6985 10.04 15.6985C9.84223 15.6985 9.68188 15.8588 9.68188 16.0566C9.68188 16.2544 9.84223 16.4148 10.04 16.4148Z" fill="#2EE09A"/>
<path d="M12.0481 16.3972C12.2459 16.3972 12.4062 16.2368 12.4062 16.039C12.4062 15.8412 12.2459 15.6809 12.0481 15.6809C11.8503 15.6809 11.6899 15.8412 11.6899 16.039C11.6899 16.2368 11.8503 16.3972 12.0481 16.3972Z" fill="#2EE09A"/>
<path d="M13.897 15.6123C14.0947 15.6123 14.2551 15.4519 14.2551 15.2541C14.2551 15.0563 14.0947 14.896 13.897 14.896C13.6992 14.896 13.5388 15.0563 13.5388 15.2541C13.5388 15.4519 13.6992 15.6123 13.897 15.6123Z" fill="#2EE09A"/>
<path d="M15.3047 14.1798C15.5025 14.1798 15.6628 14.0194 15.6628 13.8216C15.6628 13.6238 15.5025 13.4635 15.3047 13.4635C15.1069 13.4635 14.9465 13.6238 14.9465 13.8216C14.9465 14.0194 15.1069 14.1798 15.3047 14.1798Z" fill="#2EE09A"/>
<path d="M16.0566 12.3181C16.2544 12.3181 16.4148 12.1577 16.4148 11.9599C16.4148 11.7621 16.2544 11.6018 16.0566 11.6018C15.8588 11.6018 15.6985 11.7621 15.6985 11.9599C15.6985 12.1577 15.8588 12.3181 16.0566 12.3181Z" fill="#2EE09A"/>
<path d="M16.039 10.3095C16.2368 10.3095 16.3972 10.1492 16.3972 9.95139C16.3972 9.7536 16.2368 9.59326 16.039 9.59326C15.8412 9.59326 15.6809 9.7536 15.6809 9.95139C15.6809 10.1492 15.8412 10.3095 16.039 10.3095Z" fill="#2EE09A"/>
<path d="M15.2541 8.46126C15.4519 8.46126 15.6123 8.30092 15.6123 8.10313C15.6123 7.90534 15.4519 7.745 15.2541 7.745C15.0563 7.745 14.896 7.90534 14.896 8.10313C14.896 8.30092 15.0563 8.46126 15.2541 8.46126Z" fill="#2EE09A"/>
<path d="M13.8218 7.05354C14.0195 7.05354 14.1799 6.8932 14.1799 6.69541C14.1799 6.49762 14.0195 6.33728 13.8218 6.33728C13.624 6.33728 13.4636 6.49762 13.4636 6.69541C13.4636 6.8932 13.624 7.05354 13.8218 7.05354Z" fill="#2EE09A"/>
<path d="M11.9599 6.30147C12.1577 6.30147 12.3181 6.14113 12.3181 5.94334C12.3181 5.74555 12.1577 5.58521 11.9599 5.58521C11.7621 5.58521 11.6018 5.74555 11.6018 5.94334C11.6018 6.14113 11.7621 6.30147 11.9599 6.30147Z" fill="#2EE09A"/>
<path d="M8.75266 5.99862C8.987 5.99862 9.17696 5.80865 9.17696 5.57432C9.17696 5.33999 8.987 5.15002 8.75266 5.15002C8.51833 5.15002 8.32837 5.33999 8.32837 5.57432C8.32837 5.80865 8.51833 5.99862 8.75266 5.99862Z" fill="#2EE09A"/>
<path d="M6.84788 7.27205C7.08221 7.27205 7.27217 7.08209 7.27217 6.84776C7.27217 6.61343 7.08221 6.42346 6.84788 6.42346C6.61355 6.42346 6.42358 6.61343 6.42358 6.84776C6.42358 7.08209 6.61355 7.27205 6.84788 7.27205Z" fill="#2EE09A"/>
<path d="M5.5742 9.17684C5.80853 9.17684 5.99849 8.98687 5.99849 8.75254C5.99849 8.51821 5.80853 8.32825 5.5742 8.32825C5.33987 8.32825 5.1499 8.51821 5.1499 8.75254C5.1499 8.98687 5.33987 9.17684 5.5742 9.17684Z" fill="#2EE09A"/>
<path d="M5.12766 11.424C5.362 11.424 5.55196 11.2341 5.55196 10.9997C5.55196 10.7654 5.362 10.5754 5.12766 10.5754C4.89333 10.5754 4.70337 10.7654 4.70337 10.9997C4.70337 11.2341 4.89333 11.424 5.12766 11.424Z" fill="#2EE09A"/>
<path d="M5.5742 13.6717C5.80853 13.6717 5.99849 13.4817 5.99849 13.2474C5.99849 13.0131 5.80853 12.8231 5.5742 12.8231C5.33987 12.8231 5.1499 13.0131 5.1499 13.2474C5.1499 13.4817 5.33987 13.6717 5.5742 13.6717Z" fill="#2EE09A"/>
<path d="M6.84788 15.5765C7.08221 15.5765 7.27217 15.3865 7.27217 15.1522C7.27217 14.9179 7.08221 14.7279 6.84788 14.7279C6.61355 14.7279 6.42358 14.9179 6.42358 15.1522C6.42358 15.3865 6.61355 15.5765 6.84788 15.5765Z" fill="#2EE09A"/>
<path d="M8.75266 16.8494C8.987 16.8494 9.17696 16.6595 9.17696 16.4252C9.17696 16.1908 8.987 16.0009 8.75266 16.0009C8.51833 16.0009 8.32837 16.1908 8.32837 16.4252C8.32837 16.6595 8.51833 16.8494 8.75266 16.8494Z" fill="#2EE09A"/>
<path d="M10.9997 17.2967C11.2341 17.2967 11.424 17.1067 11.424 16.8724C11.424 16.6381 11.2341 16.4481 10.9997 16.4481C10.7654 16.4481 10.5754 16.6381 10.5754 16.8724C10.5754 17.1067 10.7654 17.2967 10.9997 17.2967Z" fill="#2EE09A"/>
<path d="M13.2475 16.8494C13.4819 16.8494 13.6718 16.6595 13.6718 16.4252C13.6718 16.1908 13.4819 16.0009 13.2475 16.0009C13.0132 16.0009 12.8232 16.1908 12.8232 16.4252C12.8232 16.6595 13.0132 16.8494 13.2475 16.8494Z" fill="#2EE09A"/>
<path d="M15.1523 15.5765C15.3867 15.5765 15.5766 15.3865 15.5766 15.1522C15.5766 14.9179 15.3867 14.7279 15.1523 14.7279C14.918 14.7279 14.728 14.9179 14.728 15.1522C14.728 15.3865 14.918 15.5765 15.1523 15.5765Z" fill="#2EE09A"/>
<path d="M16.425 13.6717C16.6594 13.6717 16.8493 13.4817 16.8493 13.2474C16.8493 13.0131 16.6594 12.8231 16.425 12.8231C16.1907 12.8231 16.0007 13.0131 16.0007 13.2474C16.0007 13.4817 16.1907 13.6717 16.425 13.6717Z" fill="#2EE09A"/>
<path d="M16.8725 11.424C17.1069 11.424 17.2968 11.2341 17.2968 10.9997C17.2968 10.7654 17.1069 10.5754 16.8725 10.5754C16.6382 10.5754 16.4482 10.7654 16.4482 10.9997C16.4482 11.2341 16.6382 11.424 16.8725 11.424Z" fill="#2EE09A"/>
<path d="M16.425 9.17684C16.6594 9.17684 16.8493 8.98687 16.8493 8.75254C16.8493 8.51821 16.6594 8.32825 16.425 8.32825C16.1907 8.32825 16.0007 8.51821 16.0007 8.75254C16.0007 8.98687 16.1907 9.17684 16.425 9.17684Z" fill="#2EE09A"/>
<path d="M15.1523 7.27205C15.3867 7.27205 15.5766 7.08209 15.5766 6.84776C15.5766 6.61343 15.3867 6.42346 15.1523 6.42346C14.918 6.42346 14.728 6.61343 14.728 6.84776C14.728 7.08209 14.918 7.27205 15.1523 7.27205Z" fill="#2EE09A"/>
<path d="M13.2475 5.99862C13.4819 5.99862 13.6718 5.80865 13.6718 5.57432C13.6718 5.33999 13.4819 5.15002 13.2475 5.15002C13.0132 5.15002 12.8232 5.33999 12.8232 5.57432C12.8232 5.80865 13.0132 5.99862 13.2475 5.99862Z" fill="#2EE09A"/>
<path d="M8.16795 4.76401C8.4995 4.76401 8.76828 4.49523 8.76828 4.16368C8.76828 3.83213 8.4995 3.56335 8.16795 3.56335C7.8364 3.56335 7.56763 3.83213 7.56763 4.16368C7.56763 4.49523 7.8364 4.76401 8.16795 4.76401Z" fill="#2EE09A"/>
<path d="M5.76732 6.36765C6.09887 6.36765 6.36765 6.09887 6.36765 5.76732C6.36765 5.43577 6.09887 5.16699 5.76732 5.16699C5.43577 5.16699 5.16699 5.43577 5.16699 5.76732C5.16699 6.09887 5.43577 6.36765 5.76732 6.36765Z" fill="#2EE09A"/>
<path d="M4.16356 8.7684C4.49511 8.7684 4.76389 8.49963 4.76389 8.16808C4.76389 7.83652 4.49511 7.56775 4.16356 7.56775C3.83201 7.56775 3.56323 7.83652 3.56323 8.16808C3.56323 8.49963 3.83201 8.7684 4.16356 8.7684Z" fill="#2EE09A"/>
<path d="M3.60033 11.6001C3.93188 11.6001 4.20065 11.3313 4.20065 10.9997C4.20065 10.6682 3.93188 10.3994 3.60033 10.3994C3.26878 10.3994 3 10.6682 3 10.9997C3 11.3313 3.26878 11.6001 3.60033 11.6001Z" fill="#2EE09A"/>
<path d="M4.16356 14.4317C4.49511 14.4317 4.76389 14.163 4.76389 13.8314C4.76389 13.4999 4.49511 13.2311 4.16356 13.2311C3.83201 13.2311 3.56323 13.4999 3.56323 13.8314C3.56323 14.163 3.83201 14.4317 4.16356 14.4317Z" fill="#2EE09A"/>
<path d="M5.76732 16.8324C6.09887 16.8324 6.36765 16.5636 6.36765 16.232C6.36765 15.9005 6.09887 15.6317 5.76732 15.6317C5.43577 15.6317 5.16699 15.9005 5.16699 16.232C5.16699 16.5636 5.43577 16.8324 5.76732 16.8324Z" fill="#2EE09A"/>
<path d="M8.16795 18.4367C8.4995 18.4367 8.76828 18.168 8.76828 17.8364C8.76828 17.5049 8.4995 17.2361 8.16795 17.2361C7.8364 17.2361 7.56763 17.5049 7.56763 17.8364C7.56763 18.168 7.8364 18.4367 8.16795 18.4367Z" fill="#2EE09A"/>
<path d="M10.9997 19C11.3313 19 11.6001 18.7312 11.6001 18.3996C11.6001 18.0681 11.3313 17.7993 10.9997 17.7993C10.6682 17.7993 10.3994 18.0681 10.3994 18.3996C10.3994 18.7312 10.6682 19 10.9997 19Z" fill="#2EE09A"/>
<path d="M13.8313 18.4367C14.1628 18.4367 14.4316 18.168 14.4316 17.8364C14.4316 17.5049 14.1628 17.2361 13.8313 17.2361C13.4997 17.2361 13.231 17.5049 13.231 17.8364C13.231 18.168 13.4997 18.4367 13.8313 18.4367Z" fill="#2EE09A"/>
<path d="M16.2322 16.8324C16.5637 16.8324 16.8325 16.5636 16.8325 16.232C16.8325 15.9005 16.5637 15.6317 16.2322 15.6317C15.9006 15.6317 15.6318 15.9005 15.6318 16.232C15.6318 16.5636 15.9006 16.8324 16.2322 16.8324Z" fill="#2EE09A"/>
<path d="M17.8364 14.4317C18.168 14.4317 18.4367 14.163 18.4367 13.8314C18.4367 13.4999 18.168 13.2311 17.8364 13.2311C17.5049 13.2311 17.2361 13.4999 17.2361 13.8314C17.2361 14.163 17.5049 14.4317 17.8364 14.4317Z" fill="#2EE09A"/>
<path d="M18.3996 11.6001C18.7312 11.6001 19 11.3313 19 10.9997C19 10.6682 18.7312 10.3994 18.3996 10.3994C18.0681 10.3994 17.7993 10.6682 17.7993 10.9997C17.7993 11.3313 18.0681 11.6001 18.3996 11.6001Z" fill="#2EE09A"/>
<path d="M17.8364 8.7684C18.168 8.7684 18.4367 8.49963 18.4367 8.16808C18.4367 7.83652 18.168 7.56775 17.8364 7.56775C17.5049 7.56775 17.2361 7.83652 17.2361 8.16808C17.2361 8.49963 17.5049 8.7684 17.8364 8.7684Z" fill="#2EE09A"/>
<path d="M16.2322 6.36765C16.5637 6.36765 16.8325 6.09887 16.8325 5.76732C16.8325 5.43577 16.5637 5.16699 16.2322 5.16699C15.9006 5.16699 15.6318 5.43577 15.6318 5.76732C15.6318 6.09887 15.9006 6.36765 16.2322 6.36765Z" fill="#2EE09A"/>
<path d="M13.8313 4.76401C14.1628 4.76401 14.4316 4.49523 14.4316 4.16368C14.4316 3.83213 14.1628 3.56335 13.8313 3.56335C13.4997 3.56335 13.231 3.83213 13.231 4.16368C13.231 4.49523 13.4997 4.76401 13.8313 4.76401Z" fill="#2EE09A"/>
</g>
<defs>
<filter id="filter0_d_8384_11345" x="0" y="0" width="22" height="22" filterUnits="userSpaceOnUse" color-interpolation-filters="sRGB">
<feFlood flood-opacity="0" result="BackgroundImageFix"/>
<feColorMatrix in="SourceAlpha" type="matrix" values="0 0 0 0 0 0 0 0 0 0 0 0 0 0 0 0 0 0 1 0" result="hardAlpha"/>
<feOffset/>
<feGaussianBlur stdDeviation="1.5"/>
<feColorMatrix type="matrix" values="0 0 0 0 0.180392 0 0 0 0 0.878431 0 0 0 0 0.603922 0 0 0 0.8 0"/>
<feBlend mode="normal" in2="BackgroundImageFix" result="effect1_dropShadow_8384_11345"/>
<feBlend mode="normal" in="SourceGraphic" in2="effect1_dropShadow_8384_11345" result="shape"/>
</filter>
</defs>
</svg>
