<svg width="111" height="79" viewBox="0 0 111 79" fill="none" xmlns="http://www.w3.org/2000/svg">
<path d="M63.7787 28.8955C63.1067 28.6528 62.332 28.5315 61.4547 28.5315C60.596 28.5315 59.7933 28.6528 59.0467 28.8955C58.3 29.1195 57.6373 29.4368 57.0587 29.8475L58.4027 32.3675C58.8507 32.0502 59.2707 31.8262 59.6627 31.6955C60.0547 31.5648 60.484 31.4995 60.9507 31.4995C61.6787 31.4995 62.2293 31.6955 62.6027 32.0875C62.976 32.4795 63.1627 32.9462 63.1627 33.4875C63.1627 34.1968 62.976 34.8128 62.6027 35.3355C62.248 35.8582 61.7067 36.4928 60.9787 37.2395C60.6427 37.5942 60.344 37.9208 60.0827 38.2195C59.84 38.5182 59.6253 38.8262 59.4387 39.1435C59.252 39.4422 59.112 39.7595 59.0187 40.0955C58.9253 40.4128 58.8787 40.7675 58.8787 41.1595C58.8787 41.4582 58.9067 41.7568 58.9627 42.0555C59.0187 42.3355 59.084 42.5782 59.1587 42.7835L62.1827 42.3635C62.0707 42.0648 62.0147 41.7382 62.0147 41.3835C62.0147 41.1222 62.052 40.8888 62.1267 40.6835C62.22 40.4782 62.3507 40.2728 62.5187 40.0675C62.7053 39.8435 62.9387 39.5915 63.2187 39.3115C63.4987 39.0315 63.844 38.6955 64.2547 38.3035C65.076 37.4822 65.7293 36.6888 66.2147 35.9235C66.7 35.1582 66.9427 34.2808 66.9427 33.2915C66.9427 32.6195 66.8213 31.9942 66.5787 31.4155C66.336 30.8182 65.9813 30.3142 65.5147 29.9035C65.048 29.4742 64.4693 29.1382 63.7787 28.8955Z" fill="#A9B6BF"/>
<path d="M59.4387 45.1635C59.028 45.5742 58.8227 46.0782 58.8227 46.6755C58.8227 47.3288 59.028 47.8608 59.4387 48.2715C59.868 48.6635 60.372 48.8595 60.9507 48.8595C61.5107 48.8595 61.996 48.6635 62.4067 48.2715C62.836 47.8608 63.0507 47.3288 63.0507 46.6755C63.0507 46.0782 62.836 45.5742 62.4067 45.1635C61.996 44.7528 61.5107 44.5475 60.9507 44.5475C60.372 44.5475 59.868 44.7528 59.4387 45.1635Z" fill="#A9B6BF"/>
<path fill-rule="evenodd" clip-rule="evenodd" d="M110.5 0.5H42.5V21.8779C36.1644 29.341 34.5835 40.0959 39.1011 49.2694L1.2595 70.7514C0.53906 71.1603 0.286573 72.0759 0.695551 72.7963C1.10453 73.5168 2.0201 73.7693 2.74054 73.3603L40.5821 51.8784C41.1728 52.7898 41.814 53.6512 42.5 54.4612V78.5H93.544L110.5 59.0693V0.5ZM49.2653 16.285C47.91 17.0544 46.6534 17.9307 45.5 18.8972V3.5H107.5V57.5H91.5V75.5H45.5V57.4485C53.3232 64.0169 64.7095 65.3963 74.1141 60.0575C86.2015 53.1957 90.4377 37.8343 83.5759 25.7469C76.7141 13.6594 61.3527 9.42323 49.2653 16.285ZM94.5 72.8417L105.27 60.5H94.5V72.8417ZM42.4124 49.1146C48.4562 59.7612 61.9865 63.4924 72.633 57.4486C83.2796 51.4047 87.0108 37.8745 80.967 27.2279C74.9231 16.5814 61.3929 12.8501 50.7463 18.894C40.0997 24.9378 36.3685 38.4681 42.4124 49.1146Z" fill="#A9B6BF"/>
</svg>
