<svg width="24" height="16" viewBox="0 0 24 16" fill="none" xmlns="http://www.w3.org/2000/svg">
<path d="M12 15C9.75394 15 7.59762 13.9506 5.73659 12.5544C3.88585 11.1659 2.42261 9.50566 1.5836 8.45049C1.36773 8.17899 1.36773 7.821 1.58361 7.54951C2.42261 6.49433 3.88585 4.83413 5.73659 3.44562C7.59762 2.04939 9.75394 0.999999 12 0.999999C14.2461 1 16.4024 2.04939 18.2634 3.44563C20.1141 4.83413 21.5774 6.49434 22.4164 7.54951C22.6323 7.821 22.6323 8.17899 22.4164 8.45049C21.5774 9.50566 20.1141 11.1659 18.2634 12.5544C16.4024 13.9506 14.2461 15 12 15Z" stroke="#EFD063" stroke-width="2" stroke-linejoin="bevel"/>
<mask id="path-2-inside-1_14585_24438" fill="white">
<ellipse cx="11.9984" cy="7.99986" rx="3.6" ry="3.42857"/>
</mask>
<ellipse cx="11.9984" cy="7.99986" rx="3.6" ry="3.42857" fill="#EFD063"/>
<path d="M11.5984 7.99986C11.5984 7.77733 11.6998 7.60916 11.7854 7.52767C11.8676 7.44944 11.9515 7.42843 11.9984 7.42843V15.4284C16.0097 15.4284 19.5984 12.2842 19.5984 7.99986H11.5984ZM11.9984 7.42843C12.0454 7.42843 12.1293 7.44944 12.2115 7.52767C12.297 7.60916 12.3984 7.77733 12.3984 7.99986H4.39844C4.39844 12.2842 7.98722 15.4284 11.9984 15.4284V7.42843ZM12.3984 7.99986C12.3984 8.22239 12.297 8.39056 12.2115 8.47205C12.1293 8.55028 12.0454 8.57129 11.9984 8.57129V0.571289C7.98722 0.571289 4.39844 3.71551 4.39844 7.99986H12.3984ZM11.9984 8.57129C11.9515 8.57129 11.8676 8.55028 11.7854 8.47205C11.6998 8.39056 11.5984 8.22239 11.5984 7.99986H19.5984C19.5984 3.71551 16.0097 0.571289 11.9984 0.571289V8.57129Z" fill="#EFD063" mask="url(#path-2-inside-1_14585_24438)"/>
</svg>
