<svg width="26" height="24" viewBox="0 0 26 24" fill="none" xmlns="http://www.w3.org/2000/svg">
<path d="M19.8 2.13154H18.65C18.18 1.45061 17.39 1 16.5 1C15.61 1 14.82 1.45061 14.35 2.13154H13.2C12.54 2.13154 12 2.67228 12 3.33318V3.90396C12 4.56486 12.54 5.1056 13.2 5.1056H14.35C14.82 5.78653 15.61 6.23714 16.5 6.23714C17.39 6.23714 18.18 5.78653 18.65 5.1056H19.8C20.46 5.1056 21 4.56486 21 3.90396V3.33318C21 2.67228 20.46 2.13154 19.8 2.13154Z" fill="#111931" stroke="#111931" stroke-miterlimit="10"/>
<path d="M8.81 20.0254H2.2C1.53726 20.0254 1 20.5634 1 21.227V21.7978C1 22.4615 1.53726 22.9994 2.2 22.9994H8.81C9.47274 22.9994 10.01 22.4615 10.01 21.7978V21.227C10.01 20.5634 9.47274 20.0254 8.81 20.0254Z" fill="#111931" stroke="#111931" stroke-miterlimit="10"/>
<path d="M24.0472 9.23577H20.4057C20.1981 9.23577 20.0095 9.15974 19.8397 9.04569C18.9434 8.38992 17.8397 8.00977 16.6416 8.00977C15.4435 8.00977 14.3397 8.39943 13.4435 9.04569C13.2737 9.16924 13.085 9.23577 12.8774 9.23577H8.69822C4.50013 9.23577 1.09449 12.6192 1.00015 16.8199C0.99072 17.3521 1.41525 17.7988 1.95298 17.7988H12.8869C13.0944 17.7988 13.2831 17.8748 13.4529 17.9889C14.3491 18.6446 15.4529 19.0248 16.651 19.0248C17.8491 19.0248 18.9529 18.6351 19.8491 17.9889C20.0189 17.8653 20.2076 17.7988 20.4151 17.7988H24.0566C24.5755 17.7988 25 17.3711 25 16.8484V10.1957C25 9.67295 24.5755 9.24527 24.0566 9.24527L24.0472 9.23577Z" fill="#111931" stroke="#111931" stroke-miterlimit="10"/>
</svg>
