<svg width="154" height="154" viewBox="0 0 154 154" fill="none" xmlns="http://www.w3.org/2000/svg">
<circle cx="77" cy="77" r="75" fill="url(#paint0_radial_25:799)"/>
<g filter="url(#filter0_d_25:799)">
<path fill-rule="evenodd" clip-rule="evenodd" d="M77 137C110.137 137 137 110.137 137 77C137 43.8629 110.137 17 77 17C43.8629 17 17 43.8629 17 77C17 110.137 43.8629 137 77 137ZM77 152C118.421 152 152 118.421 152 77C152 35.5786 118.421 2 77 2C35.5786 2 2 35.5786 2 77C2 118.421 35.5786 152 77 152Z" fill="url(#paint1_linear_25:799)"/>
</g>
<path d="M60.8267 45.004C78.4388 44.9987 96.052 44.9987 113.666 45.004C113.672 50.6912 113.672 56.3773 113.666 62.0624C96.0537 62.0678 78.4405 62.0678 60.8267 62.0624C60.821 56.3753 60.821 50.6892 60.8267 45.004Z" fill="white"/>
<path d="M40.0221 68.4802C45.7042 68.4508 51.3873 68.4508 57.0714 68.4802C57.1008 74.1565 57.1008 79.8338 57.0714 85.5121C51.3875 85.5413 45.7045 85.5418 40.0221 85.5136C39.9926 79.8363 39.9926 74.1585 40.0221 68.4802Z" fill="white"/>
<path d="M60.8399 68.4802C73.552 68.4532 86.2633 68.4532 98.9737 68.4802C99.0007 74.1565 99.0007 79.8338 98.9737 85.5121C86.2618 85.5386 73.5506 85.5386 60.8399 85.5121C60.8134 79.8355 60.8134 74.1582 60.8399 68.4802Z" fill="white"/>
<path d="M60.8558 91.9615C66.5283 91.8999 72.1998 91.8999 77.8704 91.9615C77.9293 97.6245 77.9302 103.29 77.873 108.959C72.2004 109.015 66.529 109.014 60.8587 108.956C60.7998 103.293 60.7988 97.6285 60.8558 91.9615Z" fill="white"/>
<defs>
<filter id="filter0_d_25:799" x="0" y="0" width="154" height="154" filterUnits="userSpaceOnUse" color-interpolation-filters="sRGB">
<feFlood flood-opacity="0" result="BackgroundImageFix"/>
<feColorMatrix in="SourceAlpha" type="matrix" values="0 0 0 0 0 0 0 0 0 0 0 0 0 0 0 0 0 0 127 0" result="hardAlpha"/>
<feOffset/>
<feGaussianBlur stdDeviation="1"/>
<feComposite in2="hardAlpha" operator="out"/>
<feColorMatrix type="matrix" values="0 0 0 0 0.611765 0 0 0 0 0.905882 0 0 0 0 0.352941 0 0 0 0.5 0"/>
<feBlend mode="normal" in2="BackgroundImageFix" result="effect1_dropShadow_25:799"/>
<feBlend mode="normal" in="SourceGraphic" in2="effect1_dropShadow_25:799" result="shape"/>
</filter>
<radialGradient id="paint0_radial_25:799" cx="0" cy="0" r="1" gradientUnits="userSpaceOnUse" gradientTransform="translate(77 7.625) rotate(90) scale(144.375)">
<stop stop-color="#7748D8"/>
<stop offset="1" stop-color="#4D2F8C"/>
</radialGradient>
<linearGradient id="paint1_linear_25:799" x1="26.5" y1="22" x2="125.5" y2="131" gradientUnits="userSpaceOnUse">
<stop stop-color="#9DD46D"/>
<stop offset="1" stop-color="#E5FFCF"/>
</linearGradient>
</defs>
</svg>
