<svg width="16" height="17" viewBox="0 0 16 17" fill="none" xmlns="http://www.w3.org/2000/svg">
<path fill-rule="evenodd" clip-rule="evenodd" d="M8.00662 0.648438C3.57917 0.648438 0 4.25399 0 8.71455C0 12.2801 2.29329 15.2983 5.4747 16.3665C5.87246 16.4468 6.01816 16.193 6.01816 15.9794C6.01816 15.7924 6.00505 15.1514 6.00505 14.4836C3.7778 14.9644 3.31399 13.5221 3.31399 13.5221C2.95606 12.5872 2.42572 12.347 2.42572 12.347C1.69674 11.8529 2.47882 11.8529 2.47882 11.8529C3.28744 11.9063 3.71175 12.6808 3.71175 12.6808C4.42745 13.9093 5.58074 13.5622 6.04471 13.3485C6.11092 12.8277 6.32315 12.4671 6.5485 12.2668C4.77211 12.0798 2.90313 11.3854 2.90313 8.28713C2.90313 7.40573 3.22107 6.68462 3.72486 6.1238C3.64538 5.92352 3.36693 5.09539 3.80451 3.98702C3.80451 3.98702 4.48055 3.7733 6.00488 4.81498C6.6575 4.63842 7.33054 4.5486 8.00662 4.54784C8.68266 4.54784 9.37181 4.64142 10.0082 4.81498C11.5327 3.7733 12.2087 3.98702 12.2087 3.98702C12.6463 5.09539 12.3677 5.92352 12.2882 6.1238C12.8053 6.68462 13.1101 7.40573 13.1101 8.28713C13.1101 11.3854 11.2411 12.0664 9.45146 12.2668C9.74318 12.5205 9.99492 13.0012 9.99492 13.7625C9.99492 14.8442 9.98181 15.7123 9.98181 15.9792C9.98181 16.193 10.1277 16.4468 10.5253 16.3667C13.7067 15.2981 16 12.2801 16 8.71455C16.0131 4.25399 12.4208 0.648438 8.00662 0.648438Z" fill="white"/>
</svg>
