<?xml version="1.0" encoding="utf-8"?>
<!-- Generator: Adobe Illustrator 26.2.1, SVG Export Plug-In . SVG Version: 6.00 Build 0)  -->
<svg version="1.1" id="Warstwa_1" xmlns="http://www.w3.org/2000/svg" xmlns:xlink="http://www.w3.org/1999/xlink" x="0px" y="0px"
	 viewBox="0 0 1000 1000" style="enable-background:new 0 0 1000 1000;" xml:space="preserve">
<style type="text/css">
	.st0{fill:#FFFFFF;}
</style>
<path class="st0" d="M498.4,0c-11,0-21.5,0.2-30.2,0.8c-57,3.8-111.4,16.7-164.5,39.1c-14.7,6.2-43.1,20.5-56.8,28.5
	c-66.2,38.9-121.7,91.5-164,155.4c-12,18.1-19,30.2-29.3,50.7c-30.9,61-48.4,125.1-52.9,193.9c-0.9,13.7-0.9,49.8,0,63.5
	c4.6,68.8,22.1,132.9,52.9,193.9C64,746.3,71,758.4,83,776.4c42.3,63.9,97.8,116.4,164,155.4c13.7,8.1,42.2,22.4,56.7,28.5
	c53.1,22.3,107,35.2,163.3,39.1c11.9,0.8,52.6,0.8,64.7,0c68.8-4.6,132.9-22.1,193.9-52.9c20.5-10.4,32.6-17.4,50.7-29.3
	c63.9-42.3,116.4-97.8,155.4-164c8.1-13.8,22.4-42.2,28.6-57c22.4-53,35.2-107,39-164.3c0.9-13.7,0.9-49.8,0-63.5
	c-3.8-57.3-16.6-111.3-39-164.3c-6.2-14.8-20.5-43.2-28.6-57C850.8,109.4,710.2,19,551.3,2.5C536.6,1,516.8,0.1,498.4,0z M500,111.6
	c214.4,0,388.4,174,388.4,388.4c0,214.4-174,388.4-388.4,388.4c-214.4,0-388.4-174-388.4-388.4C111.6,285.6,285.6,111.6,500,111.6z
	 M500,127.3c-206,0-372.7,166.8-372.7,372.7c0,179.4,126.6,329.1,295.4,364.7c-0.1-13-0.4-33.3-0.4-60.5
	c-97,17.8-122-23.6-129.8-45.3c-4.3-11.1-23.2-45.3-39.6-54.5c-13.5-7.2-32.8-25.1-0.5-25.6c30.4-0.5,52.1,28,59.3,39.6
	c34.7,58.4,90.2,42,112.4,31.8c3.4-25.1,13.5-42,24.6-51.6c-85.9-9.6-175.6-42.9-175.6-190.5c0-42,15-76.7,39.6-103.7
	c-3.9-9.6-17.4-49.2,3.9-102.3c0,0,32.3-10.1,106.1,39.6c30.9-8.7,63.7-13,96.5-13c32.8,0,65.6,4.3,96.5,13
	c50.7-34.5,81.9-40.2,96.4-40.5c6.6-0.1,9.7,0.9,9.7,0.9c21.2,53.1,7.7,92.6,3.9,102.3c24.6,27,39.6,61.3,39.6,103.7
	c0,148.1-90.2,180.9-176.1,190.5c14,12.1,26,35.2,26,71.4c0,43.7-0.3,68.1-0.4,84.8C764.5,806.3,872.7,665.9,872.7,500
	C872.7,294.1,705.9,127.3,500,127.3z"/>
</svg>
