<svg xmlns="http://www.w3.org/2000/svg" width="32" height="32" viewBox="0 0 32 32" fill="none">
<rect width="32" height="32" rx="10" fill="#3A466B"/>
<path d="M8.76953 19C8.35532 19 8.01953 19.3358 8.01953 19.75C8.01953 20.1642 8.35532 20.5 8.76953 20.5L21.1089 20.5L18.8892 22.7197C18.5963 23.0126 18.5963 23.4874 18.8892 23.7803C19.1821 24.0732 19.657 24.0732 19.9499 23.7803L23.9802 19.75L19.9499 15.7197C19.657 15.4268 19.1821 15.4268 18.8892 15.7197C18.5963 16.0126 18.5963 16.4874 18.8892 16.7803L21.1089 19L8.76953 19Z" fill="#EF84F5"/>
<path d="M23.6696 12.25C23.6696 12.6642 23.3338 13 22.9196 13L10.9001 13L13.1198 15.2197C13.4127 15.5126 13.4127 15.9874 13.1198 16.2803C12.8269 16.5732 12.352 16.5732 12.0591 16.2803L8.02882 12.25L12.0591 8.21967C12.352 7.92678 12.8269 7.92678 13.1198 8.21967C13.4127 8.51256 13.4127 8.98744 13.1198 9.28033L10.9001 11.5L22.9196 11.5C23.3338 11.5 23.6696 11.8358 23.6696 12.25Z" fill="#EF84F5"/>
</svg>