<svg width="33" height="32" viewBox="0 0 33 32" fill="none" xmlns="http://www.w3.org/2000/svg">
<g filter="url(#filter0_d_1_624)">
<path d="M3.09068 25.1666C4.44261 27.0471 6.17677 28.6205 8.17944 29.7838C10.1821 30.947 12.408 31.6738 14.7113 31.9165C13.5263 30.1333 11.8038 28.4928 9.65348 27.2438C7.50312 25.9948 5.22586 25.3125 3.09068 25.1666Z" fill="url(#paint0_linear_1_624)"/>
<path d="M12.5429 22.2705C8.40008 19.8636 3.91605 19.2502 0.707588 20.3338C1.01733 21.3575 1.42582 22.3487 1.92731 23.2934C4.71491 23.2288 7.75849 23.9859 10.5905 25.6308C13.4226 27.2757 15.5887 29.5459 16.9142 32C17.9838 31.9672 19.0478 31.8309 20.0912 31.5932C19.4425 28.2698 16.6848 24.6779 12.5429 22.2705Z" fill="url(#paint1_linear_1_624)"/>
<path d="M32.2852 12.5009C31.7585 10.3584 30.8054 8.34403 29.4829 6.57804C28.1604 4.81205 26.4956 3.33067 24.5879 2.22235C22.6802 1.11403 20.5687 0.401504 18.3796 0.127309C16.1904 -0.146885 13.9684 0.0228797 11.8463 0.626465C15.3915 1.06033 19.3267 2.39122 23.1859 4.63324C27.0452 6.87525 30.1533 9.63411 32.2852 12.5009Z" fill="url(#paint2_linear_1_624)"/>
<path d="M27.1271 20.3583C25.3124 17.3446 22.2038 14.4588 18.3743 12.2342C14.5449 10.0095 10.4991 8.73878 6.98528 8.65472C3.89397 8.5815 1.57386 9.48015 0.621517 11.1197C0.616094 11.1294 0.608501 11.1386 0.602535 11.1484C0.516846 11.4559 0.443089 11.7639 0.375839 12.0731C1.70565 11.5481 3.24642 11.2558 4.95966 11.2232C8.76956 11.1517 13.0334 12.3703 16.9681 14.6562C20.9027 16.9422 24.0759 20.0438 25.9003 23.3878C26.7182 24.8944 27.2285 26.3777 27.4308 27.7948C27.6662 27.5844 27.8972 27.3669 28.1212 27.1408C28.1272 27.1305 28.131 27.1196 28.1369 27.1088C29.0893 25.4677 28.721 23.0076 27.1271 20.3583Z" fill="url(#paint3_linear_1_624)"/>
<path d="M15.4609 17.2485C9.59662 13.8416 3.11626 13.3079 0 15.6855C0.00612096 16.4297 0.0630166 17.1726 0.170292 17.9091C1.08699 17.6312 2.03177 17.4562 2.98718 17.3874C6.46952 17.1254 10.3087 18.0957 13.7927 20.1207C17.2766 22.1458 20.023 25.0018 21.5209 28.1543C21.935 29.018 22.2508 29.9254 22.4624 30.8595C23.1555 30.5878 23.8294 30.2694 24.4794 29.9066C25.0011 26.0213 21.3268 20.656 15.4609 17.2485Z" fill="url(#paint4_linear_1_624)"/>
<path d="M30.1434 15.3141C28.3082 12.3036 25.1724 9.40968 21.3158 7.17038C17.4593 4.93108 13.3977 3.64032 9.87255 3.53673C7.18528 3.45918 5.1038 4.11052 4.02455 5.34108C8.50586 4.58181 14.4168 5.85793 20.146 9.18624C25.8753 12.5146 29.9135 17.0181 31.4722 21.2868C32.0064 19.7406 31.5416 17.6098 30.1434 15.3141Z" fill="url(#paint5_linear_1_624)"/>
</g>
<defs>
<filter id="filter0_d_1_624" x="-22.7448" y="-20.4703" width="77.7748" height="77.4896" filterUnits="userSpaceOnUse" color-interpolation-filters="sRGB">
<feFlood flood-opacity="0" result="BackgroundImageFix"/>
<feColorMatrix in="SourceAlpha" type="matrix" values="0 0 0 0 0 0 0 0 0 0 0 0 0 0 0 0 0 0 127 0" result="hardAlpha"/>
<feOffset dy="2.27449"/>
<feGaussianBlur stdDeviation="11.3724"/>
<feComposite in2="hardAlpha" operator="out"/>
<feColorMatrix type="matrix" values="0 0 0 0 0 0 0 0 0 0 0 0 0 0 0 0 0 0 0.1 0"/>
<feBlend mode="normal" in2="BackgroundImageFix" result="effect1_dropShadow_1_624"/>
<feBlend mode="normal" in="SourceGraphic" in2="effect1_dropShadow_1_624" result="shape"/>
</filter>
<linearGradient id="paint0_linear_1_624" x1="21.4999" y1="6.49996" x2="6.66661" y2="32" gradientUnits="userSpaceOnUse">
<stop offset="0.0001" stop-color="#C7F284"/>
<stop offset="1" stop-color="#00BEF0"/>
</linearGradient>
<linearGradient id="paint1_linear_1_624" x1="21.4999" y1="6.49997" x2="6.6666" y2="32" gradientUnits="userSpaceOnUse">
<stop offset="0.0001" stop-color="#C7F284"/>
<stop offset="1" stop-color="#00BEF0"/>
</linearGradient>
<linearGradient id="paint2_linear_1_624" x1="21.5" y1="6.5" x2="6.66663" y2="32" gradientUnits="userSpaceOnUse">
<stop offset="0.0001" stop-color="#C7F284"/>
<stop offset="1" stop-color="#00BEF0"/>
</linearGradient>
<linearGradient id="paint3_linear_1_624" x1="21.5" y1="6.49998" x2="6.66664" y2="32" gradientUnits="userSpaceOnUse">
<stop offset="0.0001" stop-color="#C7F284"/>
<stop offset="1" stop-color="#00BEF0"/>
</linearGradient>
<linearGradient id="paint4_linear_1_624" x1="21.5" y1="6.50003" x2="6.66667" y2="32" gradientUnits="userSpaceOnUse">
<stop offset="0.0001" stop-color="#C7F284"/>
<stop offset="1" stop-color="#00BEF0"/>
</linearGradient>
<linearGradient id="paint5_linear_1_624" x1="21.5" y1="6.49999" x2="6.66665" y2="32" gradientUnits="userSpaceOnUse">
<stop offset="0.0001" stop-color="#C7F284"/>
<stop offset="1" stop-color="#00BEF0"/>
</linearGradient>
</defs>
</svg>
