<svg width="19" height="25" viewBox="0 0 19 25" fill="none" xmlns="http://www.w3.org/2000/svg">
<path fill-rule="evenodd" clip-rule="evenodd" d="M9.50003 -0.00976558C9.75642 -0.00974748 10.0126 0.0872905 10.2088 0.28067L10.2092 0.281097L10.2158 0.287602L10.2392 0.310698C10.2591 0.330535 10.2878 0.359203 10.3246 0.396367C10.3981 0.470686 10.5041 0.579032 10.6372 0.718728C10.9035 0.998025 11.2793 1.40318 11.7235 1.91274C12.6104 2.93019 13.7775 4.37222 14.8917 6.06631C17.0761 9.38761 19.2429 13.9551 18.2716 18.2383C17.4556 21.8362 15.2362 23.5681 13.2136 24.3589C12.2216 24.7468 11.2881 24.9062 10.6052 24.9699C10.2622 25.002 9.97775 25.0102 9.77473 25.0102C9.67308 25.0102 9.59144 25.0082 9.53261 25.0059C9.52084 25.0054 9.50997 25.005 9.50003 25.0045C9.49009 25.005 9.47923 25.0054 9.46745 25.0059C9.40862 25.0082 9.32698 25.0102 9.22534 25.0102C9.02231 25.0102 8.73789 25.002 8.39484 24.9699C7.71201 24.9062 6.77846 24.7468 5.78646 24.3589C3.76391 23.5681 1.54444 21.8362 0.728506 18.2383C-0.242819 13.9551 1.92401 9.38761 4.10837 6.06631C5.22255 4.37222 6.38965 2.93019 7.2766 1.91274C7.7208 1.40318 8.09657 0.998025 8.36283 0.718728C8.49601 0.579032 8.60193 0.470686 8.67547 0.396367C8.71224 0.359203 8.74093 0.330535 8.76089 0.310698L8.78423 0.287602L8.79084 0.281097L8.79128 0.28067C8.87228 0.200821 8.96352 0.137399 9.06078 0.09045C9.19923 0.0235834 9.34967 -0.00977619 9.50003 -0.00976558ZM9.50003 2.45885C9.2988 2.67661 9.06198 2.93874 8.79926 3.24011C7.95351 4.21029 6.84671 5.5788 5.79608 7.17629C3.65081 10.4381 1.92437 14.378 2.69849 17.7915C3.34254 20.6316 5.01633 21.8888 6.52206 22.4776C7.29419 22.7795 8.03353 22.9074 8.58255 22.9587C8.85543 22.9841 9.07667 22.9902 9.22534 22.9902C9.29953 22.9902 9.35524 22.9887 9.3898 22.9874C9.40421 22.9868 9.41491 22.9863 9.42172 22.986C9.44759 22.984 9.47371 22.983 9.50003 22.983C9.52635 22.983 9.55247 22.984 9.57835 22.986C9.58515 22.9863 9.59585 22.9868 9.61027 22.9874C9.64482 22.9887 9.70053 22.9902 9.77473 22.9902C9.92339 22.9902 10.1446 22.9841 10.4175 22.9587C10.9665 22.9074 11.7059 22.7795 12.478 22.4776C13.9837 21.8888 15.6575 20.6316 16.3016 17.7915C17.0757 14.378 15.3493 10.4381 13.204 7.17629C12.1534 5.5788 11.0465 4.21029 10.2008 3.24011C9.93808 2.93874 9.70126 2.67661 9.50003 2.45885Z" fill="#A9B6BF"/>
</svg>
