<svg width="76" height="70" viewBox="0 0 76 70" fill="none" xmlns="http://www.w3.org/2000/svg">
<path d="M36.22 37.3415C35.548 37.0989 34.7733 36.9775 33.896 36.9775C33.0373 36.9775 32.2347 37.0989 31.488 37.3415C30.7413 37.5655 30.0787 37.8829 29.5 38.2935L30.844 40.8135C31.292 40.4962 31.712 40.2722 32.104 40.1415C32.496 40.0109 32.9253 39.9455 33.392 39.9455C34.12 39.9455 34.6707 40.1415 35.044 40.5335C35.4173 40.9255 35.604 41.3922 35.604 41.9335C35.604 42.6429 35.4173 43.2589 35.044 43.7815C34.6893 44.3042 34.148 44.9389 33.42 45.6855C33.084 46.0402 32.7853 46.3669 32.524 46.6655C32.2813 46.9642 32.0667 47.2722 31.88 47.5895C31.6933 47.8882 31.5533 48.2055 31.46 48.5415C31.3667 48.8589 31.32 49.2135 31.32 49.6055C31.32 49.9042 31.348 50.2029 31.404 50.5015C31.46 50.7815 31.5253 51.0242 31.6 51.2295L34.624 50.8095C34.512 50.5109 34.456 50.1842 34.456 49.8295C34.456 49.5682 34.4933 49.3349 34.568 49.1295C34.6613 48.9242 34.792 48.7189 34.96 48.5135C35.1467 48.2895 35.38 48.0375 35.66 47.7575C35.94 47.4775 36.2853 47.1415 36.696 46.7495C37.5173 45.9282 38.1707 45.1349 38.656 44.3695C39.1413 43.6042 39.384 42.7269 39.384 41.7375C39.384 41.0655 39.2627 40.4402 39.02 39.8615C38.7773 39.2642 38.4227 38.7602 37.956 38.3495C37.4893 37.9202 36.9107 37.5842 36.22 37.3415Z" fill="#A9B6BF"/>
<path d="M31.88 53.6095C31.4693 54.0202 31.264 54.5242 31.264 55.1215C31.264 55.7749 31.4693 56.3069 31.88 56.7175C32.3093 57.1095 32.8133 57.3055 33.392 57.3055C33.952 57.3055 34.4373 57.1095 34.848 56.7175C35.2773 56.3069 35.492 55.7749 35.492 55.1215C35.492 54.5242 35.2773 54.0202 34.848 53.6095C34.4373 53.1989 33.952 52.9935 33.392 52.9935C32.8133 52.9935 32.3093 53.1989 31.88 53.6095Z" fill="#A9B6BF"/>
<path fill-rule="evenodd" clip-rule="evenodd" d="M64.7273 1.27467L64.7356 1.28274L64.7653 1.31198C64.7908 1.33725 64.8278 1.37399 64.8753 1.42177C64.9703 1.51734 65.1076 1.65711 65.2805 1.8376C65.6263 2.1985 66.1149 2.72278 66.6928 3.38252C67.8472 4.70031 69.3653 6.56707 70.8138 8.75872C73.6656 13.0738 76.4376 18.931 75.195 24.384C74.152 28.9608 71.326 31.1482 68.7535 32.1492C67.487 32.642 66.2934 32.8451 65.4191 32.9263C64.9803 32.9671 64.6172 32.9775 64.3593 32.9775C64.2303 32.9775 64.1271 32.9749 64.0536 32.9721C64.0335 32.9713 64.0156 32.9705 64 32.9698C63.9844 32.9705 63.9665 32.9713 63.9464 32.9721C63.8729 32.9749 63.7697 32.9775 63.6407 32.9775C63.3828 32.9775 63.0197 32.9671 62.5809 32.9263C61.7066 32.8451 60.513 32.642 59.2465 32.1492C56.674 31.1482 53.848 28.9608 52.805 24.384C51.5624 18.931 54.3344 13.0738 57.1862 8.75872C58.6347 6.56707 60.1528 4.70031 61.3072 3.38252C61.8851 2.72278 62.3737 2.1985 62.7195 1.8376C62.8924 1.65711 63.0297 1.51734 63.1247 1.42177C63.1722 1.37399 63.2092 1.33725 63.2347 1.31198L63.2644 1.28274L63.2727 1.27467L63.274 1.27341C63.3569 1.19213 63.4503 1.12756 63.5498 1.07975C63.6917 1.01155 63.8459 0.977528 64 0.977539C64.261 0.977521 64.5222 1.07512 64.7236 1.27102L64 2.00763C64.7236 1.27102 64.7233 1.27075 64.7236 1.27102L64.7249 1.27229L64.7273 1.27467ZM64 30.9079C63.9725 30.9079 63.9452 30.909 63.9181 30.9111C63.9082 30.9116 63.891 30.9125 63.8668 30.9134C63.8182 30.9153 63.7416 30.9173 63.6407 30.9173C63.4385 30.9173 63.1402 30.9091 62.7733 30.875C62.0362 30.8066 61.0415 30.6356 60.0004 30.2305C57.9576 29.4356 55.6908 27.7321 54.824 23.9284C53.7835 19.3623 56.1042 14.1452 58.9159 9.89078C60.2992 7.79767 61.7556 6.00588 62.8677 4.7363C63.3095 4.23199 63.6958 3.81143 64 3.48856C64.3042 3.81143 64.6905 4.23199 65.1323 4.7363C66.2444 6.00588 67.7008 7.79767 69.0841 9.89078C71.8958 14.1452 74.2165 19.3623 73.176 23.9284C72.3092 27.7321 70.0424 29.4356 67.9996 30.2305C66.9585 30.6356 65.9638 30.8066 65.2267 30.875C64.8598 30.9091 64.5615 30.9173 64.3593 30.9173C64.2584 30.9173 64.1818 30.9153 64.1332 30.9134C64.109 30.9125 64.0918 30.9116 64.0819 30.9111C64.0548 30.909 64.0275 30.9079 64 30.9079Z" fill="#A9B6BF"/>
<path fill-rule="evenodd" clip-rule="evenodd" d="M33.1946 17.2748L33.199 17.2704L33.2026 17.2669L33.2037 17.2659C33.204 17.2656 33.2042 17.2653 33.86 17.9361L33.2042 17.2653C33.6009 16.8776 34.2353 16.8826 34.6259 17.2748L34.6341 17.2829L34.6814 17.3297C34.7225 17.3705 34.7825 17.4305 34.86 17.5088C35.0151 17.6656 35.2403 17.8959 35.5246 18.1941C36.0931 18.7905 36.8984 19.6587 37.8516 20.7521C39.7565 22.9373 42.2596 26.0305 44.6456 29.6584C49.3736 36.8474 53.8278 46.413 51.831 55.2181C50.1573 62.5984 45.6505 66.0863 41.5551 67.6876C39.5266 68.4808 37.6103 68.8091 36.2037 68.9404C35.4988 69.0061 34.9173 69.0229 34.5077 69.0229C34.3027 69.0229 34.1404 69.0187 34.0267 69.0143C33.9793 69.0125 33.9403 69.0106 33.9102 69.009C33.8801 69.0106 33.8412 69.0125 33.7938 69.0143C33.6801 69.0187 33.5178 69.0229 33.3128 69.0229C32.9032 69.0229 32.3217 69.0061 31.6167 68.9404C30.2102 68.8091 28.2938 68.4808 26.2654 67.6876C22.1699 66.0863 17.6631 62.5984 15.9895 55.2181C13.9927 46.413 18.4468 36.8474 23.1749 29.6584C25.5609 26.0305 28.0639 22.9373 29.9689 20.7521C30.922 19.6587 31.7273 18.7905 32.2958 18.1941C32.5801 17.8959 32.8054 17.6656 32.9604 17.5088C33.038 17.4305 33.098 17.3705 33.1391 17.3297L33.1864 17.2829L33.1946 17.2748ZM33.9102 19.4288C33.8617 19.4793 33.8109 19.5324 33.7579 19.588C33.5997 19.7539 33.4221 19.9421 33.2273 20.1513C32.7442 20.67 32.155 21.3183 31.4915 22.0795C29.6278 24.2174 27.1851 27.2371 24.8626 30.7684C20.1736 37.8979 16.1599 46.8359 17.9594 54.7713C19.4612 61.3937 23.4224 64.4071 27.001 65.8063C28.8095 66.5135 30.5317 66.8103 31.8045 66.9291C32.4392 66.9883 32.9575 67.0029 33.3128 67.0029C33.4903 67.0029 33.6267 66.9992 33.7161 66.9958C33.7291 66.9953 33.7412 66.9948 33.7521 66.9943C33.7789 66.9932 33.7997 66.9921 33.8142 66.9913L33.8282 66.9904C33.8315 66.9902 33.8347 66.9899 33.8379 66.9897C33.8618 66.988 33.8859 66.9872 33.9102 66.9872C33.9345 66.9872 33.9586 66.988 33.9825 66.9897C33.9858 66.9899 33.989 66.9902 33.9922 66.9904L34.0063 66.9913C34.0267 66.9924 34.0596 66.9941 34.1043 66.9958C34.1937 66.9992 34.3301 67.0029 34.5077 67.0029C34.8629 67.0029 35.3813 66.9883 36.016 66.9291C37.2887 66.8103 39.0109 66.5135 40.8195 65.8063C44.3981 64.4071 48.3592 61.3937 49.861 54.7713C51.6606 46.8359 47.6468 37.8979 42.9579 30.7684C40.6354 27.2371 38.1927 24.2174 36.3289 22.0795C35.6654 21.3183 35.0762 20.67 34.5932 20.1513C34.3983 19.9421 34.2208 19.7539 34.0626 19.588C34.0096 19.5324 33.9588 19.4793 33.9102 19.4288Z" fill="#A9B6BF"/>
<path d="M71.5 21.9741C71.5 26.1163 68.1421 29.4741 64 29.4741C59.8579 29.4741 56.5 26.1163 56.5 21.9741C56.5 18.9834 59.8579 18.9775 64 18.9775C68.1421 18.9775 71.5 18.9775 71.5 21.9741Z" fill="#A9B6BF"/>
<path fill-rule="evenodd" clip-rule="evenodd" d="M7.4111 14.154L7.41576 14.1587L7.43254 14.1761C7.44698 14.1911 7.46787 14.2129 7.49472 14.2413C7.54843 14.298 7.62604 14.381 7.72377 14.4882C7.91919 14.7025 8.19537 15.0138 8.52203 15.4055C9.17451 16.1879 10.0326 17.2963 10.8513 18.5976C12.4632 21.1597 14.03 24.6374 13.3276 27.8751C12.7381 30.5926 11.1408 31.8914 9.68677 32.4857C8.97093 32.7783 8.29625 32.8989 7.8021 32.9471C7.55409 32.9713 7.34885 32.9775 7.2031 32.9775C7.13014 32.9775 7.07186 32.976 7.0303 32.9743C7.01895 32.9739 7.00883 32.9734 7 32.9729C6.99117 32.9734 6.98105 32.9739 6.9697 32.9743C6.92814 32.976 6.86986 32.9775 6.7969 32.9775C6.65115 32.9775 6.44591 32.9713 6.1979 32.9471C5.70375 32.8989 5.02907 32.7783 4.31323 32.4857C2.85922 31.8914 1.26191 30.5926 0.672407 27.8751C-0.029962 24.6374 1.53684 21.1597 3.14873 18.5976C3.96742 17.2963 4.82549 16.1879 5.47797 15.4055C5.80463 15.0138 6.08081 14.7025 6.27623 14.4882C6.37396 14.381 6.45157 14.298 6.50528 14.2413C6.53213 14.2129 6.55302 14.1911 6.56746 14.1761L6.58424 14.1587L6.5889 14.154L6.58963 14.1532C6.63651 14.105 6.68929 14.0666 6.74555 14.0382C6.82575 13.9977 6.9129 13.9775 7 13.9775C7.14752 13.9775 7.29516 14.0355 7.40898 14.1518L7 14.5892C7.40898 14.1518 7.40883 14.1516 7.40898 14.1518L7.40972 14.1525L7.4111 14.154ZM7 31.7487C6.98444 31.7487 6.96901 31.7493 6.95372 31.7506C6.94814 31.7509 6.93839 31.7514 6.92471 31.752C6.89722 31.7531 6.85396 31.7543 6.7969 31.7543C6.68264 31.7543 6.514 31.7494 6.30663 31.7292C5.89 31.6885 5.32782 31.587 4.73935 31.3465C3.58472 30.8745 2.30352 29.8631 1.81357 27.6046C1.22544 24.8935 2.53714 21.7958 4.12638 19.2698C4.90826 18.027 5.73141 16.9631 6.36001 16.2093C6.60971 15.9099 6.82804 15.6602 7 15.4685C7.17196 15.6602 7.39029 15.9099 7.63999 16.2093C8.26859 16.9631 9.09174 18.027 9.87362 19.2698C11.4629 21.7958 12.7746 24.8935 12.1864 27.6046C11.6965 29.8631 10.4153 30.8745 9.26065 31.3465C8.67218 31.587 8.11 31.6885 7.69337 31.7292C7.486 31.7494 7.31736 31.7543 7.2031 31.7543C7.14604 31.7543 7.10278 31.7531 7.07529 31.752C7.06161 31.7514 7.05186 31.7509 7.04628 31.7506C7.031 31.7493 7.01556 31.7487 7 31.7487Z" fill="#A9B6BF"/>
</svg>
