<?xml version="1.0" encoding="UTF-8" standalone="no"?>
<!DOCTYPE svg PUBLIC "-//W3C//DTD SVG 1.1//EN" "http://www.w3.org/Graphics/SVG/1.1/DTD/svg11.dtd">
<svg width="100%" height="100%" viewBox="0 0 2000 500" version="1.1" xmlns="http://www.w3.org/2000/svg" xmlns:xlink="http://www.w3.org/1999/xlink" xml:space="preserve" xmlns:serif="http://www.serif.com/" style="fill-rule:evenodd;clip-rule:evenodd;stroke-linejoin:round;stroke-miterlimit:2;">
    <g transform="matrix(1,0,0,1,-16.0933,-1084.78)">
        <g id="invariant_horizontal_color" transform="matrix(1,0,0,1,-1083.91,1084.78)">
            <rect x="1100" y="0" width="2000" height="500" style="fill:none;"/>
            <g transform="matrix(2.72231,0,0,2.72231,735.042,-102.654)">
                <g transform="matrix(2.32702,0,0,2.32702,519.64,-530.151)">
                    <rect x="-67.643" y="265.668" width="5.2" height="35" style="fill:white;fill-rule:nonzero;"/>
                    <path d="M-32.493,287.568L-32.493,300.668L-37.693,300.668L-37.693,287.668C-37.693,286.251 -37.989,284.964 -38.581,283.806C-39.172,282.647 -39.981,281.722 -41.006,281.031C-42.031,280.339 -43.193,279.993 -44.493,279.993C-45.793,279.993 -46.931,280.339 -47.906,281.031C-48.881,281.722 -49.639,282.647 -50.181,283.806C-50.722,284.964 -50.993,286.251 -50.993,287.668L-50.993,300.668L-56.193,300.668L-56.193,275.668L-50.993,275.668L-50.993,279.043C-50.126,277.776 -49.076,276.781 -47.843,276.056C-46.61,275.331 -45.218,274.968 -43.668,274.968C-41.418,274.968 -39.464,275.543 -37.806,276.693C-36.147,277.843 -34.851,279.368 -33.918,281.268C-32.985,283.168 -32.51,285.268 -32.493,287.568Z" style="fill:white;fill-rule:nonzero;"/>
                    <path d="M-13.618,300.668L-20.293,300.668L-29.418,275.618L-23.868,275.618L-16.968,294.668L-10.043,275.618L-4.518,275.618L-13.618,300.668Z" style="fill:white;fill-rule:nonzero;"/>
                    <path d="M17.782,275.668L22.982,275.668L22.982,300.668L17.757,300.668L17.557,297.043C16.824,298.326 15.836,299.36 14.594,300.143C13.353,300.926 11.882,301.318 10.182,301.318C8.332,301.318 6.603,300.972 4.994,300.281C3.386,299.589 1.969,298.626 0.744,297.393C-0.481,296.16 -1.439,294.739 -2.131,293.131C-2.822,291.522 -3.168,289.793 -3.168,287.943C-3.168,286.16 -2.835,284.481 -2.168,282.906C-1.501,281.331 -0.576,279.951 0.607,278.768C1.79,277.585 3.161,276.656 4.719,275.981C6.278,275.306 7.949,274.968 9.732,274.968C11.549,274.968 13.153,275.381 14.544,276.206C15.936,277.031 17.082,278.085 17.982,279.368L17.782,275.668ZM10.307,296.293C11.807,296.293 13.103,295.918 14.194,295.168C15.286,294.418 16.111,293.41 16.669,292.143C17.228,290.876 17.465,289.476 17.382,287.943C17.282,286.476 16.894,285.143 16.219,283.943C15.544,282.743 14.649,281.789 13.532,281.081C12.415,280.372 11.149,280.018 9.732,280.018C8.249,280.018 6.911,280.393 5.719,281.143C4.528,281.893 3.607,282.901 2.957,284.168C2.307,285.435 2.024,286.843 2.107,288.393C2.207,289.843 2.644,291.168 3.419,292.368C4.194,293.568 5.186,294.522 6.394,295.231C7.603,295.939 8.907,296.293 10.307,296.293Z" style="fill:white;fill-rule:nonzero;"/>
                    <path d="M43.757,280.893C43.324,280.626 42.853,280.414 42.344,280.256C41.836,280.097 41.282,280.018 40.682,280.018C39.382,280.018 38.249,280.36 37.282,281.043C36.315,281.726 35.561,282.651 35.019,283.818C34.478,284.985 34.207,286.276 34.207,287.693L34.207,300.668L28.982,300.668L28.982,275.668L34.182,275.668L34.182,279.043C35.049,277.793 36.103,276.806 37.344,276.081C38.586,275.356 39.974,274.993 41.507,274.993C42.074,274.993 42.611,275.018 43.119,275.068C43.628,275.118 44.115,275.218 44.582,275.368L43.757,280.893Z" style="fill:white;fill-rule:nonzero;"/>
                    <rect x="48.332" y="275.668" width="5.2" height="25" style="fill:white;fill-rule:nonzero;"/>
                    <path d="M81.132,275.668L86.332,275.668L86.332,300.668L81.107,300.668L80.907,297.043C80.174,298.326 79.186,299.36 77.944,300.143C76.703,300.926 75.232,301.318 73.532,301.318C71.682,301.318 69.953,300.972 68.344,300.281C66.736,299.589 65.319,298.626 64.094,297.393C62.869,296.16 61.911,294.739 61.219,293.131C60.528,291.522 60.182,289.793 60.182,287.943C60.182,286.16 60.515,284.481 61.182,282.906C61.849,281.331 62.774,279.951 63.957,278.768C65.14,277.585 66.511,276.656 68.069,275.981C69.628,275.306 71.299,274.968 73.082,274.968C74.899,274.968 76.503,275.381 77.894,276.206C79.286,277.031 80.432,278.085 81.332,279.368L81.132,275.668ZM73.657,296.293C75.157,296.293 76.453,295.918 77.544,295.168C78.636,294.418 79.461,293.41 80.019,292.143C80.578,290.876 80.815,289.476 80.732,287.943C80.632,286.476 80.244,285.143 79.569,283.943C78.894,282.743 77.999,281.789 76.882,281.081C75.765,280.372 74.499,280.018 73.082,280.018C71.599,280.018 70.261,280.393 69.069,281.143C67.878,281.893 66.957,282.901 66.307,284.168C65.657,285.435 65.374,286.843 65.457,288.393C65.557,289.843 65.994,291.168 66.769,292.368C67.544,293.568 68.536,294.522 69.744,295.231C70.953,295.939 72.257,296.293 73.657,296.293Z" style="fill:white;fill-rule:nonzero;"/>
                    <path d="M115.532,287.568L115.532,300.668L110.332,300.668L110.332,287.668C110.332,286.251 110.036,284.964 109.444,283.806C108.853,282.647 108.044,281.722 107.019,281.031C105.994,280.339 104.832,279.993 103.532,279.993C102.232,279.993 101.094,280.339 100.119,281.031C99.144,281.722 98.386,282.647 97.844,283.806C97.303,284.964 97.032,286.251 97.032,287.668L97.032,300.668L91.832,300.668L91.832,275.668L97.032,275.668L97.032,279.043C97.899,277.776 98.949,276.781 100.182,276.056C101.415,275.331 102.807,274.968 104.357,274.968C106.607,274.968 108.561,275.543 110.219,276.693C111.878,277.843 113.174,279.368 114.107,281.268C115.04,283.168 115.515,285.268 115.532,287.568Z" style="fill:white;fill-rule:nonzero;"/>
                    <path d="M134.232,280.868L128.982,280.868L128.957,300.668L123.757,300.668L123.782,280.868L119.807,280.868L119.807,275.668L123.782,275.668L123.757,267.818L128.957,267.818L128.982,275.668L134.232,275.668L134.232,280.868Z" style="fill:white;fill-rule:nonzero;"/>
                </g>
                <g transform="matrix(1.06217,0,0,1.06217,-43.2582,-279.63)">
                    <g transform="matrix(1.12525,0,0,1.12525,-5284.37,246.576)">
                        <path d="M4906.47,128.698L4954.34,128.698L4930.4,164.785L4906.47,128.698Z" style="fill:#2EE09A;"/>
                    </g>
                    <g transform="matrix(1.12525,0,0,1.12525,-5284.37,246.576)">
                        <path d="M4940.58,117.261L4916.95,81.643L4875.26,81.643L4898.89,117.261L4940.58,117.261Z" style="fill:#2EE09A;"/>
                    </g>
                    <g transform="matrix(1.12525,0,0,1.12525,-5284.37,246.576)">
                        <path d="M4940.58,81.643L4933.41,92.452L4949.86,117.261L4961.93,117.261L4985.55,81.643L4940.58,81.643Z" style="fill:url(#_Linear1);"/>
                    </g>
                </g>
            </g>
        </g>
    </g>
    <defs>
        <linearGradient id="_Linear1" x1="0" y1="0" x2="1" y2="0" gradientUnits="userSpaceOnUse" gradientTransform="matrix(-27.8025,29.961,-29.961,-27.8025,4968.38,81.643)"><stop offset="0" style="stop-color:#EF84F5;stop-opacity:1"/><stop offset="1" style="stop-color:#EF84F5;stop-opacity:0"/></linearGradient>
    </defs>
</svg>
