<?xml version="1.0" encoding="utf-8"?>
<!-- Generator: Adobe Illustrator 26.2.1, SVG Export Plug-In . SVG Version: 6.00 Build 0)  -->
<svg version="1.1" id="Warstwa_1" xmlns="http://www.w3.org/2000/svg" xmlns:xlink="http://www.w3.org/1999/xlink" x="0px" y="0px"
	 viewBox="0 0 1000 1000" style="enable-background:new 0 0 1000 1000;" xml:space="preserve">
<style type="text/css">
	.st0{fill:#FFFFFF;}
</style>
<path class="st0" d="M500,0C223.8,0,0,223.8,0,500s223.8,500,500,500s500-223.8,500-500S776.2,0,500,0z M800,285l-48,45.7
	c-4,3.3-6,8.5-5.3,13.5v336.5c-0.7,5,1.2,10.3,5.3,13.5l47,45.7v10H563.7v-10l48.2-47c4.8-4.7,4.8-6,4.8-13.5v-272L482,748.8h-18
	L307,407.5v228.8c-1.3,9.8,2,19.2,8.7,26.2l63,76.2v10H200v-10l63-76.2c6.7-7,9.7-16.7,8.2-26.2V372c0.5-7.5-2.2-14.8-7.7-19.7
	l-56-67.3v-10h174L516,569l118.2-294H800V285z"/>
</svg>
