<svg width="20" height="17" viewBox="0 0 20 17" fill="none" xmlns="http://www.w3.org/2000/svg">
<path d="M2.37083 3.61128C2.39573 3.36655 2.30147 3.12536 2.11827 2.96043L0.252557 0.717017V0.381836H6.05069L10.5327 10.1819L14.4722 0.381836H20V0.717017L18.4028 2.24396C18.2659 2.34859 18.1965 2.52061 18.225 2.69086V13.9061C18.1965 14.0764 18.2641 14.2484 18.4028 14.3531L19.9626 15.88V16.2152H12.1209V15.88L13.7359 14.3158C13.8942 14.158 13.8942 14.1119 13.8942 13.8689V4.80127L9.40329 16.1744H8.7968L3.56781 4.80127V12.4235C3.52334 12.7445 3.63184 13.0673 3.85772 13.2978L5.9582 15.8392V16.1744H0V15.8392L2.10049 13.2978C2.32459 13.0655 2.42597 12.741 2.37083 12.4235V3.61128Z" fill="white"/>
</svg>
