<?xml version="1.0" encoding="utf-8"?>
<!-- Generator: Adobe Illustrator 25.0.0, SVG Export Plug-In . SVG Version: 6.00 Build 0)  -->
<svg version="1.1" id="Warstwa_1" xmlns="http://www.w3.org/2000/svg" xmlns:xlink="http://www.w3.org/1999/xlink" x="0px" y="0px"
	 viewBox="0 0 24 31.1" style="enable-background:new 0 0 24 31.1;" xml:space="preserve">
<style type="text/css">
	.st0{fill:none;stroke:#3A466B;stroke-width:2;}
	.st1{fill:#3A466B;}
	.st2{fill:none;stroke:#040B22;stroke-opacity:0.5;}
	.st3{fill:#FFFFFF;}
</style>
<path class="st0" d="M23,31.1v-26"/>
<path class="st1" d="M0,2.1c0-1.1,0.9-2,2-2h22v11H2c-1.1,0-2-0.9-2-2V2.1z"/>
<path class="st2" d="M2,3.1v5"/>
<path class="st2" d="M4,3.1v5"/>
<path class="st3" d="M8.2,3.1h1l1.1,3.2c0.1,0.2,0.1,0.3,0.2,0.5c0,0.1,0.1,0.3,0.1,0.4h0c0-0.1,0.1-0.3,0.1-0.4
	c0-0.1,0.1-0.3,0.2-0.5l1-3.2h1l0.4,5h-0.7l-0.2-2.7c0-0.3,0-0.5,0-0.8c0-0.3,0-0.5,0-0.8h0c-0.1,0.3-0.2,0.5-0.2,0.8
	c-0.1,0.3-0.2,0.5-0.2,0.8l-0.9,2.7h-0.7L9.3,5.4C9.2,5.2,9.1,4.9,9.1,4.7C9,4.4,8.9,4.1,8.9,3.9h0c0,0.3,0,0.5,0,0.8
	c0,0.3,0,0.5-0.1,0.8L8.5,8.1H7.8L8.2,3.1z M14.9,3.1v5h-0.7v-5H14.9z M16,3.1h0.6l2.3,3.2c0.1,0.1,0.2,0.2,0.2,0.4
	c0.1,0.1,0.2,0.2,0.2,0.4h0c0-0.2,0-0.4,0-0.6c0-0.2,0-0.4,0-0.6V3.1h0.7v5h-0.6L17.2,5c-0.1-0.1-0.2-0.2-0.2-0.4
	c-0.1-0.1-0.2-0.3-0.2-0.4h0c0,0.2,0,0.4,0,0.7c0,0.2,0,0.4,0,0.7v2.6H16V3.1z"/>
</svg>
