<?xml version="1.0" encoding="utf-8"?>
<!-- Generator: Adobe Illustrator 25.0.0, SVG Export Plug-In . SVG Version: 6.00 Build 0)  -->
<svg version="1.1" id="Warstwa_1" xmlns="http://www.w3.org/2000/svg" xmlns:xlink="http://www.w3.org/1999/xlink" x="0px" y="0px"
	 viewBox="0 0 24 31.1" style="enable-background:new 0 0 24 31.1;" xml:space="preserve">
<style type="text/css">
	.st0{fill:none;stroke:#3A466B;stroke-width:2;}
	.st1{fill:#3A466B;}
	.st2{fill:none;stroke:#040B22;stroke-opacity:0.5;}
	.st3{fill:#FFFFFF;}
	.st4{fill:#00795E;stroke:#3A466B;stroke-width:2;}
</style>
<path class="st0" d="M1,31.1l0-23"/>
<path class="st1" d="M24,2.1c0-1.1-0.9-2-2-2H0v11h22c1.1,0,2-0.9,2-2V2.1z"/>
<path class="st2" d="M22,3.1v5"/>
<path class="st2" d="M20,3.1v5"/>
<path class="st3" d="M3.3,3.1h1l1.1,3.2c0.1,0.2,0.1,0.3,0.2,0.5c0,0.1,0.1,0.3,0.1,0.4h0c0-0.1,0.1-0.3,0.1-0.4
	c0-0.1,0.1-0.3,0.2-0.5l1-3.2h1l0.4,5H7.6L7.4,5.4c0-0.3,0-0.5,0-0.8c0-0.3,0-0.5,0-0.8h0C7.2,4.1,7.2,4.4,7.1,4.7
	C7,4.9,6.9,5.2,6.8,5.4L6,8.1H5.3L4.4,5.4C4.3,5.2,4.2,4.9,4.1,4.7C4.1,4.4,4,4.1,3.9,3.9h0c0,0.3,0,0.5,0,0.8c0,0.3,0,0.5-0.1,0.8
	L3.6,8.1H2.9L3.3,3.1z M10.7,3.1h0.7l2,5h-0.8L12,6.7H9.9L9.4,8.1H8.6L10.7,3.1z M10.1,6.1h1.7l-0.3-0.9c-0.1-0.2-0.2-0.5-0.2-0.7
	c-0.1-0.2-0.1-0.4-0.2-0.7h0c-0.1,0.2-0.2,0.4-0.2,0.6S10.6,5,10.5,5.3L10.1,6.1z M14.2,3.1l1.2,2l1.3-2h0.8l-1.7,2.5l1.7,2.6h-0.8
	l-1.3-2l-1.3,2h-0.8L15,5.5l-1.6-2.5H14.2z"/>
<path class="st4" d="M1.8,8.3"/>
<path class="st4" d="M2,31.1"/>
</svg>
