<svg width="8" height="8" viewBox="0 0 8 8" fill="none" xmlns="http://www.w3.org/2000/svg">
<g id="Icon">
<path d="M7 5.56C7 5.28667 7.22667 5.06 7.5 5.06C7.77333 5.06 8 5.28667 8 5.56V8H0V0H2.44C2.71333 0 2.94 0.226667 2.94 0.5C2.94 0.773333 2.71333 1 2.44 1H1V7H7V5.56Z" fill="#A9B6BF"/>
<path d="M4.61333 0.5C4.61333 0.226667 4.84 0 5.11333 0H8V2.88667C8 3.16 7.77333 3.38667 7.5 3.38667C7.22667 3.38667 7 3.16 7 2.88667V1.70667L3.13333 5.57333C2.94 5.76667 2.62 5.76667 2.42667 5.57333C2.23333 5.38 2.23333 5.06 2.42667 4.86667L6.29333 1H5.11333C4.84 1 4.61333 0.773333 4.61333 0.5Z" fill="#A9B6BF"/>
</g>
</svg>
