<svg width="32" height="32" viewBox="0 0 32 32" fill="none" xmlns="http://www.w3.org/2000/svg">
<rect width="32" height="32" rx="10" fill="#3A466B"/>
<path d="M17.3701 7.75781C17.0249 7.75781 16.7451 8.03763 16.7451 8.38281C16.7451 8.72799 17.0249 9.00781 17.3701 9.00781L17.3701 7.75781ZM24 7.75781L17.3701 7.75781L17.3701 9.00781L24 9.00781L24 7.75781Z" fill="#A9B6BF"/>
<path d="M22.7578 14.5C22.7578 14.8452 23.0376 15.125 23.3828 15.125C23.728 15.125 24.0078 14.8452 24.0078 14.5H22.7578ZM24.0078 14.5V8H22.7578V14.5H24.0078Z" fill="#A9B6BF"/>
<path d="M12.9914 18.9993L23 9" stroke="#A9B6BF" stroke-width="1.25" stroke-linecap="round"/>
<path d="M8.37305 7.75H7.74805V9H8.37305V7.75ZM13.3759 9C13.721 9 14.0009 8.72018 14.0009 8.375C14.0009 8.02982 13.721 7.75 13.3759 7.75V9ZM8.37305 9H13.3759V7.75H8.37305V9Z" fill="#A9B6BF"/>
<line x1="23.375" y1="23.375" x2="23.375" y2="18.625" stroke="#A9B6BF" stroke-width="1.25" stroke-linecap="round"/>
<line x1="8" y1="23.375" x2="24" y2="23.375" stroke="#A9B6BF" stroke-width="1.25"/>
<line x1="8.375" y1="24" x2="8.375" y2="8" stroke="#A9B6BF" stroke-width="1.25"/>
</svg>
