<svg width="19" height="20" viewBox="0 0 19 20" fill="none" xmlns="http://www.w3.org/2000/svg">
<path d="M17.2475 0C15.7868 2.04595 13.9488 3.45828 11.7819 4.40629C11.0274 4.19831 10.2583 4.0919 9.49897 4.09673C9.47479 4.09673 9.45544 4.09673 9.43126 4.09673C8.69607 4.09673 7.94637 4.20798 7.22086 4.40629C5.05883 3.45828 3.22086 2.04111 1.75532 0C1.31034 1.11245 -0.392199 4.948 1.65375 10.3168C1.65375 10.3168 1.00079 13.1173 2.2003 15.5212C2.2003 15.5212 3.9367 14.7328 5.32001 15.8404C6.7662 17.0157 6.30671 18.1427 7.32243 19.11C8.19789 20 9.50381 20 9.50381 20C9.50381 20 10.8097 20 11.6852 19.11C12.7009 18.1427 12.2463 17.0157 13.6876 15.8404C15.0709 14.7328 16.8073 15.5212 16.8073 15.5212C18.0068 13.1173 17.3539 10.3168 17.3539 10.3168C19.3901 4.95284 17.6924 1.11245 17.2475 0ZM2.74202 9.57195C1.62957 7.29383 1.32485 4.15478 2.03102 1.68319C2.95967 4.02902 4.21723 5.08343 5.72147 6.20073C5.07818 7.52116 3.8835 8.76421 2.74202 9.57195ZM5.94396 13.5961C5.0685 13.2092 4.88471 12.445 4.88471 12.445C6.07938 11.6953 7.83513 12.266 7.88833 14.0508C6.95967 13.4849 6.65496 13.9057 5.94396 13.5961ZM9.50381 19.9081C8.87503 19.9081 8.37201 19.4583 8.37201 18.9069C8.37201 18.3555 8.8847 17.9057 9.50381 17.9057C10.1326 17.9057 10.6356 18.3555 10.6356 18.9069C10.6356 19.4583 10.1278 19.9081 9.50381 19.9081ZM13.0637 13.5961C12.3527 13.9057 12.0479 13.4849 11.1193 14.0459C11.1773 12.266 12.9282 11.6904 14.1229 12.4401C14.1278 12.4401 13.9343 13.2092 13.0637 13.5961ZM16.2608 9.57195C15.1193 8.76421 13.9246 7.51632 13.2813 6.19589C14.7856 5.08343 16.0431 4.02418 16.9718 1.67835C17.6779 4.15478 17.3732 7.29383 16.2608 9.57195Z" fill="#F7F7F7"/>
</svg>
