<?xml version="1.0" encoding="utf-8"?>
<!-- Generator: Adobe Illustrator 28.2.0, SVG Export Plug-In . SVG Version: 6.00 Build 0)  -->
<svg version="1.1" id="Warstwa_2_00000061439313231298367920000001687573686820727225_"
 xmlns="http://www.w3.org/2000/svg" xmlns:xlink="http://www.w3.org/1999/xlink" x="0px" y="0px" viewBox="0 0 960 960"
 style="enable-background:new 0 0 960 960;" xml:space="preserve">
<style type="text/css">
.st0{fill:#F7F7F7;}
</style>
<g>
<g>
<path class="st0" d="M640.9,292.6c-30.2,42.3-68.2,71.5-113,91.1c-15.6-4.3-31.5-6.5-47.2-6.4c-0.5,0-0.9,0-1.4,0
c-15.2,0-30.7,2.3-45.7,6.4c-44.7-19.6-82.7-48.9-113-91.1c-9.2,23-44.4,102.3-2.1,213.3c0,0-13.5,57.9,11.3,107.6
c0,0,35.9-16.3,64.5,6.6c29.9,24.3,20.4,47.6,41.4,67.6c18.1,18.4,45.1,18.4,45.1,18.4s27,0,45.1-18.4c21-20,11.6-43.3,41.4-67.6
c28.6-22.9,64.5-6.6,64.5-6.6c24.8-49.7,11.3-107.6,11.3-107.6C685.2,395,650.1,315.6,640.9,292.6z M341,490.5
c-23-47.1-29.3-112-14.7-163.1c19.2,48.5,45.2,70.3,76.3,93.4C389.3,448.1,364.6,473.8,341,490.5z M407.2,573.7
c-18.1-8-21.9-23.8-21.9-23.8c24.7-15.5,61-3.7,62.1,33.2C428.2,571.4,421.9,580.1,407.2,573.7z M480.8,704.2
c-13,0-23.4-9.3-23.4-20.7s10.6-20.7,23.4-20.7c13,0,23.4,9.3,23.4,20.7S493.7,704.2,480.8,704.2z M554.4,573.7
c-14.7,6.4-21-2.3-40.2,9.3c1.2-36.8,37.4-48.7,62.1-33.2C576.4,549.8,572.4,565.7,554.4,573.7z M620.5,490.5
c-23.6-16.7-48.3-42.5-61.6-69.8c31.1-23,57.1-44.9,76.3-93.4C649.8,378.5,643.5,443.4,620.5,490.5z"/>
</g>
<g>
<g>
<path class="st0" d="M839.2,439.5c-2-2.2-13.2-14-31.5-14.5c-20.1-0.6-32.6,13-34.3,14.9c-7.1-52.7-28.6-102.4-62.1-144.5
c-49.4-61.8-119.8-100.7-198.4-109.4c-78.6-8.8-155.9,13.6-217.7,63c-44.1,35.3-77,81.9-95.2,134.8c-2.5,7.2-4.7,14.7-6.6,22
c-3.4,13.3-5.9,27.1-7.5,40.8l-0.1,0.8c-2,17.9-18.3,30.9-36.2,28.9c-17.7-2-30.7-18-29-35.7v-0.2c0-0.1,0-0.2,0-0.3v-0.3
c0-0.3,0.1-0.5,0.1-0.8V439c1.7-14.8,4.3-29.6,7.8-44c1.9-8,4.2-16.1,6.7-24.1c7.4-23.3,17.2-46,29.2-67.4
c22.9-40.8,53-76.3,89.7-105.6s78-50.9,122.8-64.2c33.4-10,67.7-14.9,102.3-14.9c13.5,0,27.1,0.8,40.6,2.3
c48.5,5.4,94.5,20.2,136.7,43.9c40.8,22.9,76.3,53.1,105.6,89.7c29.3,36.7,50.9,78,64.2,122.8
C832.6,397.7,836.8,418.6,839.2,439.5z"/>
</g>
<g>
<path class="st0" d="M839.3,519.3c0,0.3-0.1,0.5-0.1,0.8l-0.1,0.3c0,0.1,0,0.3,0,0.3v0.3c-1.7,14.8-4.3,29.6-7.8,44
c-1.9,8.1-4.2,16.2-6.7,24.1c-7.4,23.3-17.2,46-29.2,67.4c-22.9,40.8-53,76.3-89.7,105.6c-36.7,29.3-78,50.9-122.8,64.2
c-46.4,13.8-94.6,18.1-143,12.6s-94.5-20.2-136.7-43.9c-40.8-22.9-76.3-53-105.6-89.7s-50.9-78-64.2-122.8
c-6-20.4-10.3-41.2-12.6-62.1c2.4,2.7,12.6,12.9,29,14.3c21.3,1.8,35.2-12.9,36.9-14.7c7.1,52.7,28.6,102.4,62.1,144.5
c49.4,61.8,119.8,100.6,198.4,109.4c11.1,1.3,22.3,1.8,33.4,1.8c66.8,0,131.3-22.4,184.2-64.8c44.1-35.3,77-81.9,95.2-134.8
c2.5-7.2,4.7-14.7,6.6-22c3.4-13.3,5.9-27.1,7.5-40.8l0.1-0.8c0.9-8.7,5.3-16.5,12.1-21.9c6.9-5.4,15.3-8,24-7
C828.1,485.5,841.1,501.5,839.3,519.3z"/>
</g>
</g>
</g>
</svg>