<svg width="25" height="20" viewBox="0 0 25 20" fill="#AB9FF2" xmlns="http://www.w3.org/2000/svg">
<g clip-path="url(#clip0_9059_26867)">
<path d="M3.31463 20C6.37951 20 8.6828 17.3346 10.0574 15.2283C9.89018 15.6943 9.79728 16.1603 9.79728 16.6076C9.79728 17.8379 10.5032 18.7139 11.8963 18.7139C13.8095 18.7139 15.8527 17.0364 16.9115 15.2283C16.8372 15.4893 16.8001 15.7316 16.8001 15.9553C16.8001 16.8127 17.283 17.3532 18.2675 17.3532C21.3695 17.3532 24.4901 11.8546 24.4901 7.04568C24.4901 3.29916 22.5955 0 17.8403 0C9.48154 0 0.472656 10.2144 0.472656 16.8127C0.472656 19.4035 1.86578 20 3.31463 20ZM14.9611 6.63562C14.9611 5.70365 15.4813 5.05128 16.2428 5.05128C16.9858 5.05128 17.5059 5.70365 17.5059 6.63562C17.5059 7.56759 16.9858 8.23858 16.2428 8.23858C15.4813 8.23858 14.9611 7.56759 14.9611 6.63562ZM18.9362 6.63562C18.9362 5.70365 19.4563 5.05128 20.2178 5.05128C20.9608 5.05128 21.481 5.70365 21.481 6.63562C21.481 7.56759 20.9608 8.23858 20.2178 8.23858C19.4563 8.23858 18.9362 7.56759 18.9362 6.63562Z" fill="#AB9FF2"/>
</g>
<defs>
<clipPath id="clip0_9059_26867">
<rect width="24.0568" height="20" fill="#AB9FF2" transform="translate(0.472656)"/>
</clipPath>
</defs>
</svg>
