<svg xmlns="http://www.w3.org/2000/svg" width="32" height="32" viewBox="0 0 32 32" fill="none">
<rect width="32" height="32" rx="10" fill="#3A466B"/>
<path d="M16.75 8.75C16.75 8.33579 16.4142 8 16 8C15.5858 8 15.25 8.33579 15.25 8.75V15.25H8.75C8.33579 15.25 8 15.5858 8 16C8 16.4142 8.33579 16.75 8.75 16.75H15.25V23.25C15.25 23.6642 15.5858 24 16 24C16.4142 24 16.75 23.6642 16.75 23.25V16.75H23.25C23.6642 16.75 24 16.4142 24 16C24 15.5858 23.6642 15.25 23.25 15.25H16.75V8.75Z" fill="#2EE09A"/>
</svg>