<svg width="22" height="22" viewBox="0 0 22 22" fill="none" xmlns="http://www.w3.org/2000/svg">
<path d="M4.06122 7.12245L3.08163 9.16327L1 9.65306V12.3061L3.08163 12.9592L4.06122 15L2.59184 17.0816L4.71429 18.7143L6.87755 17.7347L8.83673 18.7143L9.40816 21H12.2245L12.8776 18.7143L14.7551 17.7347L17.0816 19.1224L19.0408 17.0816L17.6531 15L18.551 12.9592L21 12.3061V9.65306L19.0408 9.16327L17.6531 7.12245L19.0408 5.04082L17.0816 2.7551L14.7551 4.14286L12.8776 3.32653L12.2245 1H9.40816L8.83673 3.32653L6.87755 4.14286L4.71429 2.7551L2.59184 5.04082L4.06122 7.12245Z" stroke="#7F768F"/>
<circle cx="11.0409" cy="11.0408" r="3.82653" stroke="#7F768F"/>
</svg>
