<svg width="24" height="24" viewBox="0 0 24 24" fill="none" xmlns="http://www.w3.org/2000/svg">
<path fill-rule="evenodd" clip-rule="evenodd" d="M14.1172 0H9.88231V3.07071C8.67384 3.35608 7.55769 3.88039 6.58647 4.59104L3.9945 1.99907L0.999958 4.99361L3.82824 7.82189C3.49715 8.46793 3.24043 9.15837 3.06937 9.88193H0V14.1168L3.06862 14.1168C3.23876 14.8377 3.49392 15.5257 3.82294 16.1697L0.999958 18.9927L3.9945 21.9873L6.57743 19.4043C7.55077 20.1183 8.6701 20.645 9.88231 20.9313V24H14.1172V20.931C15.0855 20.7022 15.9944 20.32 16.817 19.8115L18.9928 21.9873L21.9873 18.9927L19.8111 16.8165C20.3193 15.9939 20.7011 15.085 20.9296 14.1168L23.9989 14.1168V9.88193H20.9289C20.6994 8.91121 20.3157 8.00008 19.8051 7.17583L21.9873 4.99361L18.9928 1.99907L16.8074 4.18452C15.9873 3.67899 15.0817 3.29891 14.1172 3.07102V0ZM12.0001 15.9993C14.2091 15.9993 15.9998 14.2086 15.9998 11.9996C15.9998 9.7907 14.2091 8 12.0001 8C9.79119 8 8.00049 9.7907 8.00049 11.9996C8.00049 14.2086 9.79119 15.9993 12.0001 15.9993Z" fill="white"/>
</svg>
