<svg width="24" height="24" viewBox="0 0 24 24" fill="none" xmlns="http://www.w3.org/2000/svg">
<g clip-path="url(#clip0_13418_26789)">
<path d="M12 0.923077C12.5077 0.923077 13.1077 1.50462 13.6893 2.07692C14.2431 2.62154 14.8247 3.17538 15.5262 3.47077C16.2554 3.77538 17.0862 3.79385 17.88 3.81231C18.6739 3.83077 19.4954 3.84923 19.8185 4.17231C20.1416 4.49538 20.16 5.31692 20.1785 6.11077C20.197 6.91385 20.2154 7.73538 20.52 8.46461C20.8154 9.16615 21.3693 9.74769 21.9139 10.3015C22.477 10.8831 23.0677 11.4923 23.0677 11.9908C23.0677 12.4892 22.4862 13.0985 21.9139 13.68C21.3693 14.2431 20.8154 14.8154 20.52 15.5169C20.2154 16.2462 20.197 17.0769 20.1785 17.8708C20.16 18.6646 20.1416 19.4862 19.8185 19.8092C19.4954 20.1323 18.6739 20.1508 17.88 20.1692C17.077 20.1877 16.2554 20.2062 15.5262 20.5108C14.8247 20.8062 14.2431 21.36 13.6893 21.9046C13.1077 22.4677 12.4985 23.0585 12 23.0585C11.5016 23.0585 10.8924 22.4769 10.3108 21.9046C9.74774 21.36 9.17543 20.8062 8.47389 20.5108C7.74466 20.2062 6.91389 20.1877 6.12005 20.1692C5.3262 20.1508 4.50466 20.1323 4.18158 19.8092C3.85851 19.4862 3.84005 18.6646 3.82158 17.8708C3.80312 17.0677 3.78466 16.2462 3.48005 15.5169C3.18466 14.8154 2.63082 14.2338 2.0862 13.68C1.52312 13.0985 0.932354 12.4892 0.932354 11.9908C0.932354 11.4923 1.51389 10.8831 2.0862 10.3015C2.63082 9.73846 3.18466 9.16615 3.48005 8.46461C3.78466 7.73538 3.80312 6.90461 3.82158 6.10154C3.84005 5.30769 3.85851 4.48615 4.18158 4.16308C4.50466 3.84 5.3262 3.82154 6.12005 3.80308C6.92312 3.78462 7.74466 3.76615 8.47389 3.46154C9.17543 3.16615 9.75697 2.61231 10.3108 2.06769C10.8924 1.50462 11.5016 0.913846 12 0.913846M12 0C10.4954 0 9.41543 2.07692 8.11389 2.61231C6.75697 3.17538 4.53235 2.49231 3.51697 3.50769C2.49235 4.52308 3.18466 6.75692 2.62158 8.10461C2.07697 9.41538 0.00927734 10.4862 0.00927734 11.9908C0.00927734 13.4954 2.0862 14.5754 2.62158 15.8769C3.18466 17.2338 2.50158 19.4585 3.51697 20.4738C4.53235 21.4892 6.7662 20.8154 8.11389 21.3692C9.42466 21.9138 10.4954 23.9815 12 23.9815C13.5047 23.9815 14.5847 21.9046 15.8862 21.3692C17.2431 20.8062 19.4677 21.4892 20.4831 20.4738C21.5077 19.4585 20.8247 17.2246 21.3785 15.8769C21.9231 14.5662 23.9908 13.4954 23.9908 11.9908C23.9908 10.4862 21.9139 9.40615 21.3785 8.10461C20.8154 6.74769 21.4985 4.52308 20.4831 3.50769C19.4585 2.48308 17.2339 3.16615 15.8862 2.61231C14.5847 2.06769 13.5047 0 12 0Z" fill="white"/>
<path d="M11.9999 8.45628C13.9568 8.45628 15.5445 10.044 15.5445 12.0009C15.5445 13.9578 13.9568 15.5455 11.9999 15.5455C10.043 15.5455 8.4553 13.9578 8.4553 12.0009C8.4553 10.044 10.043 8.45628 11.9999 8.45628ZM11.9999 7.5332C9.5353 7.5332 7.53223 9.53628 7.53223 12.0009C7.53223 14.4655 9.5353 16.4686 11.9999 16.4686C14.4645 16.4686 16.4676 14.4655 16.4676 12.0009C16.4676 9.53628 14.4645 7.5332 11.9999 7.5332Z" fill="white"/>
</g>
<defs>
<clipPath id="clip0_13418_26789">
<rect width="24" height="24" fill="white"/>
</clipPath>
</defs>
</svg>
