<svg width="19" height="19" viewBox="0 0 19 19" fill="none" xmlns="http://www.w3.org/2000/svg">
<circle cx="9.5" cy="9.5" r="7.5" fill="url(#paint0_radial_790_1789)"/>
<g filter="url(#filter0_d_790_1789)">
<path fill-rule="evenodd" clip-rule="evenodd" d="M9.5 15.5C12.8137 15.5 15.5 12.8137 15.5 9.5C15.5 6.18629 12.8137 3.5 9.5 3.5C6.18629 3.5 3.5 6.18629 3.5 9.5C3.5 12.8137 6.18629 15.5 9.5 15.5ZM9.5 17C13.6421 17 17 13.6421 17 9.5C17 5.35786 13.6421 2 9.5 2C5.35786 2 2 5.35786 2 9.5C2 13.6421 5.35786 17 9.5 17Z" fill="url(#paint1_linear_790_1789)"/>
</g>
<path d="M6.91903 11.0873C6.9643 11.042 7.02655 11.0156 7.09256 11.0156H13.0792C13.1886 11.0156 13.2433 11.1477 13.166 11.225L11.9834 12.4076C11.9381 12.4529 11.8759 12.4793 11.8098 12.4793H5.82318C5.71378 12.4793 5.65908 12.3473 5.73641 12.2699L6.91903 11.0873Z" fill="white"/>
<path d="M6.91806 6.67177C6.96521 6.6265 7.02746 6.6001 7.09158 6.6001H13.0783C13.1877 6.6001 13.2424 6.73213 13.165 6.80946L11.9824 7.99208C11.9371 8.03735 11.8749 8.06376 11.8089 8.06376H5.8222C5.7128 8.06376 5.6581 7.93173 5.73544 7.85439L6.91806 6.67177Z" fill="white"/>
<path d="M11.9834 8.86562C11.9381 8.82035 11.8759 8.79395 11.8098 8.79395H5.82318C5.71378 8.79395 5.65908 8.92598 5.73641 9.00331L6.91903 10.1859C6.9643 10.2312 7.02655 10.2576 7.09256 10.2576H13.0792C13.1886 10.2576 13.2433 10.1256 13.166 10.0482L11.9834 8.86562Z" fill="white"/>
<defs>
<filter id="filter0_d_790_1789" x="0" y="0" width="19" height="19" filterUnits="userSpaceOnUse" color-interpolation-filters="sRGB">
<feFlood flood-opacity="0" result="BackgroundImageFix"/>
<feColorMatrix in="SourceAlpha" type="matrix" values="0 0 0 0 0 0 0 0 0 0 0 0 0 0 0 0 0 0 127 0" result="hardAlpha"/>
<feOffset/>
<feGaussianBlur stdDeviation="1"/>
<feComposite in2="hardAlpha" operator="out"/>
<feColorMatrix type="matrix" values="0 0 0 0 0.611765 0 0 0 0 0.905882 0 0 0 0 0.352941 0 0 0 0.5 0"/>
<feBlend mode="normal" in2="BackgroundImageFix" result="effect1_dropShadow_790_1789"/>
<feBlend mode="normal" in="SourceGraphic" in2="effect1_dropShadow_790_1789" result="shape"/>
</filter>
<radialGradient id="paint0_radial_790_1789" cx="0" cy="0" r="1" gradientUnits="userSpaceOnUse" gradientTransform="translate(9.5 2.5625) rotate(90) scale(14.4375)">
<stop stop-color="#7748D8"/>
<stop offset="1" stop-color="#4D2F8C"/>
</radialGradient>
<linearGradient id="paint1_linear_790_1789" x1="4.45" y1="4" x2="14.35" y2="14.9" gradientUnits="userSpaceOnUse">
<stop stop-color="#9DD46D"/>
<stop offset="1" stop-color="#E5FFCF"/>
</linearGradient>
</defs>
</svg>
