<svg width="28" height="24" viewBox="0 0 28 24" fill="none" xmlns="http://www.w3.org/2000/svg">
<path d="M27.8558 18.9223L23.2336 23.6731C23.1331 23.7763 23.0115 23.8586 22.8764 23.9149C22.7413 23.9711 22.5956 24.0001 22.4483 24H0.53661C0.432057 24 0.329782 23.9707 0.242353 23.9158C0.154923 23.8608 0.0861457 23.7826 0.0444718 23.6907C0.00279787 23.5988 -0.00995749 23.4973 0.00777297 23.3985C0.0255034 23.2997 0.0729472 23.2081 0.144275 23.1349L4.77001 18.384C4.87023 18.2811 4.9914 18.199 5.12605 18.1427C5.26073 18.0865 5.406 18.0574 5.5529 18.0571H27.4634C27.5679 18.0571 27.6702 18.0864 27.7577 18.1414C27.845 18.1963 27.9138 18.2746 27.9556 18.3664C27.9972 18.4583 28.01 18.5599 27.9922 18.6586C27.9745 18.7574 27.9271 18.849 27.8558 18.9223ZM23.2336 9.35542C23.1331 9.25222 23.0115 9.16994 22.8764 9.1137C22.7413 9.05749 22.5956 9.0285 22.4483 9.02858H0.53661C0.432057 9.02858 0.329782 9.05785 0.242353 9.1128C0.154923 9.16776 0.0861457 9.24597 0.0444718 9.33785C0.00279787 9.42976 -0.00995749 9.53133 0.00777297 9.63008C0.0255034 9.72881 0.0729472 9.82045 0.144275 9.89373L4.77001 14.6446C4.87023 14.7475 4.9914 14.8296 5.12605 14.8858C5.26073 14.942 5.406 14.9712 5.5529 14.9714H27.4634C27.5679 14.9714 27.6702 14.9422 27.7577 14.8872C27.845 14.8322 27.9138 14.754 27.9556 14.6621C27.9972 14.5702 28.01 14.4687 27.9922 14.3699C27.9745 14.2712 27.9271 14.1796 27.8558 14.1063L23.2336 9.35542ZM0.53661 5.94286H22.4483C22.5956 5.94292 22.7413 5.91395 22.8764 5.85772C23.0115 5.80148 23.1331 5.7192 23.2336 5.616L27.8558 0.865143C27.9271 0.791883 27.9745 0.700249 27.9922 0.6015C28.01 0.502751 27.9972 0.40119 27.9556 0.309295C27.9138 0.217399 27.845 0.139172 27.7577 0.0842245C27.6702 0.029277 27.5679 3.38384e-06 27.4634 0H5.5529C5.406 0.000239563 5.26073 0.0293725 5.12605 0.0855949C4.9914 0.141818 4.87023 0.223933 4.77001 0.326858L0.145468 5.07772C0.0742086 5.15089 0.0267857 5.24245 0.00901503 5.34106C-0.00875566 5.43971 0.00389849 5.54119 0.0454254 5.63305C0.0869525 5.7249 0.155547 5.80312 0.242797 5.85815C0.330048 5.91319 0.432159 5.94262 0.53661 5.94286Z" fill="white"/>
</svg>
