<svg width="24" height="22" viewBox="0 0 24 22" fill="none" xmlns="http://www.w3.org/2000/svg">
<g filter="url(#filter0_d_8385_11413)">
<path fill-rule="evenodd" clip-rule="evenodd" d="M6.74747 14.4581C6.80047 14.4037 6.86104 14.3637 6.92918 14.3347C6.99732 14.3056 7.07303 14.2875 7.14874 14.2875H19.7207C19.7737 14.2875 19.8267 14.302 19.8684 14.331C19.9138 14.3601 19.9479 14.4 19.9668 14.4436C19.9895 14.4908 19.9933 14.5417 19.9857 14.5925C19.9782 14.6433 19.9517 14.6905 19.9176 14.7269L17.2525 17.5447C17.1995 17.5992 17.139 17.6392 17.0708 17.6682C17.0027 17.6973 16.927 17.7154 16.8513 17.7154H4.27547C4.22247 17.7154 4.16947 17.7009 4.12783 17.6718C4.0824 17.6428 4.04833 17.6028 4.0294 17.5593C4.00669 17.5121 4.0029 17.4612 4.01047 17.4104C4.01804 17.3595 4.04454 17.3123 4.07861 17.276L6.75125 14.4581H6.74747ZM19.929 12.1232C19.963 12.1595 19.9895 12.2067 19.9971 12.2576C20.0047 12.3084 19.9971 12.3593 19.9782 12.4065C19.9555 12.4537 19.9214 12.4936 19.8797 12.519C19.8343 12.5481 19.7851 12.5626 19.7321 12.5626L7.15631 12.5735C7.0806 12.5735 7.00489 12.5553 6.93675 12.5263C6.86861 12.4972 6.80804 12.4537 6.75504 12.4028L4.07104 9.5922C4.03697 9.55589 4.01047 9.50868 4.0029 9.45784C3.99533 9.407 4.0029 9.35617 4.02183 9.30896C4.04454 9.26175 4.07861 9.22181 4.12026 9.19639C4.16568 9.16734 4.2149 9.15281 4.26789 9.15281L16.8437 9.14192C16.9194 9.14192 16.9951 9.16008 17.0633 9.18913C17.1314 9.21818 17.192 9.26175 17.245 9.31259L19.929 12.1196V12.1232ZM6.74747 4.17067C6.80047 4.1162 6.86104 4.07626 6.92918 4.04721C6.99732 4.01816 7.07303 4 7.14874 4L19.7283 4.01089C19.7813 4.01089 19.8343 4.02542 19.876 4.05447C19.9214 4.08352 19.9555 4.12346 19.9744 4.16704C19.9971 4.21425 20.0009 4.26508 19.9933 4.31592C19.9857 4.36676 19.9592 4.41397 19.9252 4.45028L17.2525 7.25728C17.1995 7.31174 17.139 7.35169 17.0708 7.38074C17.0027 7.40979 16.927 7.42795 16.8513 7.42795H4.27547C4.22247 7.42795 4.16947 7.41342 4.12783 7.38437C4.0824 7.35532 4.04833 7.31538 4.0294 7.2718C4.00669 7.22459 4.0029 7.17376 4.01047 7.12292C4.01804 7.07208 4.04454 7.02487 4.07861 6.98856L6.74747 4.17067Z" stroke="#2EE09A" stroke-width="0.6"/>
</g>
<defs>
<filter id="filter0_d_8385_11413" x="0.699951" y="0.699951" width="22.6001" height="20.3154" filterUnits="userSpaceOnUse" color-interpolation-filters="sRGB">
<feFlood flood-opacity="0" result="BackgroundImageFix"/>
<feColorMatrix in="SourceAlpha" type="matrix" values="0 0 0 0 0 0 0 0 0 0 0 0 0 0 0 0 0 0 1 0" result="hardAlpha"/>
<feOffset/>
<feGaussianBlur stdDeviation="1.5"/>
<feColorMatrix type="matrix" values="0 0 0 0 0.180392 0 0 0 0 0.878431 0 0 0 0 0.603922 0 0 0 0.8 0"/>
<feBlend mode="normal" in2="BackgroundImageFix" result="effect1_dropShadow_8385_11413"/>
<feBlend mode="normal" in="SourceGraphic" in2="effect1_dropShadow_8385_11413" result="shape"/>
</filter>
</defs>
</svg>
