<svg width="18" height="15" viewBox="0 0 18 15" fill="none" xmlns="http://www.w3.org/2000/svg">
<path d="M17.9073 11.6149L14.9359 14.7821C14.8713 14.8509 14.7931 14.9057 14.7063 14.9432C14.6194 14.9807 14.5257 15.0001 14.4311 15H0.344964C0.27775 15 0.212002 14.9805 0.155798 14.9439C0.0995932 14.9072 0.0553794 14.8551 0.028589 14.7938C0.00179863 14.7325 -0.00640124 14.6648 0.0049969 14.599C0.016395 14.5332 0.0468946 14.4721 0.0927484 14.4232L3.06643 11.256C3.13086 11.1874 3.20876 11.1326 3.29532 11.0952C3.38189 11.0577 3.47528 11.0383 3.56972 11.0381H17.655C17.7222 11.0381 17.788 11.0576 17.8442 11.0942C17.9004 11.1309 17.9446 11.183 17.9715 11.2443C17.9982 11.3056 18.0064 11.3733 17.995 11.4391C17.9836 11.5049 17.9531 11.566 17.9073 11.6149ZM14.9359 5.23695C14.8713 5.16815 14.7931 5.11329 14.7063 5.0758C14.6194 5.03833 14.5257 5.019 14.4311 5.01905H0.344964C0.27775 5.01905 0.212002 5.03856 0.155798 5.0752C0.0995932 5.11184 0.0553794 5.16398 0.028589 5.22524C0.00179863 5.28651 -0.00640124 5.35422 0.0049969 5.42005C0.016395 5.48587 0.0468946 5.54696 0.0927484 5.59582L3.06643 8.76305C3.13086 8.83167 3.20876 8.8864 3.29532 8.92389C3.38189 8.96136 3.47528 8.9808 3.56972 8.98095H17.655C17.7222 8.98095 17.788 8.96144 17.8442 8.9248C17.9004 8.88816 17.9446 8.83602 17.9715 8.77476C17.9982 8.71349 18.0064 8.64578 17.995 8.57995C17.9836 8.51413 17.9531 8.45304 17.9073 8.40418L14.9359 5.23695ZM0.344964 2.96191H14.4311C14.5257 2.96195 14.6194 2.94264 14.7063 2.90515C14.7931 2.86765 14.8713 2.8128 14.9359 2.744L17.9073 -0.423238C17.9531 -0.472078 17.9836 -0.533167 17.995 -0.599C18.0064 -0.664833 17.9982 -0.73254 17.9715 -0.793804C17.9446 -0.855067 17.9004 -0.907219 17.8442 -0.94385C17.788 -0.980482 17.7222 -0.999998 17.655 -1H3.56972C3.47528 -0.99984 3.38189 -0.980418 3.29532 -0.942937C3.20876 -0.905455 3.13086 -0.850711 3.06643 -0.782095L0.0935149 2.38515C0.0477055 2.43393 0.0172194 2.49496 0.00579537 2.56071C-0.00562863 2.62647 0.00250617 2.69413 0.029202 2.75536C0.055898 2.8166 0.0999946 2.86875 0.156084 2.90544C0.212174 2.94213 0.277816 2.96175 0.344964 2.96191Z" fill="#2EE09A"/>
</svg>
