<svg width="154" height="154" viewBox="0 0 154 154" fill="none" xmlns="http://www.w3.org/2000/svg">
<circle cx="77" cy="77" r="75" fill="url(#paint0_radial_25:803)"/>
<g filter="url(#filter0_d_25:803)">
<path fill-rule="evenodd" clip-rule="evenodd" d="M77 137C110.137 137 137 110.137 137 77C137 43.8629 110.137 17 77 17C43.8629 17 17 43.8629 17 77C17 110.137 43.8629 137 77 137ZM77 152C118.421 152 152 118.421 152 77C152 35.5786 118.421 2 77 2C35.5786 2 2 35.5786 2 77C2 118.421 35.5786 152 77 152Z" fill="url(#paint1_linear_25:803)"/>
</g>
<path d="M51.1884 92.8718C51.6411 92.4191 52.2635 92.155 52.9237 92.155H112.79C113.884 92.155 114.431 93.4753 113.658 94.2487L101.832 106.075C101.379 106.528 100.757 106.792 100.097 106.792H40.2298C39.1358 106.792 38.5888 105.471 39.3622 104.698L51.1884 92.8718Z" fill="white"/>
<path d="M51.1884 48.7167C51.6599 48.2641 52.2824 48 52.9237 48H112.79C113.884 48 114.431 49.3203 113.658 50.0936L101.832 61.9199C101.379 62.3725 100.757 62.6366 100.097 62.6366H40.2298C39.1358 62.6366 38.5888 61.3163 39.3622 60.543L51.1884 48.7167Z" fill="white"/>
<path d="M101.832 70.6528C101.379 70.2001 100.757 69.936 100.097 69.936H40.2298C39.1358 69.936 38.5888 71.2563 39.3622 72.0297L51.1884 83.8559C51.6411 84.3086 52.2635 84.5726 52.9237 84.5726H112.79C113.884 84.5726 114.431 83.2523 113.658 82.479L101.832 70.6528Z" fill="white"/>
<defs>
<filter id="filter0_d_25:803" x="0" y="0" width="154" height="154" filterUnits="userSpaceOnUse" color-interpolation-filters="sRGB">
<feFlood flood-opacity="0" result="BackgroundImageFix"/>
<feColorMatrix in="SourceAlpha" type="matrix" values="0 0 0 0 0 0 0 0 0 0 0 0 0 0 0 0 0 0 127 0" result="hardAlpha"/>
<feOffset/>
<feGaussianBlur stdDeviation="1"/>
<feComposite in2="hardAlpha" operator="out"/>
<feColorMatrix type="matrix" values="0 0 0 0 0.611765 0 0 0 0 0.905882 0 0 0 0 0.352941 0 0 0 0.5 0"/>
<feBlend mode="normal" in2="BackgroundImageFix" result="effect1_dropShadow_25:803"/>
<feBlend mode="normal" in="SourceGraphic" in2="effect1_dropShadow_25:803" result="shape"/>
</filter>
<radialGradient id="paint0_radial_25:803" cx="0" cy="0" r="1" gradientUnits="userSpaceOnUse" gradientTransform="translate(77 7.625) rotate(90) scale(144.375)">
<stop stop-color="#7748D8"/>
<stop offset="1" stop-color="#4D2F8C"/>
</radialGradient>
<linearGradient id="paint1_linear_25:803" x1="26.5" y1="22" x2="125.5" y2="131" gradientUnits="userSpaceOnUse">
<stop stop-color="#9DD46D"/>
<stop offset="1" stop-color="#E5FFCF"/>
</linearGradient>
</defs>
</svg>
