<svg width="21" height="20" viewBox="0 0 21 20" fill="#FE9C15" xmlns="http://www.w3.org/2000/svg">
<path d="M10.6536 19.2446C10.8645 19.2446 11.0354 19.4137 11.0354 19.6223C11.0354 19.8309 10.8645 20 10.6536 20C10.4427 20 10.2717 19.8309 10.2717 19.6223C10.2717 19.4137 10.4427 19.2446 10.6536 19.2446ZM10.2387 1.20293C10.4253 1.21834 10.5761 1.35975 10.6013 1.54307L11.0555 4.84316C11.208 5.93347 12.523 6.40586 13.3347 5.66495L17.8854 1.52302C17.9952 1.42311 18.1661 1.43003 18.2673 1.53848C18.36 1.63799 18.3628 1.79032 18.2738 1.89307L14.3055 6.47053C13.5749 7.31174 14.114 8.62527 15.2276 8.71906L18.7289 9.05657C18.9033 9.07339 19.0309 9.22669 19.0139 9.39897C18.9998 9.54106 18.8904 9.65583 18.7476 9.67811L15.0685 10.2526C14.0003 10.3982 13.5165 11.6632 14.2114 12.4849L15.5048 14.0098C15.609 14.1326 15.5926 14.3157 15.4683 14.4186C15.363 14.5058 15.2104 14.5092 15.1012 14.4268L13.5068 13.2226C12.6464 12.5755 11.4061 13.1255 11.3152 14.1964L10.9638 18.3729C10.9493 18.5454 10.796 18.6736 10.6214 18.6593C10.4732 18.6471 10.3535 18.5349 10.3334 18.3893L9.77621 14.3549C9.62687 13.2647 8.31193 12.7923 7.49696 13.5332L2.65594 17.9412C2.55573 18.0324 2.39963 18.0261 2.30728 17.9271C2.22256 17.8363 2.21998 17.6972 2.30129 17.6034L6.52621 12.7276C7.25674 11.8864 6.72103 10.5728 5.60731 10.4791L2.10521 10.1415C1.93083 10.1247 1.80326 9.97136 1.82027 9.79908C1.83431 9.65699 1.94375 9.54223 2.08647 9.51995L5.76318 8.94554C6.8314 8.79993 7.31843 7.53499 6.62362 6.71317L5.74316 5.67521C5.61393 5.52288 5.63417 5.2959 5.78835 5.16824C5.91905 5.06004 6.10822 5.0559 6.24363 5.15826L7.3249 5.97553C8.18531 6.62261 9.42556 6.07262 9.5165 5.00173L9.80734 1.56338C9.8257 1.34616 10.0189 1.18477 10.2387 1.20293ZM0.924832 9.41312C1.13573 9.41312 1.3067 9.58224 1.3067 9.7908C1.3067 9.99939 1.13573 10.1685 0.924832 10.1685C0.713935 10.1685 0.542969 9.99939 0.542969 9.7908C0.542969 9.58224 0.713935 9.41312 0.924832 9.41312ZM20.0768 9.02961C20.2877 9.02961 20.4586 9.19873 20.4586 9.40732C20.4586 9.61591 20.2877 9.78499 20.0768 9.78499C19.8659 9.78499 19.6949 9.61591 19.6949 9.40732C19.6949 9.19873 19.8659 9.02961 20.0768 9.02961ZM10.1836 0C10.3945 0 10.5654 0.169096 10.5654 0.377686C10.5654 0.586277 10.3945 0.755375 10.1836 0.755375C9.97266 0.755375 9.8017 0.586277 9.8017 0.377686C9.8017 0.169096 9.97266 0 10.1836 0Z" fill="#FE9C15"/>
</svg>
