<svg width="22" height="23" viewBox="0 0 22 23" fill="none" xmlns="http://www.w3.org/2000/svg">
<g filter="url(#filter0_d_13807_41990)">
<mask id="path-1-inside-1_13807_41990" fill="white">
<path fill-rule="evenodd" clip-rule="evenodd" d="M5.92536 9.69457L6.92747 8.41271C7.25667 7.99179 7.62024 7.58004 8.01589 7.18356C9.61071 5.5885 11.4675 4.51213 13.209 4.08205C14.9352 3.65578 16.6682 3.84599 17.8292 4.98347C17.8399 4.9934 17.8498 5.00333 17.8598 5.01403C17.8735 5.02778 17.8873 5.04229 17.901 5.05681C19.0299 6.22026 19.2163 7.95054 18.7893 9.67394C18.3578 11.4134 17.2823 13.2674 15.6898 14.8602C15.2934 15.2567 14.8825 15.6195 14.4608 15.9488L13.1792 16.9511L13.3694 15.4507C13.07 15.7349 12.7644 16.0114 12.4536 16.2788C11.0512 17.4827 9.59237 18.4514 8.25267 19.0495L6.65327 19.7638L7.41936 18.048C6.73576 18.4583 6.13312 18.7677 5.63588 18.9968C5.16996 19.2115 4.79646 19.3566 4.53524 19.4483C4.40463 19.4941 4.30228 19.527 4.22972 19.5491C4.19382 19.5598 4.16556 19.5682 4.14494 19.5744C4.13501 19.5774 4.12661 19.5797 4.1205 19.5812C4.11744 19.582 4.11439 19.5828 4.11286 19.5835H4.1098L4.10828 19.585C4.10828 19.585 4.05201 19.3689 3.93948 18.9365C3.93948 18.9365 4.22743 18.8616 4.73994 18.6554C5.43576 18.375 6.54633 17.8517 7.91277 16.9442C8.25496 16.7173 8.61242 16.466 8.98439 16.1887L7.97999 18.4376C8.2878 18.3001 8.60401 18.1412 8.92634 17.9617C9.92768 17.4056 10.984 16.6577 12.0182 15.77C12.5315 15.3292 13.0302 14.8617 13.5069 14.3759C13.775 14.1024 14.0362 13.8236 14.2882 13.5409L14.0499 15.4209C14.3058 15.2208 14.5586 15.0069 14.8069 14.78C14.9451 14.6532 15.0826 14.5218 15.2178 14.3866C18.2585 11.3454 19.2369 7.38753 17.4183 5.51974C17.4084 5.50905 17.3977 5.49835 17.3877 5.48766C17.3801 5.48002 17.3725 5.47238 17.3648 5.46474C15.5011 3.63439 11.537 4.61144 8.49097 7.65719C8.35578 7.79241 8.22441 7.92991 8.09761 8.06818C7.87077 8.31569 7.6569 8.56855 7.45678 8.82523L9.33574 8.58688C9.05237 8.83898 8.77358 9.10024 8.50014 9.36838C8.01436 9.84506 7.54691 10.3439 7.1062 10.8573C6.2179 11.8916 5.4709 12.9481 4.91485 13.9496C4.73612 14.2712 4.57725 14.5882 4.439 14.8961L6.69146 13.89C6.4142 14.2613 6.16367 14.6188 5.93682 14.961C5.03019 16.3277 4.50545 17.4407 4.22361 18.1374C4.01662 18.6492 3.941 18.9365 3.941 18.9365C3.5092 18.8224 3.2933 18.7651 3.2933 18.7646V18.7631L3.29483 18.76C3.29483 18.7577 3.29636 18.7554 3.29712 18.7524C3.29865 18.7463 3.30094 18.7379 3.30399 18.7279C3.3101 18.7073 3.31851 18.679 3.3292 18.6431C3.35135 18.5713 3.38496 18.4682 3.43155 18.3376C3.52473 18.0755 3.67062 17.702 3.88601 17.2352C4.11591 16.7379 4.42525 16.1359 4.83465 15.4538L3.11457 16.2223L3.82873 14.6226C4.42678 13.2827 5.39528 11.8229 6.59904 10.4211C6.86637 10.1101 7.14286 9.80381 7.427 9.50512L5.92765 9.69533L5.92536 9.69457ZM3.94024 18.9357L4.10904 19.5843L3 19.873L3.29254 18.7646L3.94024 18.9357Z"/>
<path d="M4.29803 5.14116C5.42086 4.01777 7.05173 3.87731 8.87702 4.48941C9.62568 4.74047 10.4055 5.11779 11.1937 5.6043C11.2091 5.59581 11.2245 5.58737 11.2399 5.57898C8.51311 3.88916 5.87756 3.49601 4.26562 5.10875C2.45308 6.92157 3.17463 10.027 5.42311 13.1017C5.43194 13.0879 5.4408 13.0741 5.4497 13.0604C4.62338 11.928 4.00561 10.7927 3.64637 9.72115C3.03437 7.89568 3.17481 6.26455 4.29803 5.14116Z"/>
<path d="M6.25485 14.0846L6.21131 14.1041C6.26881 14.1724 6.32703 14.2406 6.38594 14.3087C6.39505 14.296 6.40419 14.2832 6.41337 14.2704C6.35995 14.2085 6.30711 14.1466 6.25485 14.0846Z"/>
<path d="M8.60351 16.467C8.59072 16.4762 8.57795 16.4853 8.5652 16.4945C8.63327 16.5538 8.70145 16.6124 8.7697 16.6703L8.78917 16.6267C8.72721 16.5741 8.66532 16.5208 8.60351 16.467Z"/>
<path d="M9.80519 17.4333C9.79144 17.4422 9.7777 17.451 9.76396 17.4598C12.8444 19.7386 15.9539 20.489 17.7987 18.6439C19.4417 17.0006 19.0263 14.3541 17.3062 11.6183C17.2978 11.6337 17.2894 11.649 17.281 11.6644C17.783 12.4658 18.172 13.2588 18.4294 14.0201C19.0451 15.8415 18.9048 17.4727 17.7663 18.6115C16.6277 19.7502 14.9967 19.8905 13.1756 19.2747C12.0939 18.9089 10.9482 18.2771 9.80519 17.4333Z"/>
<path d="M15.1926 14.4094C15.2471 14.5312 15.296 14.6493 15.3392 14.7632C15.4882 15.1513 15.5684 15.4881 15.5905 15.7341C15.6027 15.8602 15.5997 15.9595 15.5913 16.0313C16.3742 16.1726 17.2128 16.1741 18.0904 15.9664C18.0981 15.3934 17.985 14.8251 17.7964 14.2445C17.6566 13.8182 17.4733 13.3851 17.251 12.945C17.1431 12.7319 17.0261 12.5173 16.9003 12.3015C16.4416 13.019 15.8777 13.7241 15.2163 14.3858C15.2084 14.3937 15.2005 14.4016 15.1926 14.4094Z"/>
<path d="M10.5672 5.9768C9.92782 5.60629 9.29923 5.31349 8.68727 5.10875C8.10678 4.91624 7.53775 4.80013 6.9649 4.80089C6.95964 4.80089 6.95402 4.80126 6.9483 4.80164C6.94238 4.80202 6.93635 4.80242 6.93053 4.80242C6.72277 5.68016 6.7243 6.51895 6.86484 7.30197C6.88088 7.29967 6.89845 7.29815 6.91831 7.29662C7.11231 7.2821 7.45908 7.32488 7.88604 7.46621C8.06345 7.52488 8.25545 7.59903 8.45814 7.68867C8.46855 7.67817 8.47899 7.66768 8.48945 7.65719C9.14918 6.99752 9.85199 6.43489 10.5672 5.9768Z"/>
<path d="M6.47912 7.89477C6.50891 8.13846 6.58834 8.45778 6.72735 8.82141C6.86102 9.17358 7.05044 9.567 7.28798 9.98333C7.89673 11.0994 8.6613 11.9833 9.1868 12.5432C9.37011 12.7434 9.55953 12.9435 9.75736 13.1414C9.94525 13.3293 10.1347 13.5088 10.3241 13.683C10.884 14.2109 11.7868 14.9977 12.931 15.6195C13.0768 15.7028 13.2212 15.7815 13.361 15.8533C13.71 16.0305 14.0385 16.1665 14.3287 16.262C14.5869 16.3483 14.8153 16.3972 15.0009 16.4209C15.9556 16.6394 16.9997 16.6661 18.0988 16.3613C18.079 16.6821 18.0163 17.0068 17.8926 17.3223C17.7681 17.6386 17.5764 17.9441 17.3221 18.1962C17.0211 18.498 16.6491 18.7096 16.2711 18.8303C15.9388 18.9365 15.602 18.9793 15.2682 18.9808C14.6839 18.9823 14.1042 18.8631 13.5114 18.6661C12.6231 18.3696 11.7028 17.8907 10.7648 17.2612C9.82763 16.631 8.87746 15.8495 7.96395 14.9358C7.16883 14.1406 6.47301 13.3171 5.89023 12.4989C5.45333 11.8847 5.0806 11.2744 4.77813 10.6762C4.55205 10.227 4.36415 9.78548 4.22132 9.35081C4.00898 8.69765 3.88983 8.05978 3.92573 7.41503C3.94482 7.09342 4.00745 6.76723 4.13272 6.4502C4.25722 6.13394 4.44893 5.82913 4.70328 5.57627C5.00422 5.27453 5.37619 5.06292 5.75427 4.94222C6.01396 4.85895 6.27671 4.81541 6.53869 4.79937C6.23394 5.89712 6.26067 6.93987 6.47835 7.89401H6.47759L6.47912 7.89477Z"/>
</mask>
<path fill-rule="evenodd" clip-rule="evenodd" d="M5.92536 9.69457L6.92747 8.41271C7.25667 7.99179 7.62024 7.58004 8.01589 7.18356C9.61071 5.5885 11.4675 4.51213 13.209 4.08205C14.9352 3.65578 16.6682 3.84599 17.8292 4.98347C17.8399 4.9934 17.8498 5.00333 17.8598 5.01403C17.8735 5.02778 17.8873 5.04229 17.901 5.05681C19.0299 6.22026 19.2163 7.95054 18.7893 9.67394C18.3578 11.4134 17.2823 13.2674 15.6898 14.8602C15.2934 15.2567 14.8825 15.6195 14.4608 15.9488L13.1792 16.9511L13.3694 15.4507C13.07 15.7349 12.7644 16.0114 12.4536 16.2788C11.0512 17.4827 9.59237 18.4514 8.25267 19.0495L6.65327 19.7638L7.41936 18.048C6.73576 18.4583 6.13312 18.7677 5.63588 18.9968C5.16996 19.2115 4.79646 19.3566 4.53524 19.4483C4.40463 19.4941 4.30228 19.527 4.22972 19.5491C4.19382 19.5598 4.16556 19.5682 4.14494 19.5744C4.13501 19.5774 4.12661 19.5797 4.1205 19.5812C4.11744 19.582 4.11439 19.5828 4.11286 19.5835H4.1098L4.10828 19.585C4.10828 19.585 4.05201 19.3689 3.93948 18.9365C3.93948 18.9365 4.22743 18.8616 4.73994 18.6554C5.43576 18.375 6.54633 17.8517 7.91277 16.9442C8.25496 16.7173 8.61242 16.466 8.98439 16.1887L7.97999 18.4376C8.2878 18.3001 8.60401 18.1412 8.92634 17.9617C9.92768 17.4056 10.984 16.6577 12.0182 15.77C12.5315 15.3292 13.0302 14.8617 13.5069 14.3759C13.775 14.1024 14.0362 13.8236 14.2882 13.5409L14.0499 15.4209C14.3058 15.2208 14.5586 15.0069 14.8069 14.78C14.9451 14.6532 15.0826 14.5218 15.2178 14.3866C18.2585 11.3454 19.2369 7.38753 17.4183 5.51974C17.4084 5.50905 17.3977 5.49835 17.3877 5.48766C17.3801 5.48002 17.3725 5.47238 17.3648 5.46474C15.5011 3.63439 11.537 4.61144 8.49097 7.65719C8.35578 7.79241 8.22441 7.92991 8.09761 8.06818C7.87077 8.31569 7.6569 8.56855 7.45678 8.82523L9.33574 8.58688C9.05237 8.83898 8.77358 9.10024 8.50014 9.36838C8.01436 9.84506 7.54691 10.3439 7.1062 10.8573C6.2179 11.8916 5.4709 12.9481 4.91485 13.9496C4.73612 14.2712 4.57725 14.5882 4.439 14.8961L6.69146 13.89C6.4142 14.2613 6.16367 14.6188 5.93682 14.961C5.03019 16.3277 4.50545 17.4407 4.22361 18.1374C4.01662 18.6492 3.941 18.9365 3.941 18.9365C3.5092 18.8224 3.2933 18.7651 3.2933 18.7646V18.7631L3.29483 18.76C3.29483 18.7577 3.29636 18.7554 3.29712 18.7524C3.29865 18.7463 3.30094 18.7379 3.30399 18.7279C3.3101 18.7073 3.31851 18.679 3.3292 18.6431C3.35135 18.5713 3.38496 18.4682 3.43155 18.3376C3.52473 18.0755 3.67062 17.702 3.88601 17.2352C4.11591 16.7379 4.42525 16.1359 4.83465 15.4538L3.11457 16.2223L3.82873 14.6226C4.42678 13.2827 5.39528 11.8229 6.59904 10.4211C6.86637 10.1101 7.14286 9.80381 7.427 9.50512L5.92765 9.69533L5.92536 9.69457ZM3.94024 18.9357L4.10904 19.5843L3 19.873L3.29254 18.7646L3.94024 18.9357Z" fill="#2EE09A"/>
<path d="M4.29803 5.14116C5.42086 4.01777 7.05173 3.87731 8.87702 4.48941C9.62568 4.74047 10.4055 5.11779 11.1937 5.6043C11.2091 5.59581 11.2245 5.58737 11.2399 5.57898C8.51311 3.88916 5.87756 3.49601 4.26562 5.10875C2.45308 6.92157 3.17463 10.027 5.42311 13.1017C5.43194 13.0879 5.4408 13.0741 5.4497 13.0604C4.62338 11.928 4.00561 10.7927 3.64637 9.72115C3.03437 7.89568 3.17481 6.26455 4.29803 5.14116Z" fill="#2EE09A"/>
<path d="M6.25485 14.0846L6.21131 14.1041C6.26881 14.1724 6.32703 14.2406 6.38594 14.3087C6.39505 14.296 6.40419 14.2832 6.41337 14.2704C6.35995 14.2085 6.30711 14.1466 6.25485 14.0846Z" fill="#2EE09A"/>
<path d="M8.60351 16.467C8.59072 16.4762 8.57795 16.4853 8.5652 16.4945C8.63327 16.5538 8.70145 16.6124 8.7697 16.6703L8.78917 16.6267C8.72721 16.5741 8.66532 16.5208 8.60351 16.467Z" fill="#2EE09A"/>
<path d="M9.80519 17.4333C9.79144 17.4422 9.7777 17.451 9.76396 17.4598C12.8444 19.7386 15.9539 20.489 17.7987 18.6439C19.4417 17.0006 19.0263 14.3541 17.3062 11.6183C17.2978 11.6337 17.2894 11.649 17.281 11.6644C17.783 12.4658 18.172 13.2588 18.4294 14.0201C19.0451 15.8415 18.9048 17.4727 17.7663 18.6115C16.6277 19.7502 14.9967 19.8905 13.1756 19.2747C12.0939 18.9089 10.9482 18.2771 9.80519 17.4333Z" fill="#2EE09A"/>
<path d="M15.1926 14.4094C15.2471 14.5312 15.296 14.6493 15.3392 14.7632C15.4882 15.1513 15.5684 15.4881 15.5905 15.7341C15.6027 15.8602 15.5997 15.9595 15.5913 16.0313C16.3742 16.1726 17.2128 16.1741 18.0904 15.9664C18.0981 15.3934 17.985 14.8251 17.7964 14.2445C17.6566 13.8182 17.4733 13.3851 17.251 12.945C17.1431 12.7319 17.0261 12.5173 16.9003 12.3015C16.4416 13.019 15.8777 13.7241 15.2163 14.3858C15.2084 14.3937 15.2005 14.4016 15.1926 14.4094Z" fill="#2EE09A"/>
<path d="M10.5672 5.9768C9.92782 5.60629 9.29923 5.31349 8.68727 5.10875C8.10678 4.91624 7.53775 4.80013 6.9649 4.80089C6.95964 4.80089 6.95402 4.80126 6.9483 4.80164C6.94238 4.80202 6.93635 4.80242 6.93053 4.80242C6.72277 5.68016 6.7243 6.51895 6.86484 7.30197C6.88088 7.29967 6.89845 7.29815 6.91831 7.29662C7.11231 7.2821 7.45908 7.32488 7.88604 7.46621C8.06345 7.52488 8.25545 7.59903 8.45814 7.68867C8.46855 7.67817 8.47899 7.66768 8.48945 7.65719C9.14918 6.99752 9.85199 6.43489 10.5672 5.9768Z" fill="#2EE09A"/>
<path d="M6.47912 7.89477C6.50891 8.13846 6.58834 8.45778 6.72735 8.82141C6.86102 9.17358 7.05044 9.567 7.28798 9.98333C7.89673 11.0994 8.6613 11.9833 9.1868 12.5432C9.37011 12.7434 9.55953 12.9435 9.75736 13.1414C9.94525 13.3293 10.1347 13.5088 10.3241 13.683C10.884 14.2109 11.7868 14.9977 12.931 15.6195C13.0768 15.7028 13.2212 15.7815 13.361 15.8533C13.71 16.0305 14.0385 16.1665 14.3287 16.262C14.5869 16.3483 14.8153 16.3972 15.0009 16.4209C15.9556 16.6394 16.9997 16.6661 18.0988 16.3613C18.079 16.6821 18.0163 17.0068 17.8926 17.3223C17.7681 17.6386 17.5764 17.9441 17.3221 18.1962C17.0211 18.498 16.6491 18.7096 16.2711 18.8303C15.9388 18.9365 15.602 18.9793 15.2682 18.9808C14.6839 18.9823 14.1042 18.8631 13.5114 18.6661C12.6231 18.3696 11.7028 17.8907 10.7648 17.2612C9.82763 16.631 8.87746 15.8495 7.96395 14.9358C7.16883 14.1406 6.47301 13.3171 5.89023 12.4989C5.45333 11.8847 5.0806 11.2744 4.77813 10.6762C4.55205 10.227 4.36415 9.78548 4.22132 9.35081C4.00898 8.69765 3.88983 8.05978 3.92573 7.41503C3.94482 7.09342 4.00745 6.76723 4.13272 6.4502C4.25722 6.13394 4.44893 5.82913 4.70328 5.57627C5.00422 5.27453 5.37619 5.06292 5.75427 4.94222C6.01396 4.85895 6.27671 4.81541 6.53869 4.79937C6.23394 5.89712 6.26067 6.93987 6.47835 7.89401H6.47759L6.47912 7.89477Z" fill="#2EE09A"/>
<path fill-rule="evenodd" clip-rule="evenodd" d="M5.92536 9.69457L6.92747 8.41271C7.25667 7.99179 7.62024 7.58004 8.01589 7.18356C9.61071 5.5885 11.4675 4.51213 13.209 4.08205C14.9352 3.65578 16.6682 3.84599 17.8292 4.98347C17.8399 4.9934 17.8498 5.00333 17.8598 5.01403C17.8735 5.02778 17.8873 5.04229 17.901 5.05681C19.0299 6.22026 19.2163 7.95054 18.7893 9.67394C18.3578 11.4134 17.2823 13.2674 15.6898 14.8602C15.2934 15.2567 14.8825 15.6195 14.4608 15.9488L13.1792 16.9511L13.3694 15.4507C13.07 15.7349 12.7644 16.0114 12.4536 16.2788C11.0512 17.4827 9.59237 18.4514 8.25267 19.0495L6.65327 19.7638L7.41936 18.048C6.73576 18.4583 6.13312 18.7677 5.63588 18.9968C5.16996 19.2115 4.79646 19.3566 4.53524 19.4483C4.40463 19.4941 4.30228 19.527 4.22972 19.5491C4.19382 19.5598 4.16556 19.5682 4.14494 19.5744C4.13501 19.5774 4.12661 19.5797 4.1205 19.5812C4.11744 19.582 4.11439 19.5828 4.11286 19.5835H4.1098L4.10828 19.585C4.10828 19.585 4.05201 19.3689 3.93948 18.9365C3.93948 18.9365 4.22743 18.8616 4.73994 18.6554C5.43576 18.375 6.54633 17.8517 7.91277 16.9442C8.25496 16.7173 8.61242 16.466 8.98439 16.1887L7.97999 18.4376C8.2878 18.3001 8.60401 18.1412 8.92634 17.9617C9.92768 17.4056 10.984 16.6577 12.0182 15.77C12.5315 15.3292 13.0302 14.8617 13.5069 14.3759C13.775 14.1024 14.0362 13.8236 14.2882 13.5409L14.0499 15.4209C14.3058 15.2208 14.5586 15.0069 14.8069 14.78C14.9451 14.6532 15.0826 14.5218 15.2178 14.3866C18.2585 11.3454 19.2369 7.38753 17.4183 5.51974C17.4084 5.50905 17.3977 5.49835 17.3877 5.48766C17.3801 5.48002 17.3725 5.47238 17.3648 5.46474C15.5011 3.63439 11.537 4.61144 8.49097 7.65719C8.35578 7.79241 8.22441 7.92991 8.09761 8.06818C7.87077 8.31569 7.6569 8.56855 7.45678 8.82523L9.33574 8.58688C9.05237 8.83898 8.77358 9.10024 8.50014 9.36838C8.01436 9.84506 7.54691 10.3439 7.1062 10.8573C6.2179 11.8916 5.4709 12.9481 4.91485 13.9496C4.73612 14.2712 4.57725 14.5882 4.439 14.8961L6.69146 13.89C6.4142 14.2613 6.16367 14.6188 5.93682 14.961C5.03019 16.3277 4.50545 17.4407 4.22361 18.1374C4.01662 18.6492 3.941 18.9365 3.941 18.9365C3.5092 18.8224 3.2933 18.7651 3.2933 18.7646V18.7631L3.29483 18.76C3.29483 18.7577 3.29636 18.7554 3.29712 18.7524C3.29865 18.7463 3.30094 18.7379 3.30399 18.7279C3.3101 18.7073 3.31851 18.679 3.3292 18.6431C3.35135 18.5713 3.38496 18.4682 3.43155 18.3376C3.52473 18.0755 3.67062 17.702 3.88601 17.2352C4.11591 16.7379 4.42525 16.1359 4.83465 15.4538L3.11457 16.2223L3.82873 14.6226C4.42678 13.2827 5.39528 11.8229 6.59904 10.4211C6.86637 10.1101 7.14286 9.80381 7.427 9.50512L5.92765 9.69533L5.92536 9.69457ZM3.94024 18.9357L4.10904 19.5843L3 19.873L3.29254 18.7646L3.94024 18.9357Z" stroke="#2EE09A" stroke-width="1.2" mask="url(#path-1-inside-1_13807_41990)"/>
<path d="M4.29803 5.14116C5.42086 4.01777 7.05173 3.87731 8.87702 4.48941C9.62568 4.74047 10.4055 5.11779 11.1937 5.6043C11.2091 5.59581 11.2245 5.58737 11.2399 5.57898C8.51311 3.88916 5.87756 3.49601 4.26562 5.10875C2.45308 6.92157 3.17463 10.027 5.42311 13.1017C5.43194 13.0879 5.4408 13.0741 5.4497 13.0604C4.62338 11.928 4.00561 10.7927 3.64637 9.72115C3.03437 7.89568 3.17481 6.26455 4.29803 5.14116Z" stroke="#2EE09A" stroke-width="1.2" mask="url(#path-1-inside-1_13807_41990)"/>
<path d="M6.25485 14.0846L6.21131 14.1041C6.26881 14.1724 6.32703 14.2406 6.38594 14.3087C6.39505 14.296 6.40419 14.2832 6.41337 14.2704C6.35995 14.2085 6.30711 14.1466 6.25485 14.0846Z" stroke="#2EE09A" stroke-width="1.2" mask="url(#path-1-inside-1_13807_41990)"/>
<path d="M8.60351 16.467C8.59072 16.4762 8.57795 16.4853 8.5652 16.4945C8.63327 16.5538 8.70145 16.6124 8.7697 16.6703L8.78917 16.6267C8.72721 16.5741 8.66532 16.5208 8.60351 16.467Z" stroke="#2EE09A" stroke-width="1.2" mask="url(#path-1-inside-1_13807_41990)"/>
<path d="M9.80519 17.4333C9.79144 17.4422 9.7777 17.451 9.76396 17.4598C12.8444 19.7386 15.9539 20.489 17.7987 18.6439C19.4417 17.0006 19.0263 14.3541 17.3062 11.6183C17.2978 11.6337 17.2894 11.649 17.281 11.6644C17.783 12.4658 18.172 13.2588 18.4294 14.0201C19.0451 15.8415 18.9048 17.4727 17.7663 18.6115C16.6277 19.7502 14.9967 19.8905 13.1756 19.2747C12.0939 18.9089 10.9482 18.2771 9.80519 17.4333Z" stroke="#2EE09A" stroke-width="1.2" mask="url(#path-1-inside-1_13807_41990)"/>
<path d="M15.1926 14.4094C15.2471 14.5312 15.296 14.6493 15.3392 14.7632C15.4882 15.1513 15.5684 15.4881 15.5905 15.7341C15.6027 15.8602 15.5997 15.9595 15.5913 16.0313C16.3742 16.1726 17.2128 16.1741 18.0904 15.9664C18.0981 15.3934 17.985 14.8251 17.7964 14.2445C17.6566 13.8182 17.4733 13.3851 17.251 12.945C17.1431 12.7319 17.0261 12.5173 16.9003 12.3015C16.4416 13.019 15.8777 13.7241 15.2163 14.3858C15.2084 14.3937 15.2005 14.4016 15.1926 14.4094Z" stroke="#2EE09A" stroke-width="1.2" mask="url(#path-1-inside-1_13807_41990)"/>
<path d="M10.5672 5.9768C9.92782 5.60629 9.29923 5.31349 8.68727 5.10875C8.10678 4.91624 7.53775 4.80013 6.9649 4.80089C6.95964 4.80089 6.95402 4.80126 6.9483 4.80164C6.94238 4.80202 6.93635 4.80242 6.93053 4.80242C6.72277 5.68016 6.7243 6.51895 6.86484 7.30197C6.88088 7.29967 6.89845 7.29815 6.91831 7.29662C7.11231 7.2821 7.45908 7.32488 7.88604 7.46621C8.06345 7.52488 8.25545 7.59903 8.45814 7.68867C8.46855 7.67817 8.47899 7.66768 8.48945 7.65719C9.14918 6.99752 9.85199 6.43489 10.5672 5.9768Z" stroke="#2EE09A" stroke-width="1.2" mask="url(#path-1-inside-1_13807_41990)"/>
<path d="M6.47912 7.89477C6.50891 8.13846 6.58834 8.45778 6.72735 8.82141C6.86102 9.17358 7.05044 9.567 7.28798 9.98333C7.89673 11.0994 8.6613 11.9833 9.1868 12.5432C9.37011 12.7434 9.55953 12.9435 9.75736 13.1414C9.94525 13.3293 10.1347 13.5088 10.3241 13.683C10.884 14.2109 11.7868 14.9977 12.931 15.6195C13.0768 15.7028 13.2212 15.7815 13.361 15.8533C13.71 16.0305 14.0385 16.1665 14.3287 16.262C14.5869 16.3483 14.8153 16.3972 15.0009 16.4209C15.9556 16.6394 16.9997 16.6661 18.0988 16.3613C18.079 16.6821 18.0163 17.0068 17.8926 17.3223C17.7681 17.6386 17.5764 17.9441 17.3221 18.1962C17.0211 18.498 16.6491 18.7096 16.2711 18.8303C15.9388 18.9365 15.602 18.9793 15.2682 18.9808C14.6839 18.9823 14.1042 18.8631 13.5114 18.6661C12.6231 18.3696 11.7028 17.8907 10.7648 17.2612C9.82763 16.631 8.87746 15.8495 7.96395 14.9358C7.16883 14.1406 6.47301 13.3171 5.89023 12.4989C5.45333 11.8847 5.0806 11.2744 4.77813 10.6762C4.55205 10.227 4.36415 9.78548 4.22132 9.35081C4.00898 8.69765 3.88983 8.05978 3.92573 7.41503C3.94482 7.09342 4.00745 6.76723 4.13272 6.4502C4.25722 6.13394 4.44893 5.82913 4.70328 5.57627C5.00422 5.27453 5.37619 5.06292 5.75427 4.94222C6.01396 4.85895 6.27671 4.81541 6.53869 4.79937C6.23394 5.89712 6.26067 6.93987 6.47835 7.89401H6.47759L6.47912 7.89477Z" stroke="#2EE09A" stroke-width="1.2" mask="url(#path-1-inside-1_13807_41990)"/>
</g>
<defs>
<filter id="filter0_d_13807_41990" x="0" y="0.873047" width="22" height="22" filterUnits="userSpaceOnUse" color-interpolation-filters="sRGB">
<feFlood flood-opacity="0" result="BackgroundImageFix"/>
<feColorMatrix in="SourceAlpha" type="matrix" values="0 0 0 0 0 0 0 0 0 0 0 0 0 0 0 0 0 0 127 0" result="hardAlpha"/>
<feOffset/>
<feGaussianBlur stdDeviation="1.5"/>
<feComposite in2="hardAlpha" operator="out"/>
<feColorMatrix type="matrix" values="0 0 0 0 0.180392 0 0 0 0 0.878431 0 0 0 0 0.603922 0 0 0 0.8 0"/>
<feBlend mode="normal" in2="BackgroundImageFix" result="effect1_dropShadow_13807_41990"/>
<feBlend mode="normal" in="SourceGraphic" in2="effect1_dropShadow_13807_41990" result="shape"/>
</filter>
</defs>
</svg>
