<svg width="23" height="22" viewBox="0 0 23 22" fill="none" xmlns="http://www.w3.org/2000/svg">
<path d="M10.5947 1.49631C10.9805 0.834543 11.9364 0.834583 12.3222 1.49631L15.0937 6.25412C15.2349 6.49664 15.4718 6.66926 15.746 6.72873L21.1279 7.89377C21.8768 8.05598 22.1724 8.96581 21.6621 9.53733L17.9931 13.6438C17.8062 13.8531 17.7159 14.1312 17.7441 14.4104L18.2988 19.8889C18.3758 20.6513 17.6016 21.2135 16.9003 20.9045L11.8613 18.6838C11.6046 18.5709 11.3122 18.5709 11.0556 18.6838L6.01654 20.9045C5.31529 21.2135 4.54108 20.6513 4.61811 19.8889L5.17279 14.4104C5.20103 14.1311 5.11075 13.8531 4.92377 13.6438L1.25483 9.53733C0.744617 8.96584 1.04023 8.05605 1.78901 7.89377L7.17084 6.72873C7.44517 6.66929 7.68191 6.49668 7.82319 6.25412L10.5947 1.49631Z" fill="#2EE09A"/>
<path d="M10.5947 1.49631L9.94673 1.11858L9.9466 1.11881L10.5947 1.49631ZM12.3222 1.49631L12.9703 1.11881L12.9701 1.11854L12.3222 1.49631ZM15.0937 6.25412L15.7418 5.87665L15.7418 5.87662L15.0937 6.25412ZM15.746 6.72873L15.5871 7.4617L15.5874 7.46175L15.746 6.72873ZM21.1279 7.89377L21.2866 7.16077L21.2866 7.16075L21.1279 7.89377ZM21.6621 9.53733L22.2213 10.037L22.2215 10.0369L21.6621 9.53733ZM17.9931 13.6438L17.4338 13.1441L17.4337 13.1442L17.9931 13.6438ZM17.7441 14.4104L16.9979 14.4858L16.9979 14.4859L17.7441 14.4104ZM18.2988 19.8889L19.045 19.8135L19.045 19.8133L18.2988 19.8889ZM16.9003 20.9045L16.5979 21.5908L16.5979 21.5908L16.9003 20.9045ZM11.8613 18.6838L12.1637 17.9975L12.1633 17.9973L11.8613 18.6838ZM11.0556 18.6838L10.7535 17.9974L10.7532 17.9975L11.0556 18.6838ZM6.01654 20.9045L6.31894 21.5909L6.319 21.5908L6.01654 20.9045ZM4.61811 19.8889L3.87192 19.8133L3.87191 19.8135L4.61811 19.8889ZM5.17279 14.4104L5.91898 14.4859L5.91899 14.4858L5.17279 14.4104ZM4.92377 13.6438L5.4831 13.1441L5.48306 13.1441L4.92377 13.6438ZM1.25483 9.53733L0.695351 10.0368L0.695541 10.037L1.25483 9.53733ZM1.78901 7.89377L1.63032 7.16075L1.63015 7.16079L1.78901 7.89377ZM7.17084 6.72873L7.32952 7.46175L7.32968 7.46172L7.17084 6.72873ZM7.82319 6.25412L7.17512 5.87662L7.1751 5.87665L7.82319 6.25412ZM10.5947 1.49631L11.2426 1.87404C11.339 1.7087 11.5778 1.7086 11.6743 1.87408L12.3222 1.49631L12.9701 1.11854C12.295 -0.0394315 10.6219 -0.039611 9.94673 1.11858L10.5947 1.49631ZM12.3222 1.49631L11.6741 1.87382L14.4456 6.63163L15.0937 6.25412L15.7418 5.87662L12.9703 1.11881L12.3222 1.49631ZM15.0937 6.25412L14.4456 6.6316C14.6924 7.05529 15.1063 7.35745 15.5871 7.4617L15.746 6.72873L15.905 5.99577C15.8372 5.98107 15.7775 5.93799 15.7418 5.87665L15.0937 6.25412ZM15.746 6.72873L15.5874 7.46175L20.9692 8.62679L21.1279 7.89377L21.2866 7.16075L15.9047 5.99571L15.746 6.72873ZM21.1279 7.89377L20.9691 8.62678C21.1562 8.66729 21.2303 8.8948 21.1026 9.03779L21.6621 9.53733L22.2215 10.0369C23.1145 9.03683 22.5974 7.44466 21.2866 7.16077L21.1279 7.89377ZM21.6621 9.53733L21.1028 9.03763L17.4338 13.1441L17.9931 13.6438L18.5524 14.1435L22.2213 10.037L21.6621 9.53733ZM17.9931 13.6438L17.4337 13.1442C17.1066 13.5105 16.9485 13.9973 16.9979 14.4858L17.7441 14.4104L18.4903 14.3349C18.4832 14.2651 18.5058 14.1957 18.5525 14.1434L17.9931 13.6438ZM17.7441 14.4104L16.9979 14.4859L17.5526 19.9644L18.2988 19.8889L19.045 19.8133L18.4903 14.3348L17.7441 14.4104ZM18.2988 19.8889L17.5526 19.9643C17.5718 20.1547 17.3783 20.2955 17.2028 20.2182L16.9003 20.9045L16.5979 21.5908C17.8249 22.1315 19.1798 21.1479 19.045 19.8135L18.2988 19.8889ZM16.9003 20.9045L17.2028 20.2182L12.1637 17.9975L11.8613 18.6838L11.5588 19.3701L16.5979 21.5908L16.9003 20.9045ZM11.8613 18.6838L12.1633 17.9973C11.7143 17.7998 11.2027 17.7997 10.7535 17.9974L11.0556 18.6838L11.3577 19.3703C11.4218 19.3421 11.495 19.342 11.5592 19.3703L11.8613 18.6838ZM11.0556 18.6838L10.7532 17.9975L5.71409 20.2182L6.01654 20.9045L6.319 21.5908L11.3581 19.3701L11.0556 18.6838ZM6.01654 20.9045L5.71415 20.2182C5.5386 20.2955 5.34508 20.1546 5.36431 19.9643L4.61811 19.8889L3.87191 19.8135C3.73708 21.1479 5.09199 22.1314 6.31894 21.5909L6.01654 20.9045ZM4.61811 19.8889L5.36429 19.9644L5.91898 14.4859L5.17279 14.4104L4.42661 14.3348L3.87192 19.8133L4.61811 19.8889ZM5.17279 14.4104L5.91899 14.4858C5.96839 13.9973 5.8104 13.5105 5.4831 13.1441L4.92377 13.6438L4.36444 14.1434C4.41111 14.1957 4.43367 14.265 4.4266 14.3349L5.17279 14.4104ZM4.92377 13.6438L5.48306 13.1441L1.81411 9.03763L1.25483 9.53733L0.695541 10.037L4.36449 14.1435L4.92377 13.6438ZM1.25483 9.53733L1.8143 9.03784C1.68669 8.8949 1.76079 8.6673 1.94786 8.62676L1.78901 7.89377L1.63015 7.16079C0.319661 7.4448 -0.197455 9.03679 0.695351 10.0368L1.25483 9.53733ZM1.78901 7.89377L1.94769 8.62679L7.32952 7.46175L7.17084 6.72873L7.01216 5.99571L1.63032 7.16075L1.78901 7.89377ZM7.17084 6.72873L7.32968 7.46172C7.81067 7.35749 8.2245 7.05527 8.47127 6.6316L7.82319 6.25412L7.1751 5.87665C7.13931 5.9381 7.07967 5.98108 7.01201 5.99575L7.17084 6.72873ZM7.82319 6.25412L8.47125 6.63163L11.2427 1.87382L10.5947 1.49631L9.9466 1.11881L7.17512 5.87662L7.82319 6.25412Z" fill="#2EE09A"/>
</svg>
