<svg width="23" height="22" viewBox="0 0 23 22" fill="none" xmlns="http://www.w3.org/2000/svg">
<path d="M10.5947 1.49609L9.94679 1.11837L9.94666 1.11859L10.5947 1.49609ZM12.3223 1.49609L12.9703 1.11859L12.9702 1.11832L12.3223 1.49609ZM15.0938 6.25391L15.7418 5.87643L15.7418 5.8764L15.0938 6.25391ZM15.7461 6.72852L15.5872 7.46148L15.5874 7.46154L15.7461 6.72852ZM21.1279 7.89355L21.2867 7.16055L21.2866 7.16053L21.1279 7.89355ZM21.6621 9.53711L22.2214 10.0368L22.2215 10.0366L21.6621 9.53711ZM17.9932 13.6436L17.4339 13.1439L17.4338 13.144L17.9932 13.6436ZM17.7441 14.4102L16.9979 14.4856L16.998 14.4857L17.7441 14.4102ZM18.2988 19.8887L19.045 19.8133L19.045 19.8131L18.2988 19.8887ZM16.9004 20.9043L16.5979 21.5906L16.598 21.5906L16.9004 20.9043ZM11.8613 18.6836L12.1638 17.9973L12.1634 17.9971L11.8613 18.6836ZM11.0557 18.6836L10.7535 17.9971L10.7532 17.9973L11.0557 18.6836ZM6.0166 20.9043L6.319 21.5906L6.31906 21.5906L6.0166 20.9043ZM4.61816 19.8887L3.87198 19.8131L3.87196 19.8133L4.61816 19.8887ZM5.17285 14.4102L5.91904 14.4857L5.91905 14.4856L5.17285 14.4102ZM4.92383 13.6436L5.48316 13.1439L5.48311 13.1439L4.92383 13.6436ZM1.25488 9.53711L0.695408 10.0366L0.695597 10.0368L1.25488 9.53711ZM1.78906 7.89355L1.63038 7.16053L1.63021 7.16057L1.78906 7.89355ZM7.1709 6.72852L7.32958 7.46154L7.32973 7.4615L7.1709 6.72852ZM7.82324 6.25391L7.17518 5.8764L7.17516 5.87643L7.82324 6.25391ZM10.5947 1.49609L11.2427 1.87382C11.3391 1.70848 11.5779 1.70838 11.6744 1.87386L12.3223 1.49609L12.9702 1.11832C12.295 -0.0396495 10.622 -0.0398291 9.94679 1.11837L10.5947 1.49609ZM12.3223 1.49609L11.6742 1.8736L14.4457 6.63141L15.0938 6.25391L15.7418 5.8764L12.9703 1.11859L12.3223 1.49609ZM15.0938 6.25391L14.4457 6.63138C14.6924 7.05508 15.1064 7.35723 15.5872 7.46148L15.7461 6.72852L15.905 5.99555C15.8373 5.98086 15.7776 5.93778 15.7418 5.87643L15.0938 6.25391ZM15.7461 6.72852L15.5874 7.46154L20.9692 8.62658L21.1279 7.89355L21.2866 7.16053L15.9048 5.99549L15.7461 6.72852ZM21.1279 7.89355L20.9692 8.62656C21.1562 8.66707 21.2304 8.89458 21.1027 9.03757L21.6621 9.53711L22.2215 10.0366C23.1145 9.03661 22.5975 7.44445 21.2867 7.16055L21.1279 7.89355ZM21.6621 9.53711L21.1028 9.03741L17.4339 13.1439L17.9932 13.6436L18.5525 14.1433L22.2214 10.0368L21.6621 9.53711ZM17.9932 13.6436L17.4338 13.144C17.1066 13.5103 16.9485 13.997 16.9979 14.4856L17.7441 14.4102L18.4903 14.3347C18.4833 14.2649 18.5058 14.1954 18.5525 14.1432L17.9932 13.6436ZM17.7441 14.4102L16.998 14.4857L17.5526 19.9642L18.2988 19.8887L19.045 19.8131L18.4903 14.3346L17.7441 14.4102ZM18.2988 19.8887L17.5526 19.9641C17.5719 20.1545 17.3783 20.2953 17.2028 20.218L16.9004 20.9043L16.598 21.5906C17.825 22.1313 19.1799 21.1477 19.045 19.8133L18.2988 19.8887ZM16.9004 20.9043L17.2028 20.218L12.1638 17.9973L11.8613 18.6836L11.5589 19.3699L16.5979 21.5906L16.9004 20.9043ZM11.8613 18.6836L12.1634 17.9971C11.7143 17.7995 11.2027 17.7994 10.7535 17.9971L11.0557 18.6836L11.3578 19.3701C11.4219 19.3419 11.495 19.3418 11.5593 19.3701L11.8613 18.6836ZM11.0557 18.6836L10.7532 17.9973L5.71415 20.218L6.0166 20.9043L6.31906 21.5906L11.3581 19.3699L11.0557 18.6836ZM6.0166 20.9043L5.71421 20.218C5.53865 20.2953 5.34514 20.1544 5.36437 19.9641L4.61816 19.8887L3.87196 19.8133C3.73714 21.1477 5.09204 22.1312 6.319 21.5906L6.0166 20.9043ZM4.61816 19.8887L5.36435 19.9642L5.91904 14.4857L5.17285 14.4102L4.42667 14.3346L3.87198 19.8131L4.61816 19.8887ZM5.17285 14.4102L5.91905 14.4856C5.96845 13.9971 5.81045 13.5103 5.48316 13.1439L4.92383 13.6436L4.3645 14.1432C4.41117 14.1954 4.43373 14.2648 4.42666 14.3347L5.17285 14.4102ZM4.92383 13.6436L5.48311 13.1439L1.81417 9.03741L1.25488 9.53711L0.695597 10.0368L4.36454 14.1433L4.92383 13.6436ZM1.25488 9.53711L1.81436 9.03762C1.68675 8.89468 1.76085 8.66708 1.94792 8.62654L1.78906 7.89355L1.63021 7.16057C0.319717 7.44458 -0.197398 9.03657 0.695408 10.0366L1.25488 9.53711ZM1.78906 7.89355L1.94774 8.62658L7.32958 7.46154L7.1709 6.72852L7.01222 5.99549L1.63038 7.16053L1.78906 7.89355ZM7.1709 6.72852L7.32973 7.4615C7.81073 7.35727 8.22456 7.05505 8.47133 6.63138L7.82324 6.25391L7.17516 5.87643C7.13937 5.93788 7.07973 5.98086 7.01206 5.99553L7.1709 6.72852ZM7.82324 6.25391L8.47131 6.63141L11.2428 1.8736L10.5947 1.49609L9.94666 1.11859L7.17518 5.8764L7.82324 6.25391Z" fill="#2EE09A"/>
</svg>
