<svg width="19" height="17" viewBox="0 0 19 17" fill="none" xmlns="http://www.w3.org/2000/svg">
<path fill-rule="evenodd" clip-rule="evenodd" d="M1.30615 7.68181C6.40641 5.45971 9.80739 3.99476 11.5091 3.28697C16.3677 1.26608 17.3773 0.915036 18.0354 0.903444C18.1801 0.900894 18.5037 0.936762 18.7133 1.10685C18.8903 1.25047 18.939 1.44448 18.9623 1.58065C18.9856 1.71682 19.0146 2.02701 18.9916 2.26938C18.7283 5.03582 17.589 11.7492 17.0094 14.8477C16.7642 16.1588 16.2813 16.5984 15.8138 16.6414C14.7978 16.7349 14.0263 15.9699 13.0422 15.3249C11.5024 14.3155 10.6325 13.6872 9.13785 12.7022C7.4105 11.5639 8.53027 10.9383 9.51468 9.91585C9.7723 9.64827 14.2488 5.57657 14.3354 5.2072C14.3463 5.16101 14.3563 4.98881 14.254 4.89788C14.1517 4.80696 14.0007 4.83805 13.8918 4.86278C13.7373 4.89783 11.2775 6.52373 6.51212 9.74046C5.81389 10.2199 5.18145 10.4535 4.61481 10.4413C3.99014 10.4278 2.78851 10.0881 1.89523 9.79771C0.799577 9.44156 -0.0712243 9.25326 0.00460293 8.6484C0.0440984 8.33336 0.477948 8.01116 1.30615 7.68181Z" fill="white"/>
</svg>
