<?xml version="1.0" encoding="utf-8"?>
<!-- Generator: Adobe Illustrator 26.2.1, SVG Export Plug-In . SVG Version: 6.00 Build 0)  -->
<svg version="1.1" id="Warstwa_1" xmlns="http://www.w3.org/2000/svg" xmlns:xlink="http://www.w3.org/1999/xlink" x="0px" y="0px"
	 viewBox="0 0 1000 1000" style="enable-background:new 0 0 1000 1000;" xml:space="preserve">
<style type="text/css">
	.st0{fill:#FFFFFF;}
</style>
<path class="st0" d="M498.4,0c-11,0-21.5,0.2-30.2,0.8c-57,3.8-111.4,16.7-164.5,39.1c-14.7,6.2-43.1,20.5-56.8,28.5
	c-66.2,38.9-121.7,91.5-164,155.4c-12,18.1-19,30.2-29.3,50.7c-30.9,61-48.4,125.1-52.9,193.9c-0.9,13.7-0.9,49.8,0,63.5
	c4.6,68.8,22.1,132.9,52.9,193.9C64,746.3,71,758.4,83,776.4c42.3,63.9,97.8,116.4,164,155.4c13.7,8.1,42.2,22.4,56.7,28.5
	c53.1,22.3,107,35.2,163.3,39.1c11.9,0.8,52.6,0.8,64.7,0c68.8-4.6,132.9-22.1,193.9-52.9c20.5-10.4,32.6-17.4,50.7-29.3
	c63.9-42.3,116.4-97.8,155.4-164c8.1-13.8,22.4-42.2,28.6-57c22.4-53,35.2-107,39-164.3c0.9-13.7,0.9-49.8,0-63.5
	c-3.8-57.3-16.6-111.3-39-164.3c-6.2-14.8-20.5-43.2-28.6-57C850.8,109.4,710.2,19,551.3,2.5C536.6,1,516.8,0.1,498.4,0z M745.5,278
	c2.3,0.1,3.9,0.7,5.7,1.9c4.3,2.9,5.3,7.8,3.6,16.7c-0.4,2.3-22.8,110.8-49.6,241.2c-34,165.2-49.1,237.5-49.6,238.9
	c-1.7,4.2-4.5,7.2-7.2,7.9c-1.6,0.4-5,0.6-7.2,0.3c-1-0.1-2.3-0.4-3-0.7c-0.7-0.3-32.1-23.2-69.8-50.9s-69.8-51.1-71.4-52
	c-3.2-1.8-9.4-3.6-12.4-3.6c-2.5,0-6.4,0.6-8.2,1.2c-3.6,1.2-8.8,5.2-45.1,34.7c-20.1,16.4-37.4,30.4-38.5,31.1
	c-1,0.8-2.7,1.8-3.6,2.2c-1.7,0.8-2,0.9-5.6,0.8c-3.4-0.1-4-0.2-5.7-1c-3-1.5-5.3-4.9-7.5-11.2c-0.6-1.9-12.5-40-26.3-84.8
	c-13.8-44.7-25.3-81.5-25.6-81.7c-0.3-0.2-31.9-12.1-70.2-26.6L178.5,516l-1.9-1.7c-1.1-1-2.3-2.3-2.7-3.1c-0.9-1.5-1.8-5.3-1.8-7.5
	c0-1.9,1.1-5,2.2-6c0.8-0.8,8.2-4.1,24-10.6c3.8-1.6,127.1-49.2,274-105.9l267-103l3.5-0.2C743.9,277.9,744.7,277.9,745.5,278z
	 M628.4,376.8c-1.1,0.1-2.3,0.3-3.4,0.7c-3.1,1.1-265.5,162.7-269.7,166.1c-5.2,4.2-8.6,8.7-10.2,13.4c-0.3,0.8-0.7,3.1-1,5.1
	c-0.6,4.3-0.5,6.9,0.7,11.5c1,4,28.8,102.5,29.5,104.4c0.8,2.1,2.8,4.2,4.6,4.8c2.4,0.8,2.7,0.8,5,0.7c1.4-0.1,2.7-0.4,3.7-0.8
	c1.8-0.9,4.4-4,4.9-5.9c0.2-0.8,0.8-3,1.3-5.1c0.7-2.6,1.6-8.1,2.9-17.8c5.9-42.9,5.5-41,9-48c2.2-4.3,4.2-6.7,13.7-16.1
	c3.3-3.2,53.1-49.9,110.8-103.7c83-77.5,105-98.1,105.3-99c0.7-1.8,0.8-4.3,0.4-5.7c-0.5-1.6-2.8-3.8-4.4-4.3
	C630.5,376.9,629.5,376.7,628.4,376.8z"/>
</svg>
