<?xml version="1.0" encoding="utf-8"?>
<!-- Generator: Adobe Illustrator 26.2.1, SVG Export Plug-In . SVG Version: 6.00 Build 0)  -->
<svg version="1.1" id="Warstwa_1" xmlns="http://www.w3.org/2000/svg" xmlns:xlink="http://www.w3.org/1999/xlink" x="0px" y="0px"
	 viewBox="0 0 1000 1000" style="enable-background:new 0 0 1000 1000;" xml:space="preserve">
<style type="text/css">
	.st0{fill:#FFFFFF;}
</style>
<path class="st0" d="M498.6,0c-11,0-21.6,0.2-30.2,0.8c-57.1,3.8-111.5,16.7-164.6,39.1c-14.7,6.2-43.1,20.5-56.9,28.5
	c-66.3,39-121.8,91.6-164.2,155.5c-12,18.1-19,30.2-29.4,50.7c-30.9,61.1-48.4,125.2-53,194.1c-0.9,13.7-0.9,49.8,0,63.5
	c4.6,68.8,22.1,133,53,194.1C63.8,746.9,70.8,759,82.8,777C125.1,841,180.7,893.6,247,932.5c13.7,8.1,42.2,22.4,56.7,28.5
	c53.1,22.3,107.1,35.3,163.5,39.1l0,0c11.9,0.8,52.7,0.8,64.8,0c68.8-4.6,133-22.1,194.1-53c20.5-10.4,32.6-17.4,50.7-29.4
	c63.9-42.3,116.5-97.9,155.5-164.1c8.1-13.8,22.4-42.2,28.6-57c22.4-53,35.2-107.1,39-164.4c0.9-13.7,0.9-49.8,0-63.5
	c-3.8-57.3-16.7-111.4-39-164.4c-6.2-14.8-20.5-43.2-28.6-57C851.2,109.5,710.5,19,551.5,2.5C536.8,0.9,517,0.1,498.6,0z
	 M654.6,253.6c38.8,0,73.8,16.4,98.4,42.6c30.7-6,59.6-17.3,85.6-32.7c-10.1,31.5-31.4,57.9-59.3,74.6c27.3-3.3,53.3-10.5,77.4-21.2
	c-18.1,27-40.9,50.8-67.3,69.8c0.3,5.8,0.4,11.6,0.4,17.4c0,178.2-135.6,383.6-383.6,383.6c-76.1,0-147-22.3-206.7-60.6
	c10.5,1.2,21.3,1.9,32.2,1.9c63.2,0,121.3-21.6,167.4-57.7c-59-1.1-108.8-40.1-125.9-93.6c8.2,1.6,16.7,2.4,25.4,2.4
	c12.3,0,24.2-1.6,35.5-4.7C272.5,562.9,226,508.4,226,443.1c0-0.6,0-1.1,0-1.7c18.2,10.1,39,16.2,61.1,16.9
	c-36.2-24.2-60-65.4-60-112.2c0-24.7,6.7-47.9,18.3-67.8c66.5,81.6,165.8,135.2,277.9,140.9c-2.3-9.9-3.5-20.2-3.5-30.7
	C519.7,313.9,580.1,253.6,654.6,253.6z"/>
</svg>
