<svg width="16" height="16" viewBox="0 0 16 16" fill="none" xmlns="http://www.w3.org/2000/svg">
<path fill-rule="evenodd" clip-rule="evenodd" d="M3.21757 2.98659L8.32504 0.212282C9.12352 -0.22144 10.1208 0.028573 10.6208 0.787831L12.0688 2.98659H13.5C14.0523 2.98659 14.5 3.43477 14.5 3.98762V7.19895C15.383 7.58513 16 8.46708 16 9.4933C16 10.5195 15.383 11.4015 14.5 11.7876V14.999C14.5 15.5518 14.0523 16 13.5 16H1C0.447715 16 0 15.5518 0 14.999V3.98762C0 3.43477 0.447715 2.98659 1 2.98659H3.21757ZM10.2721 2.98659L9.36841 1.61427C9.29698 1.5058 9.15451 1.47009 9.04045 1.53205L6.36265 2.98659H10.2721ZM1.5 14.4985V4.48814H13V6.99072H11.5C10.1193 6.99072 9 8.11116 9 9.4933C9 10.8754 10.1193 11.9959 11.5 11.9959H13V14.4985H1.5ZM13.5 8.49226H11.5C10.9477 8.49226 10.5 8.94044 10.5 9.4933C10.5 10.0461 10.9477 10.4943 11.5 10.4943H13.5C14.0523 10.4943 14.5 10.0461 14.5 9.4933C14.5 8.94044 14.0523 8.49226 13.5 8.49226Z" fill="#A9B6BF"/>
</svg>
