<svg width="18" height="14" viewBox="0 0 18 14" fill="none" xmlns="http://www.w3.org/2000/svg">
<path d="M11.5273 7.07617C11.5273 10.0868 9.08677 12.5273 6.07617 12.5273C3.06557 12.5273 0.625 10.0868 0.625 7.07617C0.625 4.06557 3.06557 1.625 6.07617 1.625C9.08677 1.625 11.5273 4.06557 11.5273 7.07617Z" stroke="#2EE09A" stroke-width="1.25"/>
<path d="M5.76387 3.80469H6.51871V4.67872C6.67763 4.70521 6.84449 4.74494 7.0193 4.79791C7.1994 4.85088 7.37156 4.92769 7.53577 5.02833L7.22589 5.87059C7.08816 5.79113 6.91865 5.72227 6.71736 5.664C6.51607 5.60043 6.32272 5.56865 6.13732 5.56865C5.96781 5.56865 5.82743 5.60573 5.71619 5.67989C5.60495 5.74875 5.54933 5.84675 5.54933 5.97388C5.54933 6.09572 5.59701 6.19636 5.69235 6.27582C5.7877 6.34998 5.96251 6.42944 6.21678 6.51419L6.58228 6.63338C6.97957 6.76581 7.28416 6.95386 7.49604 7.19753C7.70793 7.4412 7.81387 7.74314 7.81387 8.10335C7.81387 8.27286 7.78474 8.43442 7.72647 8.58804C7.6735 8.74166 7.58874 8.88203 7.47221 9.00916C7.35567 9.13629 7.20735 9.24489 7.02724 9.33494C6.85244 9.41969 6.6432 9.47796 6.39953 9.50975V10.4315H5.64468V9.52564C5.15734 9.47796 4.72562 9.32699 4.34952 9.07273L4.73886 8.25432C4.92426 8.38145 5.11496 8.4768 5.31096 8.54036C5.50695 8.59863 5.7003 8.62777 5.891 8.62777C6.16115 8.62777 6.34391 8.58274 6.43926 8.49269C6.5399 8.39734 6.59023 8.29404 6.59023 8.1828C6.59023 8.07156 6.54785 7.97356 6.46309 7.88881C6.38364 7.80405 6.22472 7.72195 5.98635 7.64249L5.58111 7.50741C5.4116 7.45444 5.25004 7.38558 5.09642 7.30082C4.9481 7.21607 4.81567 7.11542 4.69913 6.99888C4.5826 6.88235 4.4899 6.74992 4.42103 6.6016C4.35747 6.44798 4.32568 6.27317 4.32568 6.07718C4.32568 5.88118 4.36276 5.70108 4.43692 5.53686C4.51108 5.36735 4.61173 5.22168 4.73886 5.09985C4.866 4.97801 5.01697 4.88266 5.19177 4.8138C5.36658 4.73964 5.55728 4.69726 5.76387 4.68667V3.80469Z" fill="#2EE09A"/>
<path d="M13.6699 2L13.6699 12" stroke="#EF84F5" stroke-width="1.6"/>
<path d="M17 6L13.6667 2L10.3333 6" stroke="#EF84F5" stroke-width="1.6"/>
</svg>
