<svg width="40" height="40" viewBox="0 0 40 40" fill="none" xmlns="http://www.w3.org/2000/svg">
<path d="M15.3662 11.3667H12.5207L25.6191 29.7004H28.4653L15.3662 11.3667Z" fill="white"/>
<path fill-rule="evenodd" clip-rule="evenodd" d="M18.7307 0.031546C19.0749 0.00877183 19.4957 -0.001325 19.9369 0.000138711C20.6723 0.00257823 21.4645 0.0371357 22.0534 0.0985156C28.408 0.76088 34.0311 4.37704 37.2693 9.88373C37.5932 10.4346 38.1634 11.5705 38.4128 12.1619C39.3069 14.2817 39.82 16.4438 39.9727 18.7348C40.0091 19.2809 40.0091 20.727 39.9727 21.2732C39.82 23.5641 39.3069 25.7263 38.4128 27.8461C38.1634 28.4375 37.5932 29.5734 37.2693 30.1243C35.7117 32.7729 33.6088 34.9928 31.0539 36.6851C30.3309 37.164 29.8478 37.4437 29.0271 37.8586C26.5866 39.0924 24.0201 39.793 21.2693 39.9763C20.7846 40.0086 19.1573 40.0078 18.6799 39.975C16.427 39.8203 14.2686 39.3036 12.1463 38.411C11.5672 38.1675 10.4289 37.596 9.8795 37.2729C7.23111 35.7156 5.01067 33.6121 3.3185 31.0576C2.83959 30.3347 2.55984 29.8516 2.14495 29.0309C0.911181 26.5904 0.210601 24.0239 0.027297 21.2732C-0.00909898 20.727 -0.00909898 19.2809 0.027297 18.7348C0.210672 15.9829 0.910692 13.4185 2.14495 10.9771C2.55984 10.1565 2.83959 9.67335 3.3185 8.9504C5.01067 6.39589 7.23111 4.29241 9.8795 2.7351C10.4284 2.41236 11.5657 1.84127 12.1519 1.59405C14.2735 0.69928 16.4493 0.182516 18.7307 0.031546ZM30.3189 10L22.4999 18.8931L31 30.9999H24.7462L19.0202 22.8455L11.8522 30.9999H10L18.1991 21.6753L10 10H16.2538L21.6746 17.7201L28.4667 10H30.3189Z" fill="white"/>
</svg>
