<svg width="154" height="154" viewBox="0 0 154 154" fill="none" xmlns="http://www.w3.org/2000/svg">
<circle cx="77" cy="77" r="75" fill="url(#paint0_radial_25:950)"/>
<g filter="url(#filter0_d_25:950)">
<path fill-rule="evenodd" clip-rule="evenodd" d="M77 137C110.137 137 137 110.137 137 77C137 43.8629 110.137 17 77 17C43.8629 17 17 43.8629 17 77C17 110.137 43.8629 137 77 137ZM77 152C118.421 152 152 118.421 152 77C152 35.5786 118.421 2 77 2C35.5786 2 2 35.5786 2 77C2 118.421 35.5786 152 77 152Z" fill="url(#paint1_linear_25:950)"/>
</g>
<path d="M73.376 37H82.496V47.56C84.416 47.88 86.432 48.36 88.544 49C90.72 49.64 92.8 50.568 94.784 51.784L91.04 61.96C89.376 61 87.328 60.168 84.896 59.464C82.464 58.696 80.128 58.312 77.888 58.312C75.84 58.312 74.144 58.76 72.8 59.656C71.456 60.488 70.784 61.672 70.784 63.208C70.784 64.68 71.36 65.896 72.512 66.856C73.664 67.752 75.776 68.712 78.848 69.736L83.264 71.176C88.064 72.776 91.744 75.048 94.304 77.992C96.864 80.936 98.144 84.584 98.144 88.936C98.144 90.984 97.792 92.936 97.088 94.792C96.448 96.648 95.424 98.344 94.016 99.88C92.608 101.416 90.816 102.728 88.64 103.816C86.528 104.84 84 105.544 81.056 105.928V117.064H71.936V106.12C66.048 105.544 60.832 103.72 56.288 100.648L60.992 90.76C63.232 92.296 65.536 93.448 67.904 94.216C70.272 94.92 72.608 95.272 74.912 95.272C78.176 95.272 80.384 94.728 81.536 93.64C82.752 92.488 83.36 91.24 83.36 89.896C83.36 88.552 82.848 87.368 81.824 86.344C80.864 85.32 78.944 84.328 76.064 83.368L71.168 81.736C69.12 81.096 67.168 80.264 65.312 79.24C63.52 78.216 61.92 77 60.512 75.592C59.104 74.184 57.984 72.584 57.152 70.792C56.384 68.936 56 66.824 56 64.456C56 62.088 56.448 59.912 57.344 57.928C58.24 55.88 59.456 54.12 60.992 52.648C62.528 51.176 64.352 50.024 66.464 49.192C68.576 48.296 70.88 47.784 73.376 47.656V37Z" fill="white"/>
<defs>
<filter id="filter0_d_25:950" x="0" y="0" width="154" height="154" filterUnits="userSpaceOnUse" color-interpolation-filters="sRGB">
<feFlood flood-opacity="0" result="BackgroundImageFix"/>
<feColorMatrix in="SourceAlpha" type="matrix" values="0 0 0 0 0 0 0 0 0 0 0 0 0 0 0 0 0 0 127 0" result="hardAlpha"/>
<feOffset/>
<feGaussianBlur stdDeviation="1"/>
<feComposite in2="hardAlpha" operator="out"/>
<feColorMatrix type="matrix" values="0 0 0 0 0.611765 0 0 0 0 0.905882 0 0 0 0 0.352941 0 0 0 0.5 0"/>
<feBlend mode="normal" in2="BackgroundImageFix" result="effect1_dropShadow_25:950"/>
<feBlend mode="normal" in="SourceGraphic" in2="effect1_dropShadow_25:950" result="shape"/>
</filter>
<radialGradient id="paint0_radial_25:950" cx="0" cy="0" r="1" gradientUnits="userSpaceOnUse" gradientTransform="translate(77 7.625) rotate(90) scale(144.375)">
<stop stop-color="#7748D8"/>
<stop offset="1" stop-color="#4D2F8C"/>
</radialGradient>
<linearGradient id="paint1_linear_25:950" x1="26.5" y1="22" x2="125.5" y2="131" gradientUnits="userSpaceOnUse">
<stop stop-color="#9DD46D"/>
<stop offset="1" stop-color="#E5FFCF"/>
</linearGradient>
</defs>
</svg>
