<svg width="66" height="66" viewBox="0 0 66 66" fill="none" xmlns="http://www.w3.org/2000/svg">
<path fill-rule="evenodd" clip-rule="evenodd" d="M33 62C49.0163 62 62 49.0163 62 33C62 16.9837 49.0163 4 33 4C16.9837 4 4 16.9837 4 33C4 49.0163 16.9837 62 33 62ZM33 65C50.6731 65 65 50.6731 65 33C65 15.3269 50.6731 1 33 1C15.3269 1 1 15.3269 1 33C1 50.6731 15.3269 65 33 65Z" fill="url(#paint0_linear_411_13760)"/>
<path fill-rule="evenodd" clip-rule="evenodd" d="M41.2273 35.0714L39.9287 17L34.1326 17.4112L35.4311 35.4826C35.8843 41.7899 40.5425 47.0093 46.7903 48.2106L50.8961 49L52 43.3311L47.8942 42.5417C44.2272 41.8367 41.4933 38.7733 41.2273 35.0714ZM18.1058 42.542L14 43.3314L15.1038 48.9997L19.2096 48.2103C25.4573 47.0091 30.1154 41.7897 30.5686 35.4825L31.8671 17.4112L26.0715 17L24.773 35.0714C24.507 38.7734 21.7729 41.8369 18.1058 42.542Z" fill="url(#paint1_linear_411_13760)"/>
<path d="M33 64C15.8792 64 2 50.1208 2 33H0C0 51.2254 14.7746 66 33 66V64ZM64 33C64 50.1208 50.1208 64 33 64V66C51.2254 66 66 51.2254 66 33H64ZM33 2C50.1208 2 64 15.8792 64 33H66C66 14.7746 51.2254 0 33 0V2ZM33 0C14.7746 0 0 14.7746 0 33H2C2 15.8792 15.8792 2 33 2V0Z" fill="url(#paint2_linear_411_13760)"/>
<defs>
<linearGradient id="paint0_linear_411_13760" x1="18.1707" y1="65" x2="45.3574" y2="9.99218" gradientUnits="userSpaceOnUse">
<stop stop-color="#5098F6"/>
<stop offset="0.989583" stop-color="#6BE7F5"/>
</linearGradient>
<linearGradient id="paint1_linear_411_13760" x1="24.1951" y1="49" x2="36.3353" y2="19.8305" gradientUnits="userSpaceOnUse">
<stop stop-color="#5098F6"/>
<stop offset="0.989583" stop-color="#6BE7F5"/>
</linearGradient>
<linearGradient id="paint2_linear_411_13760" x1="18.1707" y1="65" x2="45.3574" y2="9.99218" gradientUnits="userSpaceOnUse">
<stop stop-color="#5098F6"/>
<stop offset="0.989583" stop-color="#6BE7F5"/>
</linearGradient>
</defs>
</svg>
