<svg width="50" height="33" viewBox="0 0 50 33" fill="none" xmlns="http://www.w3.org/2000/svg">
<path d="M13.3415 21.7118C13.3415 21.7118 -1.22604 30.548 25.2823 31.0256C51.7907 31.5033 37.7008 21.7118 37.7008 21.7118" stroke="#2EE09A" stroke-width="2"/>
<ellipse cx="19.5494" cy="14.7859" rx="2.8658" ry="4.77633" fill="#2EE09A"/>
<ellipse cx="31.0142" cy="14.7859" rx="2.8658" ry="4.77633" fill="#2EE09A"/>
<path d="M32.4453 23.3836L49.1625 18.6073" stroke="#2EE09A" stroke-width="2"/>
<path d="M32.3452 25.8394L49.6421 26.7435" stroke="#2EE09A" stroke-width="2"/>
<path d="M18.1172 23.3836L1.40004 18.6073" stroke="#2EE09A" stroke-width="2"/>
<path d="M18.2173 25.8394L0.920417 26.7435" stroke="#2EE09A" stroke-width="2"/>
<path d="M12.9667 10.757C12.9667 10.757 7.82463 4.86956 10.1009 2.15966C12.6776 -0.907754 19.4148 6.45835 19.4148 6.45835" stroke="#2EE09A" stroke-width="2"/>
<path d="M37.4629 10.757C37.4629 10.757 42.6051 4.86956 40.3287 2.15966C37.7521 -0.907754 31.0149 6.45835 31.0149 6.45835" stroke="#2EE09A" stroke-width="2"/>
</svg>
