<svg width="50" height="33" viewBox="0 0 50 33" fill="none" xmlns="http://www.w3.org/2000/svg">
<path d="M12.8806 21.7118C12.8806 21.7118 -1.68698 30.548 24.8214 31.0256C51.3297 31.5033 37.2398 21.7118 37.2398 21.7118" stroke="#EF84F5" stroke-width="2"/>
<ellipse cx="19.0885" cy="14.7859" rx="2.8658" ry="4.77633" fill="#EF84F5"/>
<ellipse cx="30.5533" cy="14.7859" rx="2.8658" ry="4.77633" fill="#EF84F5"/>
<path d="M31.9844 23.3836L48.7015 18.6073" stroke="#EF84F5" stroke-width="2"/>
<path d="M31.8843 25.8394L49.1811 26.7435" stroke="#EF84F5" stroke-width="2"/>
<path d="M17.6562 23.3836L0.939105 18.6073" stroke="#EF84F5" stroke-width="2"/>
<path d="M17.7564 25.8394L0.459479 26.7435" stroke="#EF84F5" stroke-width="2"/>
<path d="M12.5058 10.757C12.5058 10.757 7.36369 4.86956 9.64001 2.15966C12.2166 -0.907754 18.9539 6.45835 18.9539 6.45835" stroke="#EF84F5" stroke-width="2"/>
<path d="M37.002 10.757C37.002 10.757 42.1441 4.86956 39.8678 2.15966C37.2912 -0.907754 30.554 6.45835 30.554 6.45835" stroke="#EF84F5" stroke-width="2"/>
</svg>
