<svg width="39" height="44" viewBox="0 0 39 44" fill="none" xmlns="http://www.w3.org/2000/svg">
<path d="M4.29282 12.1817C4.29282 12.1817 0.411207 4.27022 3.68069 1.98348C7.38149 -0.604937 12.5686 9.38211 12.5686 9.38211" stroke="#2EE09A" stroke-width="2"/>
<path d="M34.5158 12.1817C34.5158 12.1817 38.3974 4.27022 35.1279 1.98348C31.4271 -0.604937 26.24 9.38211 26.24 9.38211" stroke="#2EE09A" stroke-width="2"/>
<ellipse cx="12.9222" cy="19.3077" rx="3.23077" ry="5.38462" fill="#2EE09A"/>
<ellipse cx="25.8441" cy="19.3077" rx="3.23077" ry="5.38462" fill="#2EE09A"/>
<path d="M16.2709 36C16.2709 36 15.1742 43 19.6523 43C24.1305 43 23.0338 36 23.0338 36" stroke="#2EE09A" stroke-width="2"/>
<path d="M21.4828 29.6731C20.5501 31.2884 18.2185 31.2884 17.2859 29.6731C16.3532 28.0577 17.519 26.0384 19.3843 26.0384C21.2496 26.0384 22.4154 28.0577 21.4828 29.6731Z" fill="#2EE09A"/>
<path d="M2.79049 25.7692C2.79049 25.7692 1.89576 32.412 5.48362 36C9.25271 39.7692 18.4059 35.1923 18.4059 35.1923" stroke="#2EE09A" stroke-width="2"/>
<path d="M36.4439 25.7692C36.4439 25.7692 37.3386 32.412 33.7508 36C29.9817 39.7692 20.8285 35.1923 20.8285 35.1923" stroke="#2EE09A" stroke-width="2"/>
</svg>
