<svg width="38" height="44" viewBox="0 0 38 44" fill="none" xmlns="http://www.w3.org/2000/svg">
<path d="M3.75376 12.1817C3.75376 12.1817 -0.127855 4.27022 3.14163 1.98348C6.84243 -0.604937 12.0296 9.38211 12.0296 9.38211" stroke="#EF84F5" stroke-width="2"/>
<path d="M33.9767 12.1817C33.9767 12.1817 37.8583 4.27022 34.5888 1.98348C30.888 -0.604937 25.7009 9.38211 25.7009 9.38211" stroke="#EF84F5" stroke-width="2"/>
<ellipse cx="12.3831" cy="19.3077" rx="3.23077" ry="5.38462" fill="#EF84F5"/>
<ellipse cx="25.305" cy="19.3077" rx="3.23077" ry="5.38462" fill="#EF84F5"/>
<path d="M15.7318 36C15.7318 36 14.6352 43 19.1133 43C23.5914 43 22.4947 36 22.4947 36" stroke="#EF84F5" stroke-width="2"/>
<path d="M20.9437 29.6731C20.0111 31.2884 17.6794 31.2884 16.7468 29.6731C15.8142 28.0577 16.98 26.0384 18.8453 26.0384C20.7105 26.0384 21.8763 28.0577 20.9437 29.6731Z" fill="#EF84F5"/>
<path d="M2.25144 25.7692C2.25144 25.7692 1.35671 32.412 4.94456 36C8.71365 39.7692 17.8668 35.1923 17.8668 35.1923" stroke="#EF84F5" stroke-width="2"/>
<path d="M35.9048 25.7692C35.9048 25.7692 36.7995 32.412 33.2117 36C29.4426 39.7692 20.2894 35.1923 20.2894 35.1923" stroke="#EF84F5" stroke-width="2"/>
</svg>
